<?xml version="1.0" encoding="UTF-8"?>
<svg id="Layer_1" data-name="Layer 1" xmlns="http://www.w3.org/2000/svg" viewBox="0 0 287.2 56.54">
  <defs>
    <style>
      .cls-1 {
        fill: #ea0029;
      }
    </style>
  </defs>
  <path class="cls-1" d="M189.12,40.52h-1.24v2.5h1.26c.92,0,1.5-.5,1.5-1.24v-.03c0-.81-.58-1.23-1.51-1.23Z"/>
  <path class="cls-1" d="M251.78,40.49c-1.45,0-2.41,1.16-2.41,2.53v.03c0,1.36.99,2.55,2.43,2.55s2.39-1.16,2.39-2.53v-.03c0-1.38-.97-2.56-2.42-2.56Z"/>
  <polygon class="cls-1" points="208.55 44.03 210.67 44.03 209.61 41.36 208.55 44.03"/>
  <path class="cls-1" d="M199.25,40.57h-1.73v2.29h1.74c.88,0,1.41-.44,1.41-1.12v-.03c0-.76-.55-1.14-1.42-1.14Z"/>
  <path class="cls-1" d="M236.16,40.49c-1.45,0-2.41,1.16-2.41,2.53v.03c0,1.36.99,2.55,2.43,2.55s2.39-1.16,2.39-2.53v-.03c0-1.38-.97-2.56-2.42-2.56Z"/>
  <path class="cls-1" d="M179.04,40.57h-1.73v2.29h1.74c.88,0,1.41-.44,1.41-1.12v-.03c0-.76-.55-1.14-1.42-1.14Z"/>
  <path class="cls-1" d="M263.26,40.57h-1.73v2.29h1.74c.88,0,1.41-.44,1.41-1.12v-.03c0-.76-.55-1.14-1.42-1.14Z"/>
  <path class="cls-1" d="M0,0v56.54h287.2V0H0ZM229.27,8.75h18.45v5.97h-11.63v4.18h11.63v5.65h-11.63v8.79h-6.82V8.75ZM217.86,8.75h2.74v24.6h-2.74V8.75ZM148.59,8.75h2.74v24.59h-2.74V8.75ZM139.63,52.15H4.38V4.38h135.25v47.78ZM151.41,47.96c-2.71,0-4.88-2.07-4.88-4.89v-.03c0-2.76,2.11-4.93,4.97-4.93,1.93,0,3.18.81,4.02,1.96l-1.97,1.53c-.54-.66-1.16-1.11-2.07-1.11-1.32,0-2.26,1.14-2.26,2.52v.03c0,1.42.93,2.53,2.26,2.53.99,0,1.57-.46,2.14-1.15l1.97,1.41c-.89,1.23-2.09,2.13-4.17,2.13ZM166.22,47.78h-2.62v-3.6h-3.37v3.6h-2.62v-9.46h2.62v3.54h3.37v-3.54h2.62v9.46ZM171.77,47.78h-2.62v-9.46h2.62v9.46ZM180.38,47.78l-1.91-2.87h-1.16v2.87h-2.62v-9.46h4.47c1.45,0,2.45.38,3.08,1.01.55.55.84,1.27.84,2.21v.03c0,1.46-.77,2.42-1.95,2.92l2.26,3.3h-3.01ZM170.96,33.91c-7.1,0-12.86-5.76-12.86-12.86s5.76-12.86,12.86-12.86,12.86,5.76,12.86,12.86-5.76,12.86-12.86,12.86ZM193.24,41.65c0,2.25-1.72,3.42-4.05,3.42h-1.31v2.7h-2.62v-9.46h4.07c2.38,0,3.92,1.23,3.92,3.31v.03ZM190.69,33.35l10.52-21.85h-14.4v-2.74h18.76l-11.84,24.59h-3.05ZM208.31,29.24v4.1h-2.74v-4.1h2.74ZM200.59,47.78l-1.91-2.87h-1.16v2.87h-2.62v-9.46h4.47c1.45,0,2.45.38,3.08,1.01.55.55.84,1.27.84,2.21v.03c0,1.46-.77,2.42-1.95,2.92l2.26,3.3h-3.01ZM212.12,47.78l-.68-1.7h-3.66l-.68,1.7h-2.74l4.01-9.53h2.53l4.03,9.53h-2.81ZM225.15,43.02c0,2.73-1.99,4.76-5.38,4.76h-3.61v-9.46h3.66c3.37,0,5.33,1.95,5.33,4.68v.03ZM229.41,47.78h-2.62v-9.46h2.62v9.46ZM241.27,43.05c0,2.72-2.19,4.92-5.11,4.92s-5.08-2.17-5.08-4.89v-.03c0-2.72,2.19-4.93,5.11-4.93s5.08,2.18,5.08,4.9v.03ZM243.98,47.96c-.73,0-1.33-.6-1.33-1.33s.6-1.33,1.33-1.33,1.33.59,1.33,1.33-.6,1.33-1.33,1.33ZM256.89,43.05c0,2.72-2.19,4.92-5.11,4.92s-5.08-2.17-5.08-4.89v-.03c0-2.72,2.19-4.93,5.11-4.93s5.08,2.18,5.08,4.9v.03ZM258.77,33.34h-6.68V8.75h7.2l5.87,9.52,5.87-9.52h7.2v24.59h-6.78v-14.12l-6.29,9.63h-.14l-6.26-9.59v14.09ZM264.6,47.78l-1.91-2.87h-1.16v2.87h-2.62v-9.46h4.47c1.45,0,2.45.38,3.08,1.01.55.55.84,1.27.84,2.21v.03c0,1.46-.77,2.42-1.95,2.92l2.26,3.3h-3.01ZM278.24,46.49c-1,.84-2.38,1.47-4.11,1.47-2.95,0-5.14-2.03-5.14-4.89v-.03c0-2.76,2.16-4.93,5.08-4.93,1.66,0,2.84.5,3.84,1.37l-1.54,1.87c-.68-.57-1.34-.89-2.29-.89-1.36,0-2.42,1.14-2.42,2.58v.03c0,1.54,1.07,2.63,2.57,2.63.65,0,1.13-.13,1.51-.39v-1.15h-1.85v-1.92h4.34v4.25Z"/>
  <path class="cls-1" d="M219.85,40.62h-1.07v4.83h1.07c1.58,0,2.62-.87,2.62-2.39v-.03c0-1.51-1.04-2.41-2.62-2.41Z"/>
  <path class="cls-1" d="M170.96,10.93c-5.58,0-10.12,4.54-10.12,10.12s4.54,10.12,10.12,10.12,10.12-4.54,10.12-10.12-4.54-10.12-10.12-10.12Z"/>
  <path class="cls-1" d="M64.33,48.36c4.45,0,6.97-3.16,6.97-7.85v-6.68h-5.16v6.85c0,1.06-.53,1.82-1.76,1.82s-1.7-.76-1.7-1.82V15.84c0-1.05.47-1.82,1.7-1.82s1.76.76,1.76,1.82v6.86h5.16v-6.68c0-4.63-2.52-7.86-6.97-7.86s-7.79,3.28-7.79,8.03v24.15c0,4.81,3.46,8.03,7.79,8.03Z"/>
  <polygon class="cls-1" points="79.95 31.66 83.35 31.66 83.35 47.78 89.33 47.78 89.33 8.75 83.35 8.75 83.35 25.69 79.95 25.69 79.95 8.75 73.92 8.75 73.92 47.78 79.95 47.78 79.95 31.66"/>
  <rect class="cls-1" x="92.96" y="8.74" width="6.04" height="39.03"/>
  <path class="cls-1" d="M108.69,31.48h1.46c.82,0,1.29.82,1.29,1.76v8.5c0,2.22.53,6.03,1.47,6.03h5.16v-.17c-.41-1.88-.76-3.87-.76-6.32v-7.92c0-1.93-1.17-3.4-2.75-4.45,1.58-1.05,2.58-2.58,2.58-4.4v-8.91c0-5.1-3.34-6.86-6.33-6.86h-8.15v39.03h6.04v-16.29ZM108.69,14.26h1.52c.71,0,1.06.46,1.06,1.64v8.79c0,1.23-.35,1.64-1.06,1.64h-1.52v-12.07Z"/>
  <path class="cls-1" d="M126.81,32.6h2.17c3.11,0,6.27-1.82,6.27-6.97v-9.91c0-5.21-3.16-6.98-6.27-6.98h-8.2v39.03h6.04v-15.17ZM126.81,14.26h1.58c.7,0,1.06.46,1.06,1.64v9.96c0,1.17-.35,1.64-1.06,1.64h-1.58v-13.24Z"/>
  <path class="cls-1" d="M7.62,44.42c.22-.02.48-.29.71-.42.22-.12.73-.48.73-.48,0,0-.51.56-.79.81-.29.26-.53.48-.65.65-.12.17-.02.27.2.25.22-.02.55-.21.71-.21s.34-.17.63-.27c.29-.11.67-.42,1.23-.75.57-.33,1.4-.83,1.98-1.36.59-.52,1.34-1.28,1.72-1.63.38-.36.63-.55.85-.7.22-.14.75-.35,1.38-.64.63-.29,1.78-.96,2.25-1.09.91-.25,1.68-.76,1.68-.76,0,0,1.6-.46,1.94-.63,0,0,.29.02.65-.06.37-.08.81-.25,1.11-.31.3-.06.75-.16.99-.16s-.12.29-.12.29c0,0,.78-.1.95-.29.12-.13,0,.42-.26.63-.26.21.26.04.26.04l-.14.33s.51.07,1.03-.17c.2-.09-.08.36-.08.36l.22-.11-.18.36.48-.17.05.21s.4-.22.5-.4c.13-.21.1,1.03.1,1.03l.24-.23s-.04.56.04.92c.08.36.12.58.32.9.2.32.32.54.46.71.14.17.59.34.95.65.36.31.63.56,1.21,1.02.59.46,1.7,1.53,1.86,1.78,0,0-.45.31-.69.31s-.56.09-.73.02c-.2-.08-.75-.12-.99.06,0,0-.58-.08-.99.02-.23.06-.59.23-.79.5-.2.27-.28.46-.24.77.02.19.22,0,.29-.11.14-.23.34-.39.58-.54.11-.07.51-.12.51-.12,0,0-.21.33-.16.71.02.15.08,0,.14-.15.06-.14.22-.21.22-.21,0,0,0,.27.16.29.16.02.87.04.87.04,0,0,.02.14.26.14s1.09,0,1.25.04c.16.04.22.11.46.11s.31-.04.61.08c.31.13.71.36.91.4.2.04.18.02.39.12.2.11.85.46,1.07.52.22.06.7.31.7.31,0,0,.04.11.26.21.22.11.49.19.63.27.14.09.08.36.67.36,0,0,.3.22.34.39.04.17.16.22.18.05.02-.17-.02-.31-.02-.31,0,0,.1-.13.08-.21-.02-.08-.04-.23-.04-.23,0,0,.12.06.3.06s.24.19.46.19.61-.12.61-.12c0,0,.14.12.35.11.2-.02.3-.08.32-.23.02-.15.02-.38.02-.38,0,0,.25-.06.46.02.24.09.59.33.73.5.13.16.18.04.08-.13-.07-.12-.36-.66-.85-.73-.25-.04-.66.04-.66.04,0,0-.09-.08-.21-.12-.12-.04-.14-.11-.42-.11s-.45.06-.65-.02c-.2-.08-.53-.1-.65-.19-.12-.08-.57-.22-.57-.22,0,0,.26-.08.37-.21.1-.12.04-.46.04-.46,0,0,.16-.1.36-.02.25.09.36.28.4.38.04.1.12.1.12-.04s-.05-.52-.36-.68c-.29-.15-.67,0-.67,0,0,0-.29-.15-.43-.15s-.5-.04-.5-.04v-.29s.15-.04.26.12c.07.1.11,0,.08-.1-.03-.11-.16-.19-.16-.19,0,0,.19.06.33.06s.46-.02.6.06c.14.08.55.16.84.16s.52-.08.58-.16c.11-.16.06-.27.06-.27,0,0,.23-.04.47.04.22.07.46.37.54.6.06.2.21.08.14-.16-.06-.21-.18-.62-.49-.75-.23-.11-.75-.14-.75-.14,0,0-.22-.22-.42-.2-.2.02-.5.06-.69.08-.14.02-.23.02-.27.02-.07-.12-.24-.41-.39-.49-.18-.09-.4-.08-.55-.06l-.09-.06c-.16,0-.34-.02-.44.07-.11.08-.25.19-.37.23-.12.04-.18.15-.31.17-.12.02-.46.02-.46.02,0,0,.02-.15-.18-.17-.21-.02-.37-.04-.59-.04s-.24-.15-.42-.15-.36-.1-.36-.1c0,0-.06-.15-.24-.25s-.34-.23-.46-.33c-.12-.11-.06-.13-.21-.29-.14-.17-.4-.34-.75-.71-.34-.38-.73-.81-1.01-1.17-.28-.36-.51-.59-.65-.75-.14-.17-.38-.42-.38-.42,0,0,.08-.59.2-.92.12-.34.2-.71.37-1.07.16-.35.32-.54.46-.83.14-.29.28-.75.69-1.05.31-.22.57-.41,1-.68l.06.17.02-.22c.11-.07.24-.14.38-.23.09-.05.17-.1.25-.15l.22.27c-.04-.15-.07-.27-.09-.36l.04-.03c.07.1.2.22.4.3l-.18-.42.72-.24c-.17.02-.32.02-.46.02.29-.21.56-.42.84-.61.29-.2.46-.33.65-.52v.5c0-.09.17-.48.34-.84.07-.07.15-.16.25-.25l.07-.07c.02.24.03.51.03.43,0-.15.18-.46.18-.46,0,0,.12.9.12.69,0-.19.04-.89.25-1.28.18-.2.34-.38.56-.62.44-.48.91-1.05,1.55-1.84.65-.79,1-1.17,1.5-2.18.51-1,.79-2,.99-2.86.2-.86.28-1.32.53-2.2.24-.88.45-1.57.89-2.89.44-1.32.91-2.6,1.09-3.45.18-.86.1-1.45.26-1.8.16-.34.53-.81.95-1.17.31-.27.53-.37.72-.47.75-.3,2.47.32,3.5.61,1.05.29,1.69.21,2.01.09.31-.12.13-.16.13-.16-.54-.09-2.32-.69-2.92-.88-.6-.19-.57-.35-.84-.44-.44-.14-.62-.11-.86-.3-.48-.38-.03-.43-.03-.43,1.88-.49,3.73-.34,5.03.27.16.07.16-.02.16-.02-.78-1.06-3.3-1.62-3.3-1.62-.96-.31-1.21-.63-1.21-.63,0,0-.21-.06-.37-.16-.16-.11-.29-.15-.7-.36-.4-.21-.93-.46-1.39-.57-.46-.11-1.24-.11-1.94-.12-.71-.02-1.32.08-1.82.23-.51.15-1.23.52-1.66.96-.42.44-.87.92-1.42,1.72-.55.79-.83,1.32-1.66,2.32-.83,1-2.16,2.56-3.14,3.41-.97.86-2.97,3.1-3.95,3.96-.97.86-2.02,1.84-2.43,2.2-.4.36-.63.73-1.15,1.13-.53.4-1.05.81-1.6,1.17-.55.35-.91.61-1.44,1.05-.52.44-.99.88-1.76,1.48-.77.61-1.16.96-1.78,1.55-.63.59-.71.75-1.13,1.17-.43.42-.75.73-1.01,1.09-.27.36-.37.65-.65.94-.28.29-.4.31-.69.71-.28.4-.46.69-.75.9-.28.21-.87.71-1.38,1.03-.5.31-1.64,1.02-1.96,1.4-.27.31-.21.65-.21.65,0,0-.38.32-.2.4.18.08.52-.08,1.01-.27.49-.19,1.42-.75,2.08-1.07.67-.31,1.68-.88,1.68-.88,0,0-.3.46-.59.65-.29.19-.55.5-1.03.8-.49.29-.87.71-1.26,1.06-.38.36-.67.72-.85.9-.3.32-.1.49.16.38,0,0-.49.35-.97.75-.49.4-.73.65-1.4,1.15-.67.5-1.09.86-1.66,1.38-.57.52-1.41,1.28-1.66,1.61-.24.33-.18.36.04.33Z"/>
</svg>