<?xml version="1.0" encoding="UTF-8"?>
<svg id="Layer_1" data-name="Layer 1" xmlns="http://www.w3.org/2000/svg" viewBox="0 0 144.01 108.69">
  <defs>
    <style>
      .cls-1 {
        fill: #ea0029;
      }
    </style>
  </defs>
  <path class="cls-1" d="M64.33,8.16c-4.33,0-7.79,3.28-7.79,8.03v24.15c0,4.81,3.46,8.03,7.79,8.03s6.97-3.16,6.97-7.85v-6.68h-5.16v6.85c0,1.06-.53,1.82-1.76,1.82s-1.7-.76-1.7-1.82V15.84c0-1.05.47-1.82,1.7-1.82s1.76.76,1.76,1.82v6.86h5.16v-6.68c0-4.63-2.52-7.86-6.97-7.86Z"/>
  <polygon class="cls-1" points="83.35 25.69 79.95 25.69 79.95 8.75 73.92 8.75 73.92 47.78 79.95 47.78 79.95 31.66 83.35 31.66 83.35 47.78 89.33 47.78 89.33 8.75 83.35 8.75 83.35 25.69"/>
  <rect class="cls-1" x="92.96" y="8.74" width="6.04" height="39.03"/>
  <path class="cls-1" d="M117.31,33.36c0-1.93-1.17-3.4-2.75-4.45,1.58-1.05,2.58-2.58,2.58-4.4v-8.91c0-5.1-3.34-6.86-6.33-6.86h-8.15v39.03h6.04v-16.29h1.46c.82,0,1.29.82,1.29,1.76v8.5c0,2.23.53,6.03,1.46,6.03h5.16v-.17c-.41-1.88-.77-3.87-.77-6.33v-7.91ZM111.27,24.69c0,1.23-.35,1.64-1.06,1.64h-1.52v-12.07h1.52c.71,0,1.06.46,1.06,1.64v8.79Z"/>
  <path class="cls-1" d="M128.98,8.74h-8.2v39.03h6.04v-15.17h2.17c3.11,0,6.27-1.82,6.27-6.97v-9.91c0-5.21-3.16-6.98-6.27-6.98ZM129.45,25.86c0,1.17-.36,1.64-1.06,1.64h-1.58v-13.24h1.58c.7,0,1.06.46,1.06,1.64v9.97Z"/>
  <path class="cls-1" d="M52.58,11.64c-1.29-.61-3.14-.76-5.02-.27,0,0-.45.04.03.42.24.19.42.16.86.3.27.08.24.25.84.44.6.19,2.37.79,2.92.88,0,0,.19.04-.13.16-.31.12-.95.21-2.01-.09-1.03-.29-2.75-.91-3.5-.61-.19.1-.4.2-.72.47-.42.36-.79.83-.95,1.17-.17.34-.08.94-.26,1.8-.18.86-.65,2.14-1.09,3.45-.44,1.32-.65,2.01-.89,2.89-.24.88-.32,1.34-.53,2.2-.2.86-.49,1.86-.99,2.86-.5,1.01-.85,1.39-1.5,2.18-.65.79-1.11,1.36-1.56,1.84-.23.24-.39.43-.56.62-.21.38-.25,1.09-.25,1.28,0,.21-.12-.69-.12-.69,0,0-.18.31-.18.46,0,.09-.01-.19-.03-.43l-.08.07c-.09.1-.17.18-.25.25-.17.36-.34.75-.34.84v-.5c-.19.18-.36.32-.65.52-.27.19-.54.39-.84.61.14,0,.29,0,.46-.02l-.73.24.18.42c-.2-.08-.33-.2-.4-.3l-.04.02c.02.08.05.2.09.36l-.23-.27c-.08.05-.16.1-.25.15-.14.09-.27.16-.38.23l-.02.21-.06-.16c-.43.27-.69.46-1,.68-.41.29-.55.75-.69,1.04-.14.29-.31.48-.46.84-.17.36-.24.73-.37,1.07-.12.33-.2.92-.2.92,0,0,.24.25.39.42.14.17.36.4.65.75.28.36.67.8,1.01,1.17.35.38.61.54.75.71.14.17.08.19.2.29.12.1.28.23.47.33.18.1.24.25.24.25,0,0,.18.1.37.1s.2.15.42.15.38.02.59.04c.2.02.18.17.18.17,0,0,.34,0,.46-.02.12-.02.18-.13.31-.17.12-.04.26-.15.37-.23.1-.09.28-.07.44-.07l.09.06c.14-.02.37-.04.55.06.15.08.32.37.39.49.04,0,.13,0,.27-.02.18-.02.49-.06.69-.08.2-.02.42.2.42.2,0,0,.52.03.75.14.31.13.43.55.49.75.07.25-.08.37-.14.17-.07-.24-.32-.53-.54-.61-.24-.08-.48-.04-.48-.04,0,0,.05.11-.06.27-.06.08-.29.16-.58.16s-.7-.08-.84-.16c-.14-.08-.45-.06-.6-.06s-.33-.06-.33-.06c0,0,.13.08.16.19.03.11,0,.2-.08.1-.11-.16-.26-.12-.26-.12v.29s.36.04.5.04.42.15.42.15c0,0,.38-.16.67,0,.31.16.36.53.36.68s-.08.14-.12.04c-.04-.1-.15-.28-.39-.38-.2-.07-.36.02-.36.02,0,0,.06.33-.04.46-.1.13-.37.21-.37.21,0,0,.45.14.57.22.12.08.45.11.65.19.2.08.36.02.65.02s.3.06.42.11c.12.04.21.12.21.12,0,0,.41-.08.66-.04.49.07.78.61.85.73.1.17.05.28-.08.12-.14-.17-.49-.41-.73-.5-.21-.08-.46-.02-.46-.02,0,0,0,.23-.02.38-.02.15-.12.21-.32.23-.2.02-.35-.1-.35-.1,0,0-.38.12-.61.12s-.28-.19-.47-.19-.3-.06-.3-.06c0,0,.02.15.04.23.02.08-.08.21-.08.21,0,0,.04.15.02.32-.02.17-.14.11-.19-.05-.04-.17-.34-.39-.34-.39-.59,0-.53-.27-.67-.36-.14-.08-.4-.16-.63-.27-.22-.1-.26-.21-.26-.21,0,0-.49-.25-.71-.31-.22-.06-.87-.42-1.07-.52-.2-.1-.18-.08-.38-.12-.2-.04-.61-.27-.91-.4-.3-.12-.36-.08-.61-.08s-.3-.06-.46-.1c-.16-.04-1.01-.04-1.25-.04s-.26-.15-.26-.15c0,0-.71-.02-.87-.04-.16-.02-.16-.29-.16-.29,0,0-.16.07-.22.21-.06.15-.12.3-.14.15-.05-.38.16-.71.16-.71,0,0-.4.06-.51.12-.24.15-.45.31-.58.54-.06.1-.26.29-.29.11-.04-.31.04-.5.24-.77.21-.27.57-.45.79-.51.41-.1.99-.02.99-.02.24-.19.79-.15.99-.06.17.07.49-.02.73-.02s.69-.31.69-.31c-.16-.25-1.28-1.32-1.86-1.78-.59-.46-.85-.71-1.21-1.02-.37-.31-.81-.48-.95-.65-.14-.17-.26-.4-.46-.71-.2-.32-.24-.54-.33-.9-.08-.36-.04-.92-.04-.92l-.24.23s.02-1.23-.1-1.03c-.1.18-.5.4-.5.4l-.05-.21-.48.17.18-.36-.22.1s.28-.44.08-.35c-.52.23-1.03.17-1.03.17l.14-.33s-.52.17-.26-.04c.26-.21.38-.75.26-.63-.17.19-.95.29-.95.29,0,0,.36-.29.12-.29s-.69.11-.99.17c-.3.06-.75.23-1.11.31-.36.08-.65.06-.65.06-.34.17-1.94.63-1.94.63,0,0-.77.51-1.68.76-.46.13-1.62.79-2.25,1.09-.63.29-1.15.5-1.38.65-.22.15-.46.34-.85.7-.39.35-1.13,1.1-1.72,1.63-.59.53-1.41,1.03-1.98,1.36-.57.33-.95.65-1.23.75-.28.1-.47.27-.63.27s-.49.19-.71.21c-.22.02-.33-.08-.2-.25.12-.17.36-.39.65-.65.28-.25.79-.82.79-.82,0,0-.51.36-.73.48-.22.12-.48.4-.71.42-.22.02-.28,0-.04-.33.25-.33,1.09-1.09,1.66-1.61.57-.52.99-.88,1.66-1.38.67-.5.91-.75,1.4-1.15.48-.4.97-.75.97-.75-.26.11-.46-.06-.16-.38.17-.18.47-.54.85-.9.39-.35.77-.78,1.26-1.06.48-.29.75-.61,1.03-.8.28-.19.58-.65.58-.65,0,0-1.01.56-1.68.88-.66.31-1.6.88-2.08,1.07-.49.19-.83.36-1.01.27-.19-.08.2-.4.2-.4,0,0-.07-.33.21-.65.32-.38,1.46-1.09,1.96-1.4.51-.32,1.1-.82,1.37-1.03.29-.21.47-.5.75-.9.29-.4.4-.42.69-.71.28-.29.38-.59.65-.94.26-.36.59-.67,1.01-1.09.42-.42.51-.59,1.13-1.17.63-.58,1.01-.94,1.78-1.55.77-.61,1.23-1.04,1.76-1.48.53-.44.89-.69,1.44-1.05.55-.36,1.07-.78,1.6-1.17.53-.4.75-.77,1.15-1.13.41-.35,1.46-1.34,2.43-2.2.97-.86,2.98-3.09,3.95-3.95.97-.86,2.31-2.41,3.14-3.41.83-1.01,1.11-1.53,1.66-2.32.55-.79.99-1.28,1.42-1.72.43-.44,1.15-.82,1.66-.96.51-.15,1.11-.25,1.82-.23.7.02,1.47.02,1.94.12.47.1.99.36,1.39.57.41.21.54.25.7.36.16.11.37.16.37.16,0,0,.25.33,1.21.64,0,0,2.52.56,3.3,1.62,0,0,0,.09-.16.02Z"/>
  <g>
    <path class="cls-1" d="M48.3,92.85h-1.21v2.44h1.23c.9,0,1.46-.49,1.46-1.21v-.03c0-.79-.57-1.2-1.48-1.2Z"/>
    <path class="cls-1" d="M94.2,92.79c-1.41,0-2.35,1.13-2.35,2.47v.03c0,1.33.96,2.49,2.38,2.49s2.34-1.13,2.34-2.46v-.03c0-1.35-.95-2.49-2.36-2.49Z"/>
    <path class="cls-1" d="M109.44,92.79c-1.41,0-2.35,1.13-2.35,2.47v.03c0,1.33.96,2.49,2.38,2.49s2.34-1.13,2.34-2.46v-.03c0-1.35-.95-2.49-2.36-2.49Z"/>
    <path class="cls-1" d="M78.29,92.95h-1.04v4.71h1.04c1.54,0,2.56-.84,2.56-2.33v-.03c0-1.48-1.02-2.35-2.56-2.35Z"/>
    <polygon class="cls-1" points="67.26 96.28 69.33 96.28 68.3 93.66 67.26 96.28"/>
    <path class="cls-1" d="M58.19,92.9h-1.69v2.23h1.7c.86,0,1.37-.42,1.37-1.1v-.03c0-.74-.54-1.11-1.38-1.11Z"/>
    <path class="cls-1" d="M30.58,63.04c-5.45,0-9.88,4.43-9.88,9.87s4.43,9.87,9.88,9.87,9.87-4.43,9.87-9.87-4.43-9.87-9.87-9.87Z"/>
    <path class="cls-1" d="M0,0v108.69h144.01V0S0,0,0,0ZM11.5,100.08c-2.64,0-4.76-2.02-4.76-4.77v-.03c0-2.69,2.06-4.8,4.85-4.8,1.89,0,3.1.79,3.92,1.92l-1.93,1.49c-.53-.64-1.13-1.08-2.02-1.08-1.29,0-2.2,1.11-2.2,2.46v.03c0,1.38.91,2.47,2.2,2.47.96,0,1.53-.45,2.09-1.12l1.92,1.38c-.87,1.2-2.04,2.08-4.07,2.08ZM8.75,84.91v-24h2.67v24h-2.67ZM25.95,99.93h-2.56v-3.51h-3.28v3.51h-2.56v-9.23h2.56v3.46h3.28v-3.46h2.56v9.23ZM31.36,99.93h-2.56v-9.23h2.56v9.23ZM39.77,99.93l-1.86-2.79h-1.13v2.79h-2.56v-9.23h4.37c1.41,0,2.39.37,3.01.99.54.54.82,1.24.82,2.15v.03c0,1.42-.75,2.36-1.9,2.85l2.2,3.22h-2.94ZM30.58,85.46c-6.93,0-12.55-5.62-12.55-12.55s5.62-12.55,12.55-12.55,12.55,5.62,12.55,12.55-5.62,12.55-12.55,12.55ZM52.32,93.95c0,2.19-1.67,3.34-3.96,3.34h-1.28v2.64h-2.56v-9.23h3.97c2.32,0,3.82,1.2,3.82,3.23v.03ZM49.83,84.91l10.26-21.32h-14.05v-2.68h18.31l-11.55,24h-2.97ZM67.03,80.9v4.01h-2.67v-4.01h2.67ZM59.5,99.93l-1.86-2.79h-1.14v2.79h-2.56v-9.23h4.37c1.41,0,2.39.37,3.01.99.54.54.82,1.24.82,2.15v.03c0,1.42-.75,2.36-1.9,2.85l2.2,3.22h-2.94ZM70.74,99.93l-.66-1.66h-3.57l-.66,1.66h-2.68l3.92-9.3h2.47l3.93,9.3h-2.74ZM83.46,95.29c0,2.66-1.94,4.64-5.25,4.64h-3.52v-9.23h3.58c3.29,0,5.2,1.9,5.2,4.56v.03ZM76.34,84.91v-24h2.67v24h-2.67ZM87.62,99.93h-2.56v-9.23h2.56v9.23ZM105.48,70.81v5.52h-11.35v8.57h-6.65v-24h18v5.83h-11.35v4.08h11.35ZM99.19,95.28c0,2.65-2.14,4.8-4.99,4.8s-4.96-2.12-4.96-4.77v-.03c0-2.65,2.14-4.8,4.99-4.8s4.96,2.12,4.96,4.78v.03ZM101.83,100.08c-.72,0-1.3-.58-1.3-1.3s.58-1.3,1.3-1.3,1.3.58,1.3,1.3-.58,1.3-1.3,1.3ZM114.43,95.28c0,2.65-2.14,4.8-4.99,4.8s-4.96-2.12-4.96-4.77v-.03c0-2.65,2.14-4.8,4.99-4.8s4.96,2.12,4.96,4.78v.03ZM116.26,84.91h-6.52v-24h7.03l5.72,9.29,5.73-9.29h7.03v24h-6.62v-13.78l-6.14,9.39h-.13l-6.1-9.36v13.75ZM121.96,99.93l-1.86-2.79h-1.13v2.79h-2.56v-9.23h4.37c1.41,0,2.39.37,3.01.99.54.54.82,1.24.82,2.15v.03c0,1.42-.75,2.36-1.9,2.85l2.2,3.22h-2.94ZM135.27,98.64c-.98.82-2.32,1.44-4.01,1.44-2.88,0-5.02-1.98-5.02-4.77v-.03c0-2.69,2.11-4.8,4.96-4.8,1.62,0,2.77.49,3.75,1.34l-1.5,1.82c-.66-.55-1.31-.87-2.23-.87-1.33,0-2.36,1.11-2.36,2.52v.03c0,1.5,1.04,2.57,2.51,2.57.63,0,1.11-.13,1.48-.38v-1.12h-1.81v-1.87h4.24v4.14ZM139.63,52.15H4.38V4.38h135.25v47.78Z"/>
    <path class="cls-1" d="M38.46,92.9h-1.69v2.23h1.7c.86,0,1.37-.42,1.37-1.1v-.03c0-.74-.54-1.11-1.38-1.11Z"/>
    <path class="cls-1" d="M120.65,92.9h-1.69v2.23h1.7c.86,0,1.37-.42,1.37-1.1v-.03c0-.74-.54-1.11-1.38-1.11Z"/>
  </g>
</svg>