<svg width="145" height="109" viewBox="0 0 145 109" fill="none" xmlns="http://www.w3.org/2000/svg">
<path d="M140.25 52.7695H5V5H140.25V52.7695ZM44.3301 8.17969C43.6201 8.15969 43.0198 8.26016 42.5098 8.41016C41.9998 8.55022 41.2795 8.9302 40.8496 9.37012C40.4197 9.81005 39.9796 10.3 39.4297 11.0898C38.8797 11.8798 38.6004 12.4003 37.7705 13.4102C36.9405 14.4102 35.5999 15.9603 34.6299 16.8203C33.6598 17.6805 31.6496 19.9096 30.6797 20.7695C29.7098 21.6295 28.6601 22.6196 28.25 22.9697C27.85 23.3297 27.6296 23.6996 27.0996 24.0996C26.5697 24.4895 26.0499 24.9096 25.5 25.2695C24.95 25.6295 24.5896 25.8803 24.0596 26.3203C23.5298 26.7602 23.0696 27.19 22.2998 27.7998C21.53 28.4096 21.1502 28.7699 20.5205 29.3496C19.9005 29.9296 19.8096 30.0996 19.3896 30.5195C18.9696 30.9395 18.6399 31.2504 18.3799 31.6104C18.1102 31.9601 18.0102 32.26 17.7305 32.5498C17.4405 32.8398 17.33 32.8599 17.04 33.2598C16.76 33.6598 16.58 33.9502 16.29 34.1602C16.02 34.3702 15.4299 34.8705 14.9199 35.1904C14.4198 35.5005 13.28 36.2099 12.96 36.5898C12.68 36.9098 12.75 37.2402 12.75 37.2402C12.7417 37.2471 12.3627 37.5603 12.5498 37.6396C12.7297 37.7296 13.0698 37.56 13.5596 37.3701C14.0395 37.1801 14.9797 36.6098 15.6396 36.2998C16.3096 35.9798 17.3203 35.4199 17.3203 35.4199C17.3203 35.4199 17.0202 35.8803 16.7402 36.0703C16.4602 36.2603 16.19 36.5801 15.71 36.8701C15.2201 37.1501 14.8401 37.5798 14.4502 37.9297C14.0702 38.2897 13.7696 38.6501 13.5996 38.8301C13.3 39.1498 13.4999 39.3197 13.7598 39.21C13.7495 39.2173 13.2649 39.5642 12.79 39.96C12.3 40.36 12.0596 40.6104 11.3896 41.1104C10.7199 41.6102 10.3003 41.9704 9.73047 42.4902C9.16069 43.01 8.32067 43.7694 8.07031 44.0996C7.83031 44.4296 7.89035 44.4497 8.11035 44.4297C8.34027 44.4094 8.60042 44.1297 8.82031 44.0098C9.03744 43.8913 9.53609 43.5399 9.5498 43.5303C9.5372 43.5444 9.03624 44.1028 8.75977 44.3496C8.46985 44.6095 8.23039 44.83 8.11035 45C7.98044 45.1699 8.08988 45.2698 8.30957 45.25C8.52957 45.23 8.86051 45.04 9.02051 45.04C9.18041 45.0397 9.37066 44.8694 9.65039 44.7695C9.93035 44.6693 10.3102 44.3494 10.8799 44.0195C11.4499 43.6895 12.2704 43.1901 12.8604 42.6602C13.4503 42.1302 14.1901 41.3803 14.5801 41.0303C14.9699 40.6704 15.2098 40.48 15.4297 40.3301C15.6597 40.1801 16.1797 39.9696 16.8096 39.6797C17.4394 39.3798 18.5993 38.7201 19.0596 38.5898C19.9696 38.3398 20.7402 37.8301 20.7402 37.8301C20.7584 37.8249 22.3409 37.3694 22.6797 37.2002C22.6797 37.2002 22.9701 37.2196 23.3301 37.1396C23.6901 37.0596 24.1405 36.8901 24.4404 36.8301C24.7403 36.7701 25.1897 36.6603 25.4297 36.6602C25.6697 36.6602 25.3096 36.9502 25.3096 36.9502C25.3096 36.9502 26.0894 36.85 26.2598 36.6602C26.3798 36.5402 26.26 37.08 26 37.29C25.7436 37.4972 26.2463 37.3344 26.2598 37.3301L26.1201 37.6602C26.1278 37.661 26.6344 37.7185 27.1504 37.4902C27.3473 37.4018 27.0776 37.8284 27.0703 37.8398L27.29 37.7402L27.1104 38.0996L27.5898 37.9297L27.6396 38.1396C27.6396 38.1396 28.0393 37.9202 28.1396 37.7402C28.2583 37.5425 28.2407 38.7422 28.2402 38.7695L28.4805 38.54C28.4803 38.5421 28.4407 39.1006 28.5205 39.46C28.6105 39.8199 28.6496 40.0404 28.8496 40.3604C29.0496 40.6703 29.1696 40.9003 29.3096 41.0703C29.4495 41.2403 29.8898 41.4099 30.2598 41.7197C30.6197 42.0297 30.8798 42.2803 31.4697 42.7402C32.0495 43.2 33.1693 44.2689 33.3301 44.5195C33.3301 44.5195 32.8796 44.8301 32.6396 44.8301C32.3997 44.8302 32.0801 44.9196 31.9102 44.8496C31.7101 44.7596 31.1599 44.7202 30.9199 44.9102C30.9113 44.909 30.3366 44.8304 29.9297 44.9297C29.7097 44.9898 29.3496 45.1705 29.1396 45.4404C28.9399 45.7102 28.8604 45.9001 28.9004 46.21C28.9304 46.3899 29.1304 46.1996 29.1904 46.0996C29.3204 45.8699 29.5307 45.7095 29.7705 45.5596C29.8813 45.4997 30.2803 45.4404 30.2803 45.4404C30.2744 45.4498 30.0708 45.7759 30.1201 46.1504C30.1402 46.2997 30.1998 46.1498 30.2598 46C30.3198 45.86 30.4805 45.79 30.4805 45.79C30.4805 45.7937 30.4811 46.0598 30.6396 46.0801C30.7978 46.0999 31.4939 46.1197 31.5098 46.1201C31.5103 46.1239 31.5337 46.2695 31.7705 46.2695C32.0111 46.2695 32.8606 46.2696 33.0205 46.3096C33.1802 46.3496 33.2306 46.4102 33.4805 46.4102C33.7301 46.4101 33.7901 46.3703 34.0898 46.4902C34.3898 46.6202 34.8 46.8496 35 46.8896C35.1999 46.9296 35.1801 46.9099 35.3799 47.0098C35.5799 47.1098 36.2302 47.4703 36.4502 47.5303C36.6703 47.5904 37.1602 47.8398 37.1602 47.8398C37.1602 47.8398 37.2001 47.9498 37.4199 48.0498C37.6499 48.1598 37.9098 48.2403 38.0498 48.3203C38.1898 48.4103 38.1301 48.6796 38.7197 48.6797C38.7197 48.6797 39.0196 48.9003 39.0596 49.0703C39.1096 49.2302 39.23 49.2899 39.25 49.1201C39.27 48.9501 39.2305 48.7998 39.2305 48.7998C39.236 48.7926 39.329 48.6675 39.3096 48.5898C39.2902 48.5122 39.2717 48.3689 39.2705 48.3604C39.2788 48.3647 39.3878 48.4199 39.5703 48.4199C39.7601 48.4201 39.8102 48.6103 40.04 48.6104C40.27 48.6104 40.6504 48.4902 40.6504 48.4902C40.6582 48.4964 40.8054 48.6093 41 48.5898C41.1999 48.5699 41.3002 48.5101 41.3203 48.3604C41.3398 48.2143 41.3398 47.992 41.3398 47.9805C41.3398 47.9805 41.5898 47.9201 41.7998 48C42.0398 48.09 42.3903 48.33 42.5303 48.5C42.6602 48.6598 42.7103 48.5498 42.6104 48.3799C42.5404 48.2599 42.2498 47.7204 41.7598 47.6504C41.5097 47.6105 41.0996 47.6904 41.0996 47.6904C41.0978 47.6888 41.0084 47.6099 40.8896 47.5703C40.7699 47.5203 40.7595 47.46 40.4697 47.46C40.1801 47.46 40.0201 47.5202 39.8203 47.4404C39.6203 47.3604 39.2899 47.33 39.1699 47.25C39.0498 47.17 38.5996 47.0303 38.5996 47.0303C38.5996 47.0303 38.8695 46.9501 38.9697 46.8203C39.068 46.6926 39.0117 46.3714 39.0098 46.3604C39.0098 46.3604 39.1701 46.2698 39.3701 46.3398C39.6098 46.4397 39.7197 46.6197 39.7598 46.7197C39.7998 46.8197 39.8799 46.8297 39.8799 46.6797C39.8798 46.5295 39.83 46.16 39.5205 46C39.2305 45.84 38.8496 46 38.8496 46C38.8387 45.9942 38.5669 45.8496 38.4297 45.8496C38.2894 45.8495 37.9297 45.8096 37.9297 45.8096V45.5195C37.9297 45.5195 38.0804 45.4797 38.1904 45.6396C38.2704 45.7396 38.3004 45.65 38.2705 45.54C38.2408 45.4313 38.1132 45.3514 38.1104 45.3496C38.1164 45.3516 38.293 45.4102 38.4404 45.4102C38.5905 45.4101 38.9001 45.3899 39.04 45.4697C39.18 45.5497 39.5899 45.6299 39.8799 45.6299C40.1699 45.6299 40.4 45.5497 40.46 45.4697C40.5663 45.3149 40.5234 45.2069 40.5205 45.2002C40.5318 45.1984 40.7658 45.1622 41 45.2402C41.2199 45.3202 41.4699 45.6097 41.54 45.8496C41.6 46.0496 41.7497 45.9297 41.6797 45.6797C41.6197 45.4796 41.5001 45.0597 41.1904 44.9297C40.9641 44.8214 40.4565 44.791 40.4404 44.79C40.4404 44.79 40.2204 44.5702 40.0205 44.5898C39.8205 44.6098 39.5101 44.6499 39.3301 44.6699C39.1901 44.6899 39.0996 44.6904 39.0596 44.6904C38.9896 44.5704 38.8199 44.2802 38.6699 44.2002C38.49 44.1002 38.2601 44.1197 38.1201 44.1396L38.0303 44.0801C37.8703 44.0801 37.6898 44.0604 37.5898 44.1504C37.4799 44.2304 37.3396 44.3399 37.2197 44.3799C37.09 44.4199 37.03 44.5298 36.9102 44.5498C36.7916 44.5696 36.4583 44.5703 36.4502 44.5703C36.4502 44.5703 36.47 44.4206 36.2705 44.4004C36.0605 44.3804 35.8997 44.3604 35.6797 44.3604C35.46 44.3602 35.4497 44.21 35.2598 44.21C35.0699 44.2099 34.8896 44.1104 34.8896 44.1104C34.8896 44.1104 34.8301 43.9604 34.6504 43.8604C34.4604 43.7604 34.2997 43.6303 34.1797 43.5303C34.0599 43.4304 34.1201 43.4099 33.9805 43.2402C33.8405 43.0703 33.5803 42.91 33.2305 42.5303C32.8905 42.1603 32.4997 41.7203 32.2197 41.3604C31.9299 41.0106 31.7103 40.7803 31.5703 40.6104C31.4215 40.4417 31.1834 40.1943 31.1797 40.1904C31.1797 40.1904 31.2599 39.5995 31.3799 39.2695C31.5098 38.9297 31.5801 38.56 31.75 38.2002C31.8999 37.8403 32.07 37.6502 32.21 37.3604C32.35 37.0704 32.4904 36.6103 32.9004 36.3203C33.2104 36.1003 33.4704 35.9096 33.9004 35.6396L33.96 35.7998L33.9805 35.5898C34.0904 35.5199 34.2205 35.4502 34.3604 35.3604C34.4503 35.3104 34.5304 35.2599 34.6104 35.21L34.8398 35.4805C34.7999 35.3205 34.77 35.2001 34.75 35.1201L34.79 35.0996C34.86 35.1996 34.9904 35.3204 35.1904 35.4004L35.0098 34.9805L35.7402 34.7402C35.5703 34.7602 35.4202 34.7598 35.2803 34.7598C35.5801 34.5399 35.8502 34.3403 36.1201 34.1504C36.4101 33.9504 36.5805 33.8099 36.7705 33.6299V34.1299C36.7707 34.0397 36.9404 33.6499 37.1104 33.29C37.1903 33.2201 37.2704 33.14 37.3604 33.04L37.4404 32.9697C37.4604 33.2094 37.4697 33.4892 37.4697 33.4004C37.4697 33.2524 37.6456 32.9487 37.6504 32.9404C37.6535 32.9636 37.7705 33.8371 37.7705 33.6299C37.7705 33.4397 37.8106 32.7295 38.0205 32.3496C38.1903 32.1598 38.3504 31.9702 38.5801 31.7305C39.0301 31.2505 39.4896 30.6796 40.1396 29.8896C40.7896 29.0997 41.1397 28.7199 41.6396 27.71C42.1396 26.71 42.4299 25.7096 42.6299 24.8496C42.8398 23.9899 42.9203 23.5301 43.1602 22.6504C43.4002 21.7704 43.6098 21.0798 44.0498 19.7598C44.4898 18.4498 44.9597 17.1695 45.1396 16.3096C45.3196 15.4497 45.2304 14.8497 45.4004 14.5098C45.5605 14.1698 45.9298 13.6997 46.3496 13.3398C46.6696 13.0698 46.8803 12.9701 47.0703 12.8701C47.8204 12.5703 49.5404 13.1905 50.5703 13.4805C51.63 13.7803 52.2701 13.6903 52.5801 13.5703C52.9001 13.4503 52.71 13.4102 52.71 13.4102C52.1599 13.3201 50.3901 12.7203 49.79 12.5303C49.1901 12.3403 49.2201 12.1699 48.9502 12.0898C48.5102 11.9498 48.3298 11.98 48.0898 11.79C47.6191 11.4173 48.0433 11.3717 48.0596 11.3701C49.9395 10.8801 51.7901 11.0297 53.0801 11.6396V11.6699C53.2339 11.7372 53.24 11.6567 53.2402 11.6504C52.4661 10.5984 49.9779 10.0387 49.9404 10.0303C48.9804 9.72027 48.7305 9.38965 48.7305 9.38965C48.7305 9.38965 48.5203 9.34026 48.3604 9.23047C48.2004 9.12048 48.07 9.08006 47.6602 8.87012C47.2603 8.66018 46.7404 8.39987 46.2705 8.2998C45.8005 8.19981 45.0301 8.19969 44.3301 8.17969ZM64.8301 8.16016C60.5001 8.16016 57.04 11.4404 57.04 16.1904V40.3398C57.04 45.1498 60.5001 48.3701 64.8301 48.3701C69.1601 48.3701 71.7998 45.2095 71.7998 40.5195V33.8398H66.6396V40.6904C66.6395 41.7502 66.1097 42.5098 64.8799 42.5098C63.6502 42.5097 63.1798 41.7502 63.1797 40.6904V15.8398C63.1797 14.79 63.6501 14.0196 64.8799 14.0195C66.1098 14.0195 66.6396 14.7799 66.6396 15.8398V22.7002H71.7998V16.0195C71.7996 11.3898 69.2799 8.16017 64.8301 8.16016ZM74.4199 47.7803H80.4502V31.6602H83.8496V47.7803H89.8301V8.75H83.8496V25.6904H80.4502V8.75H74.4199V47.7803ZM93.46 47.7695H99.5V8.74023H93.46V47.7695ZM103.16 47.7695H109.2V31.4805H110.66C111.48 31.4806 111.95 32.3003 111.95 33.2402V41.7402C111.95 43.9703 112.48 47.7695 113.41 47.7695H118.57V47.5996C118.16 45.7197 117.8 43.7294 117.8 41.2695V33.3604H117.81C117.81 31.4304 116.64 29.9602 115.06 28.9102C116.64 27.8602 117.64 26.3298 117.64 24.5098V15.5996C117.639 10.4999 114.299 8.74023 111.31 8.74023H103.16V47.7695ZM121.28 47.7695H127.32V32.5996H129.49C132.6 32.5995 135.76 30.7798 135.76 25.6299V15.7197C135.76 10.51 132.6 8.74031 129.49 8.74023H121.28V47.7695ZM128.89 14.2598C129.59 14.2598 129.95 14.7204 129.95 15.9004V25.8604C129.95 27.0301 129.59 27.5 128.89 27.5H127.31V14.2598H128.89ZM110.71 14.2598C111.42 14.2598 111.771 14.7204 111.771 15.9004V24.6904C111.77 25.9201 111.42 26.3301 110.71 26.3301H109.19V14.2598H110.71Z" fill="#EA0029"/>
<path d="M12.0898 90.4805C13.9798 90.4805 15.1898 91.2704 16.0098 92.4004L14.0801 93.8896C13.5501 93.2497 12.9495 92.8096 12.0596 92.8096C10.7699 92.8098 9.86056 93.9199 9.86035 95.2695V95.2998C9.86035 96.6797 10.7698 97.7693 12.0596 97.7695C13.0196 97.7695 13.5904 97.3204 14.1504 96.6504L16.0703 98.0303C15.2003 99.2303 14.03 100.11 12 100.11V100.08C9.36 100.08 7.24023 98.0596 7.24023 95.3096V95.2803C7.24023 92.5903 9.29992 90.4805 12.0898 90.4805ZM94.7305 90.4805C97.5801 90.4807 99.6903 92.6 99.6904 95.2598V95.29L99.6836 95.5273C99.5552 98.0624 97.4609 100.08 94.7002 100.08C91.8502 100.08 89.7402 97.9596 89.7402 95.3096V95.2803C89.7402 92.6303 91.8805 90.4805 94.7305 90.4805ZM102.33 97.4805C103.05 97.4805 103.63 98.0603 103.63 98.7803C103.63 99.5001 103.05 100.08 102.33 100.08C101.61 100.08 101.03 99.5001 101.03 98.7803C101.03 98.0603 101.61 97.4805 102.33 97.4805ZM109.97 90.4805C112.82 90.4805 114.93 92.5999 114.93 95.2598V95.29L114.924 95.5273C114.795 98.0624 112.701 100.08 109.94 100.08C107.09 100.08 104.98 97.9596 104.98 95.3096V95.2803C104.98 92.6304 107.12 90.4806 109.97 90.4805ZM131.7 90.4805C133.32 90.4805 134.47 90.9703 135.45 91.8203L133.95 93.6396C133.29 93.0897 132.64 92.7695 131.72 92.7695C130.39 92.7697 129.36 93.8801 129.36 95.29V95.3203C129.361 96.8201 130.4 97.8896 131.87 97.8896C132.5 97.8896 132.98 97.7597 133.35 97.5098V96.3896H131.54V94.5195H135.78V98.6602L135.77 98.6396C134.79 99.4596 133.45 100.08 131.76 100.08C128.88 100.08 126.74 98.0995 126.74 95.3096V95.2803C126.74 92.5903 128.85 90.4805 131.7 90.4805ZM39.0898 90.7002C40.4998 90.7002 41.4796 91.0704 42.0996 91.6904C42.6396 92.2304 42.9199 92.9299 42.9199 93.8398V93.8701C42.9199 95.29 42.1695 96.2297 41.0195 96.7197L43.2197 99.9404H40.2803L40.2695 99.9297L38.4102 97.1396H37.2803V99.9297H34.7197V90.7002H39.0898ZM58.8096 90.7002C60.2196 90.7002 61.2003 91.0704 61.8203 91.6904C62.36 92.2303 62.6396 92.9301 62.6396 93.8398V93.8701C62.6396 95.2899 61.89 96.2297 60.7402 96.7197L62.9404 99.9404H60V99.9297L58.1396 97.1396H57V99.9297H54.4404V90.7002H58.8096ZM121.28 90.7002C122.69 90.7002 123.67 91.0705 124.29 91.6904C124.83 92.2304 125.11 92.93 125.11 93.8398V93.8701C125.11 95.29 124.36 96.2297 123.21 96.7197L125.41 99.9404H122.47L122.46 99.9297L120.6 97.1396H119.47V99.9297H116.91V90.7002H121.28ZM20.6104 94.1602H23.8896V90.7002H26.4502V99.9297H23.8896V96.4199H20.6104V99.9297H18.0498V90.7002H20.6104V94.1602ZM31.8604 99.9297H29.2998V90.7002H31.8604V99.9297ZM48.9902 90.7002C51.31 90.7003 52.8094 91.8999 52.8096 93.9297V93.96L52.8203 93.9502C52.8202 96.1399 51.1501 97.2899 48.8604 97.29H47.5801V99.9297H45.0195V90.7002H48.9902ZM73.9902 99.9297H71.2402L70.5801 98.2695H67.0098L66.3496 99.9297H63.6699L67.5898 90.6299H70.0596L73.9902 99.9297ZM78.7695 90.7002C82.0594 90.7002 83.9696 92.5999 83.9697 95.2598V95.29H83.96C83.9599 97.95 82.0199 99.9297 78.71 99.9297H75.1904V90.7002H78.7695ZM88.1201 99.9297H85.5596V90.7002H88.1201V99.9297ZM94.7002 92.79C93.2903 92.79 92.3497 93.9199 92.3496 95.2598V95.29C92.3496 96.62 93.3105 97.7803 94.7305 97.7803C96.1501 97.78 97.0702 96.65 97.0703 95.3203V95.29C97.0703 93.94 96.12 92.7998 94.71 92.7998L94.7002 92.79ZM109.94 92.79C108.531 92.79 107.59 93.9199 107.59 95.2598V95.29C107.59 96.62 108.55 97.7801 109.97 97.7803C111.39 97.7803 112.309 96.6502 112.31 95.3203V95.29C112.31 93.9401 111.36 92.7999 109.95 92.7998L109.94 92.79ZM77.75 97.6602H78.79C80.33 97.6601 81.3496 96.82 81.3496 95.3301V95.2998C81.3495 93.8199 80.3299 92.9502 78.79 92.9502H77.75V97.6602ZM67.7598 96.2803H69.8301L68.7998 93.6602L67.7598 96.2803ZM47.5898 95.29H48.8203C49.7201 95.2899 50.2802 94.7999 50.2803 94.0801V94.0498C50.2802 93.2599 49.7097 92.8496 48.7998 92.8496H47.5898V95.29ZM38.96 92.9004H37.2705V95.1299H38.9697C39.8296 95.1299 40.3397 94.7101 40.3398 94.0303V94C40.3398 93.26 39.8 92.8896 38.96 92.8896V92.9004ZM58.6904 92.9004H57V95.1299H58.7002C59.56 95.1298 60.0702 94.7101 60.0703 94.0303V94C60.0703 93.2601 59.5302 92.8898 58.6904 92.8896V92.9004ZM121.15 92.9004H119.46V95.1299H121.16C122.02 95.1298 122.53 94.7101 122.53 94.0303V94C122.53 93.2601 121.99 92.8898 121.15 92.8896V92.9004ZM31.0801 60.3604C38.01 60.3604 43.6299 65.9802 43.6299 72.9102C43.6298 79.8401 38.01 85.4599 31.0801 85.46C24.1501 85.46 18.5304 79.8401 18.5303 72.9102C18.5303 65.9802 24.1501 60.3604 31.0801 60.3604ZM11.9199 84.9102H9.25V60.9102H11.9199V84.9102ZM53.2998 84.9102H50.3301L60.5898 63.5898H46.54V60.9102H64.8496L53.2998 84.9102ZM67.5303 84.9102H64.8604V80.9004H67.5303V84.9102ZM79.5098 84.9102H76.8398V60.9102H79.5098V84.9102ZM122.99 70.2002L128.72 60.9102H135.75V84.9102H129.13V71.1299L122.99 80.5195H122.86L116.76 71.1602V84.9102H110.24V60.9102H117.27L122.99 70.2002ZM105.98 66.7305H94.6299V70.8096H105.98V76.3301H94.6299V84.9004H87.9805V60.9004H105.98V66.7305ZM31.0801 63.04C25.6301 63.04 21.2002 67.4702 21.2002 72.9102C21.2003 78.3501 25.6301 82.7803 31.0801 82.7803C36.53 82.7802 40.9501 78.35 40.9502 72.9102C40.9502 67.4702 36.52 63.0401 31.0801 63.04Z" fill="#EA0029"/>
</svg>
