<?xml version="1.0" encoding="UTF-8"?>
<svg id="Layer_1" data-name="Layer 1" xmlns="http://www.w3.org/2000/svg" viewBox="0 0 148.38 92.88">
  <defs>
    <style>
      .cls-1 {
        fill: #ea0029;
      }
    </style>
  </defs>
  <path class="cls-1" d="M16.54,48.36c4.45,0,6.97-3.16,6.97-7.85v-6.68h-5.16v6.85c0,1.06-.53,1.82-1.76,1.82s-1.7-.76-1.7-1.82V15.84c0-1.05.47-1.82,1.7-1.82s1.76.76,1.76,1.82v6.86h5.16v-6.68c0-4.63-2.52-7.85-6.97-7.85s-7.79,3.28-7.79,8.03v24.14c0,4.81,3.46,8.03,7.79,8.03Z"/>
  <polygon class="cls-1" points="32.16 31.66 35.56 31.66 35.56 47.77 41.53 47.77 41.53 8.75 35.56 8.75 35.56 25.68 32.16 25.68 32.16 8.75 26.12 8.75 26.12 47.77 32.16 47.77 32.16 31.66"/>
  <rect class="cls-1" x="45.16" y="8.75" width="6.04" height="39.03"/>
  <path class="cls-1" d="M60.9,31.48h1.46c.82,0,1.29.82,1.29,1.76v8.5c0,2.22.53,6.03,1.46,6.03h5.16v-.17c-.41-1.88-.76-3.87-.76-6.33v-7.91c0-1.93-1.17-3.4-2.75-4.45,1.58-1.05,2.58-2.58,2.58-4.4v-8.91c0-5.1-3.34-6.86-6.33-6.86h-8.15v39.03h6.04v-16.29ZM60.9,14.26h1.52c.71,0,1.06.46,1.06,1.64v8.79c0,1.23-.35,1.64-1.06,1.64h-1.52v-12.07Z"/>
  <path class="cls-1" d="M79.02,32.6h2.17c3.11,0,6.27-1.82,6.27-6.97v-9.91c0-5.21-3.16-6.97-6.27-6.97h-8.2v39.03h6.04v-15.17ZM79.02,14.26h1.58c.7,0,1.06.46,1.06,1.64v9.96c0,1.17-.35,1.64-1.06,1.64h-1.58v-13.24Z"/>
  <polygon class="cls-1" points="44.95 82.76 46.22 82.76 45.58 81.16 44.95 82.76"/>
  <path class="cls-1" d="M39.37,80.69h-1.04v1.37h1.04c.53,0,.84-.26.84-.67v-.02c0-.45-.33-.68-.85-.68Z"/>
  <path class="cls-1" d="M27.28,80.69h-1.04v1.37h1.04c.53,0,.84-.26.84-.67v-.02c0-.45-.33-.68-.85-.68Z"/>
  <path class="cls-1" d="M22.33,61.36c-3.39,0-6.14,2.76-6.14,6.14s2.76,6.14,6.14,6.14,6.14-2.76,6.14-6.14-2.76-6.14-6.14-6.14Z"/>
  <path class="cls-1" d="M51.93,80.72h-.64v2.89h.64c.95,0,1.57-.52,1.57-1.43v-.02c0-.91-.62-1.44-1.57-1.44Z"/>
  <path class="cls-1" d="M33.22,80.66h-.74v1.5h.75c.55,0,.9-.3.9-.74v-.02c0-.49-.35-.74-.91-.74Z"/>
  <path class="cls-1" d="M62.24,80.62c-.87,0-1.44.7-1.44,1.52v.02c0,.82.59,1.53,1.46,1.53s1.43-.7,1.43-1.51v-.02c0-.83-.58-1.53-1.45-1.53Z"/>
  <path class="cls-1" d="M71.6,80.62c-.87,0-1.44.7-1.44,1.52v.02c0,.82.59,1.53,1.46,1.53s1.43-.7,1.43-1.51v-.02c0-.83-.58-1.53-1.45-1.53Z"/>
  <path class="cls-1" d="M78.48,80.69h-1.04v1.37h1.04c.53,0,.84-.26.84-.67v-.02c0-.45-.33-.68-.85-.68Z"/>
  <path class="cls-1" d="M148.22,42.8c0-.44-.15-.86-.08-1.3-.26-.82-.15-1.7-.44-2.52-.09-.24-.1-.51-.13-.77-.09-.84-.37-1.64-.54-2.45-.14-.69-.46-1.33-.53-2.04-.03-.27-.23-.52-.32-.81-.18-.64-.41-1.27-.67-1.88-.25-.58-.49-1.18-.72-1.76-.24-.61-.57-1.16-.83-1.75-.07-.15-.08-.32-.15-.45-.07-.13-.29-.18-.21-.39-.52-.6-.66-1.43-1.19-2.03-.11-.12-.16-.3-.23-.45-.21-.42-.49-.8-.77-1.17-.19-.26-.31-.57-.51-.83-.39-.51-.68-1.11-1.11-1.58-.45-.5-.79-1.08-1.25-1.56-.43-.46-.82-.95-1.24-1.43-.13-.15-.26-.29-.39-.42-.57-.55-1.06-1.2-1.68-1.71-.24-.2-.48-.4-.68-.64-.2-.25-.45-.43-.7-.63-.24-.2-.51-.39-.72-.59-.88-.85-1.89-1.52-2.86-2.24-.43-.32-.89-.6-1.3-.96-.15-.13-.39-.13-.56-.3-.14-.15-.37-.2-.55-.32-.17-.11-.31-.33-.5-.37-.49-.12-.84-.47-1.27-.68-.45-.22-.88-.47-1.34-.67-.45-.2-.89-.44-1.34-.67-.27-.14-.58-.21-.84-.37-.59-.38-1.3-.42-1.89-.74-.59-.32-1.23-.47-1.86-.69-.63-.22-1.28-.43-1.92-.62-.27-.08-.56-.09-.84-.16-.27-.07-.54-.24-.8-.24-.4,0-.74-.18-1.11-.26-.21-.04-.42-.05-.63-.09-.21-.05-.4-.12-.63-.1-.26.01-.5-.15-.79-.14-.35,0-.71-.14-1.06-.2-.19-.04-.38-.05-.58-.07-.58-.05-1.16-.09-1.74-.2-.27-.05-.56-.03-.83-.02-.6.03-1.18-.07-1.77-.07-.68,0-1.35.02-2.03.01-.48,0-.97.02-1.45.08-.61.09-1.24.09-1.86.13-.21.02-.41.05-.62.08-.89.13-1.79.23-2.67.4-.43.08-.86.18-1.28.28V0S0,0,0,0v92.88h96.2v-4.44c.36-.05.67.17,1.01.19.36.02.67.19,1.01.21.45.03.9.14,1.36.14.3,0,.65.04.95.16.27.1.53.06.79.08.21.02.43-.04.62.02.57.17,1.15.12,1.73.12.14,0,.28.04.42.05.23.01.45.03.68,0,.25-.03.48-.03.73,0,.22.04.45,0,.67,0,.57-.02,1.14-.05,1.71-.07.48-.02.97-.05,1.45-.09.17,0,.34-.05.51-.07.93-.1,1.86-.23,2.78-.39,1-.18,2-.33,2.97-.64.02,0,.03-.02.05-.02.7-.03,1.33-.33,1.99-.49.57-.14,1.11-.37,1.68-.5.28-.06.54-.2.81-.32.63-.26,1.26-.52,1.92-.71.03-.01.07-.04.1-.05,1.47-.63,2.89-1.37,4.3-2.12.71-.38,1.39-.8,2.07-1.23.71-.46,1.41-.93,2.09-1.42.74-.55,1.45-1.12,2.17-1.69.65-.51,1.21-1.11,1.84-1.63.45-.37.76-.88,1.28-1.16.1-.28.4-.39.56-.61.17-.23.39-.39.56-.61.7-.86,1.5-1.63,2.14-2.54.21-.3.44-.58.65-.88.19-.27.46-.52.64-.81.34-.55.79-1.02,1.07-1.61.1-.22.29-.39.42-.59.2-.33.37-.68.57-1.01.21-.36.44-.72.64-1.09.12-.23.33-.44.39-.68.1-.4.34-.72.5-1.09.11-.26.21-.55.37-.77.18-.25.19-.56.36-.78.33-.45.36-1,.58-1.48.62-1.31.98-2.72,1.43-4.09.12-.38.17-.78.27-1.16.1-.38.29-.74.34-1.13.04-.31.1-.6.19-.9.08-.28.09-.57.13-.85.03-.25.14-.49.13-.73,0-.26.09-.49.13-.74.08-.59.13-1.19.19-1.78,0-.07-.03-.15-.01-.21.17-.51.13-1.05.15-1.57.01-.44.09-.87.08-1.31-.01-1.01.04-2.01.02-3.02-.01-.65-.14-1.31-.16-1.96ZM11.47,85.1c-1.62,0-2.92-1.24-2.92-2.93v-.02c0-1.65,1.26-2.95,2.98-2.95,1.16,0,1.9.49,2.41,1.18l-1.18.91c-.32-.4-.7-.66-1.24-.66-.79,0-1.35.68-1.35,1.51v.02c0,.85.56,1.51,1.35,1.51.59,0,.94-.28,1.28-.69l1.18.84c-.53.74-1.25,1.28-2.5,1.28ZM8.75,74.96v-14.93h1.66v14.93h-1.66ZM20.22,85h-1.57v-2.15h-2.02v2.15h-1.57v-5.67h1.57v2.12h2.02v-2.12h1.57v5.67ZM23.24,85h-1.57v-5.67h1.57v5.67ZM28.09,85l-1.14-1.72h-.7v1.72h-1.57v-5.67h2.68c.87,0,1.47.23,1.85.61.33.33.5.76.5,1.32v.02c0,.87-.46,1.45-1.17,1.75l1.35,1.98h-1.81ZM22.33,75.31c-4.31,0-7.81-3.5-7.81-7.81s3.5-7.81,7.81-7.81,7.81,3.5,7.81,7.81-3.5,7.81-7.81,7.81ZM35.69,81.34c0,1.34-1.03,2.05-2.43,2.05h-.79v1.62h-1.57v-5.67h2.44c1.42,0,2.35.74,2.35,1.98v.02ZM34.3,74.96l6.38-13.27h-8.74v-1.67h11.39l-7.18,14.93h-1.85ZM45,72.47v2.49h-1.66v-2.49h1.66ZM40.17,85l-1.14-1.72h-.7v1.72h-1.57v-5.67h2.68c.87,0,1.47.23,1.85.61.33.33.5.76.5,1.32v.02c0,.87-.46,1.45-1.17,1.75l1.35,1.98h-1.81ZM47.08,85l-.41-1.02h-2.19l-.41,1.02h-1.64l2.4-5.71h1.52l2.41,5.71h-1.68ZM55.11,82.15c0,1.64-1.19,2.85-3.22,2.85h-2.16v-5.67h2.19c2.02,0,3.19,1.17,3.19,2.8v.02ZM50.8,74.96v-14.93h1.67v14.93h-1.67ZM57.94,85h-1.57v-5.67h1.57v5.67ZM68.92,66.2v3.43h-7.06v5.33h-4.14v-14.93h11.2v3.63h-7.06v2.54h7.06ZM65.3,82.15c0,1.63-1.31,2.95-3.06,2.95s-3.04-1.3-3.04-2.93v-.02c0-1.63,1.31-2.95,3.06-2.95s3.04,1.3,3.04,2.93v.02ZM66.93,85.1c-.44,0-.8-.36-.8-.8s.36-.8.8-.8.8.36.8.8-.36.8-.8.8ZM74.66,82.15c0,1.63-1.31,2.95-3.06,2.95s-3.05-1.3-3.05-2.93v-.02c0-1.63,1.31-2.95,3.06-2.95s3.04,1.3,3.04,2.93v.02ZM79.28,85l-1.14-1.72h-.7v1.72h-1.57v-5.67h2.68c.87,0,1.47.23,1.85.61.33.33.5.76.5,1.32v.02c0,.87-.46,1.45-1.17,1.75l1.35,1.98h-1.81ZM87.45,84.22c-.6.5-1.43.88-2.46.88-1.77,0-3.08-1.21-3.08-2.93v-.02c0-1.65,1.3-2.95,3.05-2.95,1,0,1.7.3,2.3.82l-.92,1.12c-.41-.34-.8-.53-1.37-.53-.82,0-1.45.68-1.45,1.55v.02c0,.92.64,1.58,1.54,1.58.39,0,.68-.08.91-.23v-.69h-1.11v-1.15h2.6v2.54ZM87.45,74.96h-4.12v-8.58l-3.82,5.84h-.08l-3.8-5.82v8.55h-4.05v-14.93h4.37l3.56,5.78,3.56-5.78h4.37v14.93ZM91.83,52.15H4.38V4.37h87.45v47.78ZM127.62,12.99s.07.02.11.03c0,.01,0,.03-.01.04-.03-.01-.07-.02-.11-.04,0,0,0-.02.01-.03ZM127.36,21.19c.05-.04.11-.1.21-.18q-.07.27-.21.18ZM127.37,25.06s.07.02.11.03c0,.01,0,.02-.01.04-.03-.01-.07-.02-.11-.04,0,0,0-.02.01-.03ZM127.57,13.43c-.02.06-.04.12-.05.18-.03-.01-.06-.03-.09-.04.03-.05.06-.11.1-.16.02,0,.03.02.05.02ZM127.15,12.6s.07.02.11.03c0,.01,0,.02,0,.03-.04-.01-.07-.02-.11-.03,0-.01,0-.02.01-.03ZM127.19,12.99c.09.12.15.21.25.35-.17-.05-.26-.09-.38-.12.04-.08.08-.13.13-.23ZM126.83,20.77c.27-.02.38.07.43.36-.17-.14-.28-.23-.43-.36ZM127.13,25.8s-.05.04-.03.02c-.05-.11-.11-.23-.15-.31.15.07.16.07.18.28ZM126.76,20.68c-.06-.02-.11-.03-.19-.06.07-.24.16-.22.27-.09-.03.05-.05.1-.08.15ZM126.81,21.34s0,.02-.01.04c-.03-.01-.07-.02-.11-.04,0-.01,0-.02.01-.03.03.01.07.02.11.03ZM126.54,14.96s.02-.07.03-.11c.01,0,.02,0,.04.01-.01.03-.02.07-.03.11-.01,0-.02,0-.04-.01ZM126.71,13.22s.01-.04.02-.06c.07.02.14.05.21.07,0,.02-.01.04-.02.06-.07-.03-.14-.05-.21-.07ZM127.13,13.5s.02-.07.03-.11c.01,0,.02,0,.03.01-.01.04-.02.07-.03.11-.01,0-.02,0-.03-.01ZM126.94,12.26s.03.01.05.02c-.02.07-.04.14-.07.21-.02,0-.03-.01-.05-.02.02-.07.05-.14.07-.21ZM126.85,12.91c-.2.18-.35.23-.55,0,.15-.09.29-.18.42-.26.04.09.08.15.13.26ZM125.93,13.7s-.02,0-.04-.01c.01-.03.02-.07.03-.1.01,0,.03,0,.04.01-.01.03-.02.07-.03.11ZM125.96,14.11s0,.02-.01.03c-.03-.01-.07-.02-.11-.03,0-.01,0-.02.01-.03.04.01.07.02.11.03ZM125.62,12.63c.08-.09.16-.17.24-.25.04.06.08.11.43.12-.1.06-.13.09-.15.09-.03-.02-.06-.03-.08-.05-.02,0-.04.02-.07.04-.09.07-.19.2-.37.06ZM126.34,20.11c.01.12.02.22.04.41-.15-.17-.24-.27-.34-.38-.03.02-.07.03-.13.07,0-.08.01-.14.02-.23.16.05.29.09.41.13ZM126.29,21.6s.02,0,.03.01c-.01.04-.02.07-.03.11-.01,0-.02,0-.03-.01.01-.03.02-.07.03-.1ZM126.37,23.62c-.17-.06-.26-.09-.37-.12.02-.06.03-.11.09-.27.11.15.18.24.28.39ZM126.31,24.8s.03,0,.05.02c-.03.11-.07.21-.1.32-.02,0-.03,0-.05-.02.03-.11.07-.21.1-.32ZM126.35,24.34s.02-.07.03-.11c.01,0,.02,0,.03.01-.01.04-.02.07-.03.11-.01,0-.02,0-.04-.01ZM126.44,33.56s.02,0,.03.01c0,.03-.02.07-.03.11-.01,0-.02,0-.04-.01.01-.04.02-.07.03-.11ZM126.46,31.53c.03-.05.07-.11.1-.16.01.01.03.02.04.03-.02.06-.04.12-.05.18-.03-.01-.06-.03-.09-.04ZM126.54,21.68s-.02.07-.03.11c-.01,0-.02,0-.04-.01.01-.04.02-.07.03-.11.01,0,.02,0,.04.01ZM126.58,11.91s.02,0,.04.01c-.01.04-.02.07-.03.11-.01,0-.02,0-.04-.01.01-.04.02-.07.03-.11ZM126.52,12.12s.02,0,.03.01c-.01.03-.02.07-.03.11-.01,0-.02,0-.03-.01.01-.03.02-.07.03-.11ZM126.18,12.12s-.03-.02-.05-.03c.05-.13.1-.26.17-.42.05.1.08.15.12.24-.09.08-.16.15-.24.22ZM126.36,10.79s.03.02.05.02c-.02.06-.04.12-.06.18-.03-.01-.06-.03-.09-.04.03-.05.07-.1.1-.16ZM126.11,11.74c-.06-.08-.12-.14-.18-.22.32-.03.25.09.18.22ZM126.15,10.61c-.04.08-.07.13-.1.18-.09-.1-.16-.18-.28-.31.17.05.26.08.38.12ZM125.59,12.06s.03.01.05.02c-.02.07-.04.14-.07.21-.02,0-.04-.01-.05-.02.02-.07.05-.14.07-.21ZM125.55,14.06s.02.06.02.13c0,0,0,0,0,0,0,0,.02-.01.03-.01.02.02.04.04.06.06.11.04.22.07.33.11,0,.02,0,.03-.01.05-.11-.04-.23-.07-.32-.16-.03,0-.05-.02-.08-.03,0,.02-.01.03-.02.05,0-.03,0-.05.01-.07-.02-.03-.04-.07-.06-.1.02,0,.03-.01.05-.02ZM125.53,19.44c.14.12.25.19.34.29.03.02,0,.1,0,.19-.12-.03-.21-.05-.3-.08-.01-.13-.02-.24-.03-.4ZM125.56,19.95s-.02.07-.03.11c-.01,0-.02,0-.03-.01.01-.03.02-.07.03-.11.01,0,.02,0,.03.01ZM125.69,19.05s.02-.07.03-.11c.01,0,.02,0,.04.01-.01.04-.02.07-.03.11-.01,0-.02,0-.04-.01ZM125.49,9.97c-.05.15-.08.26-.13.39-.08-.06-.12-.1-.21-.17.12-.08.2-.14.33-.22ZM125.38,11.4s-.02,0-.04-.01c.01-.04.02-.07.03-.11.01,0,.02,0,.03.01-.01.03-.02.07-.03.1ZM125.44,14.72s.02,0,.04.01c-.01.03-.02.07-.03.11-.01,0-.02,0-.03-.01.01-.03.02-.07.03-.11ZM125.33,12.62c-.03-.13-.05-.21-.07-.27q.17.02.07.27ZM125.34,10.53s-.07-.02-.11-.03c0-.01,0-.02.01-.04.04.01.07.02.11.03,0,.01,0,.02-.01.04ZM125.29,13.38s.02,0,.04.01c-.01.03-.02.07-.03.11-.01,0-.02,0-.04-.01.01-.03.02-.07.03-.11ZM125.31,18c.06.02.12.04.18.06-.01.03-.03.06-.04.09-.05-.03-.11-.06-.16-.1,0-.02.02-.03.02-.05ZM125.45,11.9s-.02,0-.03-.01c.01-.04.02-.07.03-.11.01,0,.02,0,.04.01-.01.03-.02.07-.04.11ZM125.07,12s-.03-.02-.05-.02c.03-.09.06-.19.09-.28.03.01.07.02.09.03-.04.09-.09.18-.13.27ZM125.2,13.15s0,.02-.01.03c-.03-.01-.07-.02-.11-.03,0-.01,0-.02.01-.04.03.01.07.02.11.03ZM125.07,12.14c-.05.09-.07.13-.1.19-.03-.1-.05-.18-.07-.25.03,0,.08.02.18.06ZM125.08,15s.07.02.11.03c0,.01,0,.02-.01.03-.04-.01-.07-.02-.11-.03,0-.01,0-.02.01-.03ZM125.1,14.57s0-.02.01-.03c.04.01.07.02.11.03,0,.01,0,.02-.01.04-.03-.01-.07-.02-.11-.03ZM125.09,11.43s.02,0,.03.01c-.01.03-.02.07-.03.11-.01,0-.02,0-.03-.01.01-.04.02-.07.03-.11ZM124.85,9.93s.04.01.05.02c-.02.07-.05.14-.07.21-.02,0-.03-.01-.05-.02.02-.07.05-.14.07-.21ZM124.7,11.01s.04-.03.06-.04c.01.02.02.03.03.05,0-.01,0-.03,0-.04,0-.03,0-.06.01-.1.03,0,.07.01.14.02.02.06.05.14.09.22-.07.03-.13.06-.24-.1,0,.07.02.14.03.21-.05-.1-.09-.17-.13-.22-.05.03-.09.06-.15.1.06.08.12.16.16.21-.1.15-.18.26-.26.37-.04-.08-.07-.14-.09-.19.07-.21.13-.41.2-.61.05.02.09.03.15.11ZM124.59,12.42c-.02-.22-.04-.33-.05-.46.07.02.12.04.18.06-.03.1-.07.2-.13.4ZM124.65,12.98s-.02.03-.02.05c-.06-.02-.12-.04-.18-.06.02-.03.03-.06.04-.09.05.03.1.07.16.1ZM124.62,11.75c.02-.07.05-.14.07-.23.07.04.12.07.18.1-.04.07-.07.13-.1.18-.06-.02-.1-.03-.15-.05ZM124.47,9.81s-.02.07-.03.11c-.01,0-.02,0-.03-.01.01-.03.02-.07.03-.11.01,0,.02,0,.03.01ZM124.4,9.55s.02,0,.04.01c-.01.04-.02.07-.03.11-.01,0-.02,0-.04-.01.01-.03.02-.07.03-.11ZM123.88,9.03c.06.15.12.3.23.56,0,.03-.04.14-.08.25,0,.01-.03.02-.05.02-.19-.57-.19-.61-.1-.83ZM123.48,9.27s.02,0,.02,0c0,0,0-.01,0-.01.03-.02.07-.04.1-.06,0,.01.01.03.02.04-.04.02-.08.03-.12.03h0s0,0,0,.01c-.01,0-.02,0-.03-.01-.25.05-.47,0-.51-.09.09-.13.17-.24.26-.36.02.19.02.38.25.45ZM123.02,8.66c-.09.11-.16.2-.24.29.02.06.03.12.06.2-.08-.02-.13-.03-.17-.04-.03-.22,0-.45-.25-.64.23.07.4.13.61.2ZM107.47,4.83s.07.02.11.03c0,.01,0,.03-.01.04-.03-.01-.07-.02-.1-.03,0-.01,0-.02.01-.03ZM106.08,5.03s.04-.08.07-.12c.02-.05.05-.09.08-.16.08.02.15.07.22.07.51,0,.51,0,.97.2.07.03.13.05.2.07.05-.12.09-.2.13-.29.39.08.77.2,1.16.21.28,0,.55,0,.84.05.27.05.56.03.83.02.24,0,.45.11.68.09.6-.06,1.15.21,1.74.25.02,0,.04.05.05.07,0,.07,0,.12,0,.2.08-.08.14-.14.18-.19.21.02.4.02.59.06.44.1.86.26,1.32.33.63.09,1.23.34,1.86.48.91.2,1.78.55,2.67.84,0,.08,0,.15.01.19.28.07.56.13.83.2.2.05.46.07.57.2.17.19.36.04.52.14.24.16.51.26.77.38.01,0,.02.03.02.05-.02.09-.04.17-.06.25.07.05.13.09.16.12-.03.1-.06.19-.09.27-.19-.11-.37-.21-.58-.33-.01-.07-.03-.17-.06-.29.15.01.26.02.36.03,0-.02,0-.03,0-.05-.17-.05-.33-.11-.54-.18.02.12.03.21.04.3-.12.02-.25.04-.38.06-.05-.06-.09-.11-.1-.13-.09.01-.14.02-.19.02.02.09.05.17.07.25.5.19,1.03.27,1.46.59.1.08.23.19.34.19.3,0,.48.25.73.32.04.01.06.11.09.16-.06.04-.1.07-.16.11.08.03.12.05.18.08.05-.06.09-.11.14-.18.11.04.23.08.36.12.02.06.04.13.06.19-.14.03-.22.04-.29.06-.02-.04-.05-.08-.08-.12-.13.14-.27.28-.41.42.12.04.26.08.43.14,0-.11-.01-.2-.02-.31.05,0,.1.01.19.02-.05.18-.09.35-.13.54.04.02.09.05.13.07.19-.1.05-.36.12-.4.2-.1.08-.22.08-.37.06.02.13.04.21.07-.05.16-.1.28-.13.41-.02.11-.02.23-.03.35-.08.04-.16.08-.22.1-.05.15-.09.27-.12.36.04.08.07.13.1.19.06-.06.11-.12.2-.21.02.14.04.25.07.4-.18-.05-.3-.08-.43-.11-.09.12-.18.23-.27.34.01.02.03.05.05.07.14-.04.29-.08.42-.12.14.1.26.2.4.3-.04.08-.08.17-.15.31-.02-.15-.03-.23-.05-.39-.17.12-.3.2-.45.31-.12-.04-.27-.09-.45-.15-.01.09-.02.15-.04.23.08-.03.13-.06.18-.08.03.07.07.13.11.22-.15.06-.3.12-.44.18-.05-.08-.07-.13-.1-.17-.3-.14-.63-.16-.89-.4-.19-.17-.47-.25-.71-.36-.32-.13-.68-.15-.93-.42-.53-.11-.97-.41-1.47-.59-.67-.24-1.35-.45-2.03-.65-.69-.2-1.34-.5-2.07-.57-.49-.05-.92-.33-1.43-.35-.44-.02-.88-.19-1.32-.29-.08-.02-.17-.09-.21-.06-.27.16-.48-.12-.74-.09-.24.03-.5.02-.73-.05-.55-.17-1.14-.12-1.69-.3-.06-.02-.14.02-.2,0-.33-.06-.66.05-.99-.03-.3-.07-.61-.07-.89-.18-.11.06-.19.11-.26.16-.03-.05-.06-.1-.09-.15-.07.11-.13.21-.18.3-.06-.02-.08-.02-.09-.03-.05-.05-.09-.11-.13-.16-.35,0-.69.02-1.03.03-.04-.06-.06-.1-.09-.15-.1.11-.19.2-.29.31.08.07.14.13.23.21-.09-.01-.14,0-.19-.02-.05-.01-.1-.04-.14-.06q-.05-.23-.52-.61c.09.19.14.3.19.4.07.03.13.05.22.09-.03.08-.06.13-.09.19-.07-.03-.11-.05-.18-.07.02-.07.03-.14.05-.2-.11-.03-.21-.07-.32-.1.04.11.08.23.11.33-.24,0-.5-.04-.72.04-.22.07-.42.01-.62.05-.06.01-.2-.01-.14-.17,0,0,0,0,0,0,0,0,0,0,0,0h0s0,0-.02,0c-.02-.03-.04-.07-.06-.1.01,0,.03-.02.05-.02.01.04.03.07.03.12,0,0,0,0,0,0,0,0,0,0,0,0h0c.24-.07.14-.32.27-.45-.11-.13-.19-.24-.27-.33.03-.05.05-.08.08-.12.04.04.08.08.12.12.04-.05.09-.11.11-.14.08.11.16.22.23.31-.08.19-.35.23-.21.47.06-.06.12-.12.18-.19.08.07.15.12.32.26-.09-.25-.13-.38-.17-.51.06-.03.13-.07.19-.1.09.03.18.06.27.09.1-.13.21-.25.32-.39.09.09.17.16.25.24.07-.08.13-.14.19-.2.03.05.06.1.09.16.06-.1.11-.19.17-.32.12.04.26.08.47.15-.08-.15-.11-.22-.13-.26-.12,0-.19.03-.25.01-.05,0-.08-.06-.15-.12.32-.11.55-.19.77-.27,0,0,0,0,0,0,.02.04.03.07.05.11.01,0,.03-.02.05-.02-.02-.03-.04-.07-.07-.1,0,0,0,0-.01,0,.03-.1.07-.2.09-.27.19-.02.34-.04.51-.06-.06-.1-.12-.2-.12-.2,0-.27,0-.44,0-.61-.05-.05-.09-.1-.09-.1-.25-.04-.45-.08-.65-.11-.02-.03-.03-.06-.05-.09-.08.06-.15.12-.21.16-.04-.03-.07-.07-.11-.1-.08.14-.17.07-.38.04,0,0,0,0,.01,0-.05,0-.09,0-.08-.02-.06,0-.13,0-.21,0,.1-.06.13-.09.15-.08.03.02.06.04.09.06.01,0,.03-.01.06-.02.08-.06.15-.11.21-.16.06.06.1.11.14.15.16-.07.31-.13.45-.2.19.05.35.09.59.14-.12-.11-.18-.17-.24-.23.04-.05.07-.09.12-.16.08.08.16.15.23.22.03-.1.07-.2.1-.33.08.08.12.13.16.18.32.01.61-.23.94-.08.05.02.17-.11.35-.24-.22-.02-.32-.02-.39-.03-.07-.06-.12-.11-.16-.15-.17.11-.33.21-.5.32,0-.08,0-.14,0-.21-.13.03-.26.06-.39.08-.04,0-.09-.04-.13-.06-.01-.15-.02-.28-.04-.51.15.12.22.18.31.24ZM124.4,14.54s0,.02-.01.04c-.03-.01-.07-.02-.11-.03,0-.01,0-.02.01-.03.04.01.07.02.11.03ZM123.76,14.61s.01-.04.02-.07c-.02,0-.03,0-.05-.02.02,0,.03.01.05.01h0s.02,0,.03.01c0-.11.02-.22.03-.33.1.04.28-.03.26.18.18.13.02.23-.05.39-.06-.09-.09-.15-.13-.21-.02,0-.05-.02-.11-.03-.02.02-.04.04-.05.06-.04.12-.08.23-.12.35-.02,0-.03-.01-.05-.02.04-.12.08-.23.16-.34ZM123.54,14.21s-.06-.03-.09-.04c.03-.05.07-.11.1-.16.02,0,.03.01.05.02-.02.06-.04.12-.06.18ZM105.26,9.14s-.05.02-.07.03c-.03-.09-.05-.18-.08-.3.07.02.13.03.21.05-.02.09-.04.15-.06.21h0ZM104.79,10.84c-.05-.05-.11-.11-.19-.19.16-.04.26-.07.35-.09.1.25-.1.24-.16.28ZM105.11,11.01c-.02.07-.03.11-.05.15-.06-.06-.12-.12-.19-.17.02-.01.04-.03.05-.04.06.02.12.04.18.06ZM104.14,10.77c.02-.07.04-.11.07-.2.1.05.19.09.34.17-.19.02-.3.02-.42.03ZM104.23,11.57s0,.02-.01.03c-.03-.01-.07-.02-.11-.03,0-.01,0-.02.01-.03.04.01.07.02.11.03ZM104.39,9.65s.02-.03.02-.05c.06.02.12.04.18.06-.01.03-.02.06-.04.09-.05-.03-.11-.07-.17-.1ZM104.71,11.02c-.13.03-.21.05-.27.07q.02-.17.27-.07ZM102.31,12.45s-.07.04-.1.07c0-.02-.02-.03-.02-.05.02,0,.04-.02.12-.03,0,0,0-.01,0-.01.02,0,.04,0,.05-.01-.01-.01-.02-.02-.03-.03.06,0,.12,0,.03.03,0,0,.01,0,.02.01.05,0,.13-.02.23-.03-.1.06-.13.09-.15.08-.03-.02-.06-.03-.08-.06-.03,0-.05,0-.07.01,0,0,0,0,0,.01ZM101.83,9.19c-.02-.06-.04-.14-.07-.23-.07,0-.15.02-.23.03.02-.07.04-.12.06-.2.08.02.14.05.2.07.27-.07.41.02.49.34-.15,0-.29,0-.46,0ZM102.02,12.18s-.03.02-.05.03c-.02-.04-.03-.08-.02-.13,0,0-.02.01-.03.01-.02-.03-.04-.07-.06-.1.01,0,.03-.01.05-.02.01.03.03.07.02.12,0,0,.02,0,.03-.01.02.03.04.07.06.1ZM101.55,12.14c.06.1.09.14.08.15-.01.03-.03.06-.05.08,0,.03,0,.05.01.07,0,0,0,0,.01,0,.02.03.04.07.06.1-.01,0-.03.02-.05.02,0-.02-.02-.04-.03-.12,0,0-.01,0-.02,0,0-.02,0-.04-.01-.06,0,.01-.02.02-.02.03,0-.06,0-.12.02-.03,0,0,.01-.01.02-.02,0-.06-.02-.13-.03-.24ZM101.62,6.9s0,.02,0,.03c.1-.06.2-.13.3-.19.01.02.03.03.04.05-.08.13-.17.25-.26.38-.04-.08-.07-.14-.08-.25-.01.01-.02.02-.04.02,0-.02,0-.03,0-.04-.02-.03-.04-.07-.06-.1.02,0,.03-.02.04-.02.01.03.02.07.02.12h0s.02,0,.03-.01ZM101.64,6.56s.02-.07.04-.11c.01,0,.02,0,.03.01-.01.03-.02.07-.03.11-.01,0-.02,0-.04-.01ZM101.87,6.12s.02-.03.02-.05c.06.02.12.04.18.06-.01.03-.02.06-.04.09-.05-.03-.11-.07-.16-.1ZM101.99,6.32s-.02.07-.03.11c-.01,0-.02,0-.03-.01.01-.03.02-.07.03-.11.01,0,.02,0,.04.01ZM101.97,5.73c-.08-.04-.13-.07-.23-.12.12-.09.21-.15.36-.26-.05.17-.09.26-.12.38ZM101.67,8.69c-.05-.22.12-.22.23-.28.05.22-.12.21-.23.28ZM102.31,12.11c.06.02.12.04.18.06-.01.03-.03.06-.04.09-.06-.03-.11-.07-.16-.1,0-.02.02-.03.02-.05ZM103.25,8.14s.02-.07.03-.11c.01,0,.02,0,.03,0-.01.04-.02.07-.03.11-.01,0-.02,0-.04-.01ZM103.49,8.06s.02-.03.02-.05c.06.02.12.04.18.06-.01.03-.02.06-.03.09-.06-.03-.11-.06-.17-.1ZM104.26,6.74s0,.02-.01.03c-.04-.01-.07-.02-.11-.03,0-.01,0-.02.01-.04.03.01.07.02.1.04ZM104.17,6.28s0-.02.01-.04c.04.01.07.02.11.03,0,.01,0,.02-.01.04-.03-.01-.07-.02-.11-.03ZM104.15,7.75s-.03.06-.04.09c-.05-.03-.11-.07-.16-.1,0-.02.02-.03.02-.05.06.02.12.04.18.06ZM103.84,6.51c.06.1.09.13.08.15-.01.03-.03.06-.06.08,0,.03,0,.05.01.07,0,0,0,0,.01,0,.02.03.04.07.07.1-.02,0-.03.01-.05.02,0-.02-.02-.04-.03-.12,0,0-.01,0-.02,0,0-.02,0-.04-.01-.05-.01.01-.02.02-.02.03,0-.06,0-.12.02-.03,0,0,.01-.01.01-.02,0-.05-.02-.13-.03-.23ZM103.95,6.14c-.07-.04-.12-.07-.17-.1.02-.06.03-.1.05-.16.07.02.14.05.23.07-.04.07-.07.12-.1.18ZM104.62,6.7s.01.02.02.03c.03-.02.06-.03.08-.05.05-.04.08-.1.15-.2.02.16.04.27.06.44-.15-.06-.24-.1-.3-.19-.02.01-.05.02-.08.04,0-.03.01-.06.02-.09-.05-.02-.1-.04-.15-.06.05-.15.09-.28.16-.49.01.21.02.36-.01.55.01,0,.03.01.04.02ZM104.63,6.94s-.02.07-.03.11c-.01,0-.02,0-.03-.01.01-.03.02-.07.03-.11.01,0,.02,0,.03.01ZM104.46,7.71s.02,0,.03.01c-.01.03-.02.07-.03.11,0,0-.02,0-.03-.01.01-.03.02-.07.03-.11ZM104.34,7.18s0,.01,0,.02c0,0,.01,0,.02-.01.02.04.04.07.06.1-.01,0-.03.02-.04.02-.02-.03-.03-.07-.04-.12,0,0,0,0-.01,0,0,0,0-.02,0-.02,0,0,0,0,0,0q-.06-.15.1-.3c-.03.11-.07.2-.1.31ZM105.41,7.08c-.13.09-.19.13-.27.19-.06-.12-.1-.2-.16-.33.16.05.24.08.43.14ZM105.09,6.88c.01-.25.02-.46.03-.68.03,0,.06-.02.09-.02.02.03.03.07.05.1.02.03.05.04.09.08.06-.02.12-.04.19-.06.07.23.18.45.03.71-.09-.13-.17-.24-.26-.36-.08.09-.14.15-.22.24ZM105.67,4.9c-.02.09-.05.15-.05.22,0,.08.01.15.02.23-.09,0-.16,0-.19,0-.06.07-.09.11-.19.23.03-.16.04-.21.05-.26,0-.05.01-.1.02-.16-.06-.01-.11-.02-.17-.04-.02.06-.05.11-.07.15-.02.05-.05.09-.08.14-.04-.06-.06-.11-.13-.22-.01.17-.02.27-.03.42-.11-.09-.19-.16-.28-.23-.07.01-.13.02-.2.03-.01-.03-.02-.06-.03-.09.12-.06.23-.12.35-.19-.09-.14-.14-.01-.2-.02-.08-.02-.17-.05-.27-.08.02.1.03.16.04.22q-.2-.11-.35-.41c.58.02,1.15.03,1.76.05ZM103.94,5.3s.02,0,.04.01c-.01.03-.02.07-.03.1-.01,0-.02,0-.04-.01.01-.03.02-.07.03-.11ZM103.69,4.92c.06.06.13.12.2.2-.22.13-.28.4-.58.34v-.2c.09,0,.16,0,.24,0,.06-.13.11-.25.15-.34ZM103.58,6.28s.07.02.1.03c0,.01,0,.02-.01.03-.04-.01-.07-.02-.11-.03,0-.01,0-.02.01-.03ZM103.42,6.05s.01-.04.02-.06c.07.02.14.05.21.07,0,.02-.01.03-.02.05-.07-.02-.14-.05-.21-.07ZM103.36,5.07c-.06-.06-.12-.12-.2-.19.35-.02.25.1.2.19ZM103.13,5.17s.06.02.09.04c-.04.09-.09.18-.13.27-.02,0-.04-.01-.05-.02.03-.1.06-.19.09-.28ZM102.62,4.89c.11.03.2.06.4.13-.22.02-.33.04-.46.05.02-.07.04-.12.06-.18ZM102.91,5.32s-.02.07-.03.11c-.01,0-.02,0-.03-.01.01-.03.02-.07.03-.11.01,0,.02,0,.04.01ZM102.48,5.42s.03,0,.04.01c-.01.04-.02.07-.03.11-.01,0-.02,0-.04-.01.01-.03.02-.07.03-.11ZM102.6,6.75c.13-.17.23-.05.33.03.06.05.14.09.2.14.03-.09.05-.18.09-.27.1-.02.2-.03.26-.04.07.11.14.23.27.42-.19-.13-.3-.2-.45-.31.02.1.03.16.03.26.01,0,.02,0,.02,0,0,0,0,0,0-.01.06.04.13.07.19.11-.01.02-.02.05-.03.07-.07-.03-.13-.06-.17-.17-.01.03-.02.06-.03.08,0-.03,0-.06,0-.09-.06-.02-.13-.04-.19-.06-.1.16-.2.05-.36,0h0s0,.01.01.01c-.05.1-.09.2-.14.3-.02,0-.05-.02-.07-.03.04-.1.08-.2.2-.28-.03-.01-.06-.02-.08-.03.03,0,.06.01.08.02.03-.15-.1-.12-.15-.13-.09.08-.19.15-.32.26,0-.28.15-.28.29-.3ZM102.35,6.32s-.02.07-.03.1c-.01,0-.02,0-.03-.01.01-.04.02-.07.03-.11.01,0,.02,0,.03.01ZM102.18,5.48s.07.02.11.03c0,0,0,.02-.01.03-.04-.01-.07-.02-.11-.03,0-.01,0-.02.01-.03ZM102.22,6.75c-.02.07-.05.14-.07.21-.02,0-.03,0-.05-.02.02-.07.04-.14.07-.21.02,0,.04.01.05.02ZM101.94,4.87c.07.04.12.07.18.1-.04.07-.07.12-.1.17-.06-.02-.1-.03-.16-.05.02-.07.04-.14.07-.22ZM101.38,5.73s-.05-.01-.1-.02c.04-.1.08-.19.11-.27.12.04.2.07.38.12-.21.04-.37,0-.4.17ZM101.26,7.02s-.04-.02-.06-.04c-.05.01-.08.02-.11.04.03.06.05.11.07.16,0,0-.03.02-.07.03-.13-.04-.19-.12,0-.19-.03-.08-.08-.17-.14-.29.32.2.25.2.18.2.02.02.05.04.07.05.06-.02.13-.03.22-.04-.11.06-.14.09-.16.08ZM101.4,8.64s-.01.03-.02.06c-.07-.02-.14-.05-.21-.07,0-.02.01-.03.02-.05.07.02.14.05.21.07ZM101.32,6.56s-.03-.02-.05-.03c.02-.06.04-.12.06-.18.03.01.06.03.09.04-.03.05-.07.11-.1.16ZM101.18,5.01c.07.02.14.03.22.04q.15-.06.3.1c-.12-.04-.22-.07-.32-.09-.03.07-.05.13-.09.21-.08-.03-.13-.06-.19-.09.03-.07.05-.11.07-.18ZM101.02,5.52c.07.04.11.06.26.14-.16.02-.25.03-.31.04,0-.02.03-.09.05-.18ZM100.96,6.46c.06.03.11.06.16.1,0,.02-.01.03-.02.05-.06-.02-.12-.04-.18-.05.01-.03.03-.06.04-.09ZM100.84,9.12s.03-.02.04-.02c-.02-.04-.04-.07-.06-.1,0,0,0,0-.01,0,.14-.22.38-.12.54-.19.07.15.13.27.19.41-.09.02-.17.05-.26.05-.26.01-.53-.04-.78.03-.24.07-.32-.08-.45-.19-.04.08-.01.22-.18.18-.07.05-.15.11-.23.17-.03-.07-.05-.11-.07-.15-.06.06-.12.12-.19.2-.08-.03-.16-.05-.24-.08-.05.07-.08.12-.11.17-.08-.13-.14-.24-.23-.38.13.02.24.03.29.04.25-.19.47-.21.71-.11.06-.16.16-.05.25-.04.22-.22.48-.2.74-.11,0,0,0,0-.01,0,.02.04.03.07.05.11ZM101.41,12.58c-.08,0-.15.01-.22.02-.07,0-.13.01-.23.02.04-.14.08-.23.11-.34.05.06.09.1.13.14.05-.07.09-.13.15-.2.02.13.04.25.05.36ZM100.84,12.58c-.03.05-.06.11-.1.17-.02,0-.03-.02-.05-.02.02-.06.04-.12.06-.18.03.01.06.02.09.03ZM100.1,12.55s-.02.07-.03.11c-.01,0-.02,0-.04-.01.01-.04.02-.07.03-.11.01,0,.02,0,.03.01ZM99.88,12.48s-.02.07-.03.11c-.01,0-.02,0-.04-.01.01-.03.02-.07.03-.11.02,0,.02,0,.03.01ZM99.66,12.57s0,.02-.01.03c-.03-.01-.07-.02-.11-.03,0-.01,0-.02.01-.04.04.01.07.02.11.03ZM99.08,13.87s-.02.07-.03.1c-.01,0-.02,0-.03-.01.01-.04.02-.07.03-.11.01,0,.02,0,.03.01ZM98.95,13.62c-.02.07-.04.11-.05.18-.11-.02-.21-.04-.3-.05-.04.06-.06.1-.13.21-.07-.06-.12-.1-.2-.17.17-.1.31-.18.41-.24.11.04.2.06.28.09ZM99.11,7.38s.03-.06.04-.09c.05.03.11.06.16.1-.01.02-.02.03-.03.05-.06-.02-.12-.04-.18-.06ZM100.06,7.36s-.06-.06-.08-.08c0,.04.04.08.11.21-.2-.09-.29-.13-.43-.19.11-.08.19-.14.33-.02-.01-.06,0-.13,0-.22.06.14.1.21.13.24.02-.01.03-.02.05-.03,0,.01.02.03.02.04-.02,0-.04.02-.07-.01-.02.01-.04.02-.06.03,0,0,0,.02.02.03ZM99.59,8.77s.07.02.1.03c0,.01,0,.02-.01.04-.03-.01-.07-.02-.1-.03,0-.01,0-.02.01-.03ZM99.52,7.41c-.06-.1-.09-.16-.13-.22.07-.04.13-.07.31-.16-.09.19-.13.28-.18.38ZM99.95,6.56s0-.03.01-.03c.03,0,.07.02.11.03,0,.01,0,.02-.01.04-.03-.01-.07-.02-.11-.03ZM100.05,5.9c-.12-.02-.23-.04-.32-.06-.04.06-.06.1-.1.16-.12-.04-.2-.07-.28-.09.26-.02.41-.35.73-.21,0,.06-.02.12-.03.2ZM99.37,6.65s.02,0,.03.01c0,.03-.02.07-.03.11-.01,0-.02,0-.04-.01.01-.03.02-.07.03-.1ZM100.36,6.92c-.04.19.37.22.1.45.02-.17-.34-.16-.1-.45ZM100.33,6.61s.02-.07.03-.11c.01,0,.02,0,.03.01-.01.03-.02.07-.03.11-.01,0-.02,0-.03-.01ZM100.76,7.22s-.02,0-.03-.01c.01-.03.02-.07.03-.1.01,0,.02,0,.03.01-.01.03-.02.07-.03.11ZM100.78,6.55s-.01.03-.02.05c-.07-.02-.14-.05-.21-.07,0-.02.01-.04.02-.06.07.02.14.05.21.07ZM100.41,5.66s.1-.11.15-.16c.07.1.1.16.17.26-.15-.05-.26-.08-.32-.1ZM99.13,5.28s.06.04.09.06c.01,0,.03,0,.06-.02.06-.16.16-.05.25-.04.06-.16.16-.05.25-.04.06-.15.15-.06.23-.01,0,0,.01-.02.01-.02.02,0,.04,0,.05,0,.18-.08.36-.18.59.04-.23,0-.41,0-.59-.04-.02.01-.03.02-.05.02,0,0,0,0-.01,0-.06.12-.15.02-.23.01-.06.16-.16.05-.25.04-.04.11-.1.09-.28.08,0,0,0,0,.01.01-.04,0-.08,0-.08-.01-.06,0-.12,0-.2,0,.1-.06.13-.09.15-.09ZM99.1,5.89c-.02.06-.03.09-.05.15-.07-.02-.14-.05-.23-.07.04-.07.06-.12.1-.18.07.04.12.07.17.1ZM98.89,5.37s-.03.09-.06.17c-.07-.03-.11-.06-.26-.13.16-.02.25-.03.31-.04ZM98.56,5.82c.06.02.12.04.18.06-.01.03-.03.06-.04.09-.05-.03-.11-.07-.16-.1,0-.02.02-.03.02-.05ZM98.48,6.84s.02,0,.03.01c-.01.03-.02.07-.03.11-.01,0-.02,0-.03-.01.01-.03.02-.07.03-.11ZM98.33,7.46c.15-.07.3-.14.44-.2.08.11.13.18.21.29-.26,0-.45-.01-.64-.06,0,0,.01.02.02.03,0,0,0,0-.01,0,0,0,0,0,0,.01,0,0,0,0-.01,0-.03.02-.06.03-.08.05,0-.02-.01-.03-.02-.05.03-.01.07-.03.11,0,0,0,0,0,0,0,0-.02,0-.04-.01-.06ZM98.04,9.54c.08.02.14.03.23.09,0-.01-.01-.02-.02-.04,0,0,.01,0,.02,0-.03-.09-.05-.14-.08-.22.11.01.21.03.31.04.04-.05.08-.11.14-.18.05.11.08.2.14.33-.18.03-.33.05-.52.03,0,.02.01.03.02.05,0,0-.01,0-.02-.01,0,.01.01.02.02.04-.09.03-.18.05-.3.08.02-.07.03-.13.05-.21ZM98.2,13.71c-.02.07-.05.14-.07.21-.02,0-.04-.01-.05-.02.02-.07.05-.14.07-.21.02,0,.04.01.06.02ZM97.93,6.91c-.02.06-.04.12-.06.18-.03-.01-.06-.02-.09-.03.03-.05.07-.11.1-.17.02,0,.03.02.05.03ZM97.76,9.98c-.06-.23-.24-.34-.15-.57.1.02.19.05.31.08-.05.15-.09.28-.16.49ZM97.8,13.82s-.02.07-.03.1c-.01,0-.02,0-.04-.01.01-.03.02-.07.03-.11.01,0,.02,0,.04.01ZM97.64,6.05c.06.05.12.1.19.16-.02.01-.03.02-.05.04-.06-.02-.12-.04-.19-.06.02-.06.04-.11.04-.13ZM97.69,7.4c.07.04.13.07.15.08-.09.13-.16.24-.23.35-.02,0-.04-.01-.05-.02.04-.13.08-.26.13-.41ZM96.58,9.74c.19-.05.39-.19.56,0-.01.04-.03.09-.05.15-.17-.06-.34-.11-.51-.16ZM96.78,14.08c-.02.07-.05.14-.07.21-.02,0-.04-.01-.05-.02.02-.07.05-.14.07-.22.02,0,.03.01.05.02ZM96.35,14.53s.02,0,.03.01c-.01.03-.02.07-.03.11-.01,0-.02,0-.03-.01.01-.04.02-.07.03-.11ZM96.31,14.28s.02-.07.03-.11c0,0,.02,0,.03.01-.01.03-.02.07-.03.11-.01,0-.02,0-.03-.01ZM96.25,9.79c.16.05.26.08.38.12-.04.08-.07.13-.1.18-.09-.1-.16-.18-.28-.31ZM97.56,13.85c0,.06-.02.12-.02.18-.16.02-.29.03-.42.05.12-.14.22-.31.44-.23ZM97.51,9.72c-.03.07-.05.13-.08.2-.08-.1-.13-.17-.11-.28,0,0,0,0,0,0,0,0-.01,0-.02.01t0,0s-.04.02-.06.03c.02-.02.03-.04.04-.06-.02-.02-.03-.05-.05-.07.02,0,.03-.02.05-.02,0,.03.02.05,0,.09,0,.01,0,.02.02.03,0,0,.01,0,.02-.01,0,0,0,0,0,0,0,0,0,0,0,0h0c.06.03.12.05.19.09ZM97.22,7.69s0-.02.01-.03c.04.01.07.02.11.03,0,.01,0,.02-.01.03-.03-.01-.07-.02-.11-.03ZM97.29,5.66s.07.02.11.03c0,.01,0,.02-.01.04-.04-.01-.07-.02-.11-.03,0-.01,0-.02.01-.04ZM97.19,7.05s.07.02.11.03c0,.01,0,.02-.01.03-.04-.01-.07-.02-.11-.03,0-.01,0-.02,0-.03ZM97.1,7.45s.02,0,.04.01c-.01.04-.02.07-.03.11-.01,0-.02,0-.04-.01.01-.04.02-.07.03-.11ZM97.14,7.9c-.2.03-.31-.07-.38-.27.23-.02.34.07.38.27ZM96.44,6.3s.06.03.08.05c.02,0,.05,0,.07-.01,0,0,0,0,0-.01.04-.02.07-.04.11-.06,0,.01.01.03.02.05-.02,0-.04.02-.12.03,0,0,0,0,0,.02-.02,0-.04,0-.05.01.01,0,.02.02.03.02-.06,0-.12,0-.03-.02,0,0-.01-.01-.02-.02-.06,0-.13.02-.24.03.1-.06.14-.09.15-.08ZM96.2,7.77s.04.01.06.02c-.02.04-.04.08-.06.11v-.13ZM96.2,10.02s.08.03.15.05c-.04.07-.06.11-.07.13-.03-.05-.05-.11-.08-.15v-.03ZM96.2,15.15c0-.12.01-.21.02-.4.15.36.41.29.65.44-.08-.19-.12-.29-.16-.39.02-.01.05-.03.07-.04.09.11.18.22.29.34.07-.19.13-.35.2-.52.02,0,.04.01.06.02-.01.11-.03.23-.05.38.11-.12.19-.2.26-.27-.05-.16-.03-.33-.21-.41.15-.02.29-.04.36-.05.09.09.15.16.19.21-.09.06-.13.09-.18.13.02.13.05.26.08.44.07-.14.11-.23.17-.36.12.09.22.17.32.25-.04-.21-.15-.35-.25-.5-.02-.02.05-.1.09-.19.13.13.23.22.29.28.03.21.06.37.08.5-.18.14-.42-.02-.58.12-.22.18-.42.05-.64.06-.19,0-.39.13-.56.07-.07.08-.11.11-.15.16-.04-.08-.06-.11-.08-.16-.05.06-.09.11-.11.15-.06.01-.11.03-.16.05v-.31ZM97.65,16.95c.06-.16.16-.05.23-.01,0,0,0,0,.01-.02,0,0,0,0,0,0h0c.16-.22.36-.37.43-.3.03.07.06.15.11.27-.21.02-.37.03-.54.02,0,0,0,0,0,0,0,0-.01.01-.01.02h0c-.06.1-.15.02-.17.03-.4.2-.8.23-1.2.36,0-.1.01-.15.01-.19.38-.11.73-.3,1.13-.19ZM96.78,16.8c.04-.13.07-.23.1-.33.1.03.18.06.27.09.01.04.03.07.04.11-.12.04-.25.08-.41.13ZM96.2,16.71s.04-.05.06-.07c.15,0,.29.02.56.04-.23.1-.42.16-.62.21v-.17ZM96.34,17.23s-.02.07-.03.11c-.01,0-.03,0-.04-.01.01-.04.02-.07.03-.11.01,0,.02,0,.03.01ZM96.2,19.89c.35-.14.75-.12,1.06-.36.31.12.56-.15.87-.12.08,0,.19-.14.28-.22.12.04.24.08.37.12.02-.05.03-.1.05-.17.18,0,.37,0,.6,0-.12.13-.2.21-.28.29-.13-.04-.25-.08-.31-.1-.89.36-1.81.44-2.63.78,0,0,0-.01-.01-.02v-.2ZM99.18,19.83c-.03.11-.06.19-.09.28-.06-.02-.11-.04-.15-.05-.02-.11-.03-.21-.06-.33.1.03.21.07.3.1ZM98.08,20.21s-.05.01-.07.01c-.01.03-.02.05-.02.08-.1.02-.2.05-.3.07-.09.02-.18.04-.33.07.12-.41.43-.21.66-.21,0-.03.02-.07.03-.11,0,0,0,0,0,0-.03-.08-.05-.13-.07-.21.15.04.29.07.42.1.05-.06.09-.12.14-.18.09.04.19.09.29.13-.2.35-.52.09-.78.16,0,.03.02.06.03.1ZM96.2,20.7c.05-.03.08-.06.1-.05.02.01.05.02.07.04.16-.03.19-.05.23-.07.06-.16.16-.05.25-.04.05-.02.09-.05.14-.07,0,0,0,0,0-.01.03-.02.07-.04.1-.06,0,.01.01.03.02.05-.04.01-.07.03-.12.03,0,0,0,.01,0,.02-.05,0-.1.03-.15.05-.06.16-.16.05-.25.04-.05.02-.09.05-.14.07-.03,0-.04.01-.06.02.01.01.03.02.04.03-.06,0-.12,0-.04-.03,0,0-.02-.01-.03-.02-.04,0-.1.02-.16.03v-.02ZM96.2,22.14s.11.03.26.04c0,0,0,0-.01-.01.04,0,.08,0,.07.01.06,0,.13,0,.21,0-.1.06-.13.09-.15.08-.03-.02-.07-.04-.1-.07-.02,0-.04.01-.07.02.02.08.05.14.08.23-.1-.01-.19-.03-.28-.04v-.25ZM96.74,22.52c.06,0,.13-.02.24-.03-.1.06-.14.09-.16.09-.03-.02-.06-.03-.08-.06-.03,0-.05,0-.07.01,0,0,0,.01,0,.01-.03.02-.07.04-.1.06,0-.01-.02-.03-.02-.04.02,0,.04-.02.12-.03,0,0,0-.01,0-.01.02,0,.04,0,.06-.01-.01-.01-.02-.02-.03-.03.06,0,.12,0,.03.03,0,0,.01,0,.02.01ZM96.2,22.79s.02,0,.03,0c-.01,0-.02-.02-.03-.02v-.03s.06-.01.08-.02c-.02-.05-.05-.1-.08-.17v-.06c.11.05.17.08.24.11-.03.04-.06.08-.16.12.01.02.02.05.04.08h-.08s0,0,0,0c-.01,0-.03,0-.04,0h0ZM96.2,24.5s.05.01.07.02c0,0,0,0-.01,0,.02.04.03.07.05.11.01,0,.03-.02.04-.02-.02-.03-.04-.07-.06-.1,0,0-.01,0-.01,0,.02-.07.04-.13.08-.24.06.09.08.13.12.19.27-.09.55-.18.84-.27-.03-.05-.05-.09-.04-.08.16-.08.32-.17.52-.27.08.02.21.04.32.07.06-.08.09-.12.09-.13.21,0,.38-.01.55-.02.05-.1.1-.19.15-.28.08.02.13.04.18.06,0,0-.01,0-.01,0,.01.03.03.07.04.11.01,0,.03-.02.05-.02-.02-.03-.04-.07-.07-.1,0,0,0,0,0,0,.19-.16.39-.11.6-.04,0,0,0,0-.01,0,.01.04.03.08.05.11.02,0,.03-.02.05-.02-.02-.03-.04-.07-.06-.1,0,0,0,0-.01,0,.05-.08.11-.17.18-.27-.02-.13-.04-.3-.07-.47,0-.01-.05-.02-.1-.05,0,.15-.02.28-.03.45-.31.04-.63.08-.94.11.02.04.03.08.07.19-.11-.04-.18-.06-.24-.08-.04.03-.08.05-.12.08-.03-.05-.06-.1-.1-.15-.19.01-.34.07-.5.18-.11.08-.3.06-.45.1-.16.04-.3.09-.46.12-.15.03-.28.07-.4.2-.07.08-.22.04-.31.1v-.74c.07-.02.15-.02.23.02.13-.09.26-.17.33-.21.2-.02.33.18.45,0-.03-.02-.05-.04-.08-.07.03-.01.07-.02.11-.03,0,0,0,0,0-.01,0,0,0-.01,0-.01.03-.02.07-.04.1-.06,0,.01.02.03.02.04-.03.02-.07.03-.12.03h0s0,.01,0,.02h-.01s-.02.06-.03.09c.08.04.22.01.18.17,0,0,0,0,0-.01-.03.02-.07.03-.11.05,0,.02.02.03.02.05.03-.02.07-.04.1-.06,0,0,0,0,0-.01.1.03.2.06.31.1.08-.09.14-.17.22-.23.07-.05.17-.06.26-.09-.08-.04-.22-.01-.18-.18-.03-.02-.05-.04-.08-.06.04-.01.07-.03.11-.04.02-.03.04-.05.06-.08.01.04.03.07.04.11.07.02.14.04.21.07-.01-.07-.03-.13-.05-.24.29-.07.59-.12.86-.23.29-.12.59-.08.87-.17.29-.09.57-.21.87-.32.1.03.2.07.3.1.05-.07.09-.12.13-.18.02.05.04.08.08.15.31-.16.65-.15.99-.17.34-.03.69-.07,1.03-.15.37-.09.72-.12,1.09-.1.34.02.68-.04,1.02-.08,0-.05.01-.08.02-.1-.08-.26-.38.04-.47-.19-.08.04-.17.08-.18.09-1.18-.01-2.29.03-3.46.26-.02,0-.13-.04-.25-.08-.03.05-.06.1-.08.15-.18,0-.38-.02-.56.03-.15.04-.25-.02-.37-.05-.02.07-.04.13-.06.18-.14,0-.24-.03-.34-.02-.08.01-.16.06-.24.09-.01-.02-.02-.05-.04-.07.07-.07.14-.14.21-.22-.08-.05-.17-.11-.27-.17-.03.02-.1.05-.17.09.02.05.04.09.1.22-.14-.09-.23-.14-.32-.19-.03.09-.06.18-.09.26.07.05.12.09.27.2h-.47s0,0,.01,0c-.02-.04-.03-.08-.05-.11-.01,0-.03.01-.05.02.02.03.04.07.06.1,0,0,0,0,.01,0-.11.18-.26.06-.31-.02-.12-.2-.28-.15-.42-.14-.05-.05-.09-.09-.13-.12-.02.05-.03.11-.05.15-.13.03-.26.07-.39.1.03.07.05.12.09.21-.17-.06-.31-.1-.42-.14-.07.09-.11.14-.15.19-.05-.06-.1-.11-.45-.12.1-.06.14-.09.15-.08.03.02.06.04.09.06.01,0,.03-.01.06-.02.09-.14.22-.18.38-.12.04.02.09,0,.14,0,.03-.09.05-.15.08-.24.15,0,.31,0,.46,0,.02-.05.03-.11.04-.12.37-.11.72-.22,1.08-.31.33-.08.7-.07,1.01-.19.35-.13.71-.16,1.07-.26.33-.09.73.08,1.01-.24.1.03.21.07.32.1.26-.15.59,0,.83-.2-.03-.02-.05-.04-.08-.06.02,0,.04-.02.11-.03,0,0,0-.01,0-.01.03,0,.04-.01.06-.02-.02-.01-.03-.02-.04-.03.06,0,.12,0,.04.03,0,0,.01.01.02.02.05-.01.12-.02.22-.04-.1.06-.13.09-.15.08-.03-.01-.05-.03-.07-.05-.03,0-.06.01-.08.02,0,.03-.02.06-.03.09.05.05.09.1.14.15.14-.05.26-.11.45-.1.25,0,.59.02.69-.34-.03-.02-.05-.04-.08-.07.04-.01.07-.03.11-.04q.09-.22.27-.09c-.02.05-.03.1-.05.16.08.01.18.11.25-.03,0,0,0,0,0,0,0,0-.01,0-.01,0-.02-.03-.04-.07-.07-.1.02,0,.03-.02.05-.02.02.04.03.08.03.12h0s.01,0,.01,0c0,0,0,0,0,.01.05.05.11.1.2.18,0-.15-.01-.24-.01-.33.19,0,.42.11.51-.22-.12-.04-.22-.07-.32-.1,0,0,0,0,.01,0-.02-.04-.03-.08-.05-.11-.02,0-.03.01-.04.02.02.03.04.07.06.1,0,0,0,0,.01,0-.02.07-.04.13-.1.31-.1-.19-.14-.28-.17-.33-.48-.15-.97.03-1.45-.12-.03.05-.05.09-.07.11-.33.08-.61.02-.82-.17-.07.04-.13.11-.2.12-.34.03-.69.08-1.03.1-.34.03-.68.11-1.03.11-.17,0-.29.18-.39.16-.19-.03-.35.05-.52.03-.1,0-.21-.04-.31-.06.25-.13.45-.23.71-.37.06.02.18.06.3.1.02-.05.04-.09.05-.12.29-.03.57-.07.85-.1.03-.05.06-.09.09-.13.13.03.26.07.37.1.04-.06.07-.11.1-.15.23,0,.45,0,.67.01.04-.06.08-.11.1-.16.1.03.21.09.24.06.18-.15.38-.11.57-.09.22.02.41-.05.62-.1,0-.05-.02-.09-.03-.15-.38.07-.74.15-1.11.06-.27-.06-.5.08-.77.08-.53,0-1.07.06-1.59.18-.09.02-.17.07-.25.1-.02.01-.06,0-.05,0-.06-.06-.1-.09-.13-.13-.02.07-.04.13-.1.29-.06-.18-.09-.27-.1-.36,0,0,0,0-.01,0,0,0-.01,0-.02,0-.02-.03-.04-.07-.06-.1.01,0,.03-.01.05-.02.01.04.03.08.03.12,0,0,0,0,.01,0h0c.07.03.13.05.2.07.14-.27.44-.24.65-.37.03.05.06.09.07.12.2-.03.38-.06.56-.09-.02-.05-.04-.1-.06-.13.11-.03.21-.05.31-.08.27-.07.55-.06.82-.14.11-.04.26.07.38.11.24-.19.53-.15.81-.16.28-.01.56-.1.84-.16.02.04.04.07.07.11.07-.11.12-.21.2-.34.09.09.14.15.2.2.05-.06.1-.12.16-.19.08.08.14.14.12.12.12,0,.19,0,.27-.01-.05-.1-.08-.15-.13-.25-.17-.05-.37-.12-.59-.19.04-.08.06-.13.06-.13.14-.11.27.13.36-.07-.06-.06-.11-.12-.16-.17-.03,0-.06-.02-.06-.02-.12.19-.34-.12-.41.39-.06-.1-.09-.13-.08-.15.02-.03.04-.07.06-.09,0-.01-.01-.03-.02-.06-.09-.03-.18-.06-.26-.09-.12.05-.23.11-.33.16-.07-.08-.11-.13-.13-.15-.25.02-.52-.04-.69.07-.25.15-.47-.12-.68.05-.23-.19-.42.15-.68.04-.18-.08-.44.04-.69.08-.01.02-.05.07-.09.12-.2-.06-.37-.12-.46-.15-.31.02-.54.03-.78.05-.02.08-.05.16-.08.26-.06-.07-.1-.12-.14-.17-.32.06-.63.12-.94.17-.31.05-.62.09-.96.13-.01.02-.05.07-.09.12-.09-.03-.16-.05-.19-.06-.12.06-.2.1-.28.14-.07.03-.14.06-.2.05-.22-.03-.43,0-.64.05v-.21s.08,0,.12-.02c.08-.02.15-.09.23-.14.01.03.03.07.04.11.02,0,.03-.02.04-.02-.02-.04-.04-.07-.06-.1,0,0-.01,0-.01,0-.01-.07-.03-.13-.04-.19.19-.01.38-.02.59-.03-.03-.08-.04-.12-.07-.18.37-.03.76.06,1.01-.35.07.09.12.15.18.22.13-.21.34-.22.56-.17-.01.07-.03.13-.05.22.08.02.13.03.21.05-.03-.12-.06-.21-.08-.3-.02,0-.05.02-.07.03.02-.07.05-.14.05-.23-.09,0-.2,0-.32-.01.03-.24.14-.37.42-.31-.04.12-.07.23-.09.33.07.02.14.05.21.07,0,0,0,0-.01,0,.01.04.03.07.05.11.01,0,.03-.01.05-.02-.02-.03-.04-.07-.06-.1,0,0,0,0-.01,0,.02-.07.05-.14.07-.21,0,0,0,0,0,0,.09.08.15.15.23.24.05-.08.08-.13.12-.18-.12-.1-.22-.17-.36-.08-.04-.1-.08-.21-.13-.37.12.04.18.06.25.08.01-.21-.15-.18-.26-.17-.17.01-.34.06-.53.09-.03.04-.07.09-.12.16-.09-.03-.18-.06-.25-.08-.04.06-.07.11-.09.15-.12,0-.25,0-.36.02-.11.02-.23.17-.34-.07.13-.08.27-.17.4-.25.03.06.06.1.09.16.05-.06.09-.11.14-.18.08.02.17.03.19.04.38-.14.7-.33,1.03-.35.26-.01.51-.02.73-.14.03.07.05.11.07.14.11-.01.11-.16.29-.16.53,0,1.05-.22,1.59-.17.12-.16.18.09.27.04.03-.06.06-.1.09-.16.13.04.25.08.33.11.4-.15.75-.25,1.22-.08.08-.06.21-.16.36-.28.06.08.11.14.15.19.1-.01.2-.03.3-.04.03-.08.05-.16.09-.26-.13-.04-.25-.08-.37-.12-.1.04-.22.09-.38.16,0-.12-.02-.18-.02-.27.22,0,.42-.01.65-.02-.08-.06-.13-.1-.21-.17.37-.1.71-.2,1.07-.31.06.01.13.03.2.05-.02-.13-.04-.24-.05-.31-.29.06-.59.12-.8.16-.16-.1-.24-.16-.33-.21.02-.16-.08-.18-.18-.12-.07.04-.09.15.04.2-.02.07-.04.13-.07.22-.08-.08-.12-.13-.16-.18-.17.05-.38,0-.48.18-.06-.06-.12-.12-.18-.18-.06.08-.1.14-.14.18-.11-.07-.22-.13-.3-.19-.13.11-.22.18-.32.27-.03-.06-.06-.11-.1-.17-.04.06-.08.12-.12.16-.21.03-.41.05-.61.08-.05-.06-.09-.1-.14-.16-.04.06-.06.11-.07.12-.29.05-.57.1-.84.15,0-.09,0-.15,0-.32-.09.19-.14.28-.17.35-.25,0-.47,0-.67-.01-.05.07-.08.11-.11.15-.06-.06-.1-.11-.15-.16-.02.05-.03.11-.06.19-.08-.02-.17-.03-.26-.05-.16.06-.33.12-.5.17,0,.01,0,.02.01.03-.03.02-.07.04-.1.06,0-.02-.02-.03-.02-.05.04-.01.07-.03.12-.03-.05-.08-.11-.16-.15-.22.05-.04.11-.08.19-.15-.13-.18-.24-.34-.38-.53.24.07.45-.13.61.12-.02.07-.05.16-.08.26.1.02.19.05.28.06.02,0,.04-.05.06-.08-.16-.27-.17-.45-.02-.47.04.08.09.17.14.28.08.02.18.04.27.06-.04-.16-.08-.29-.12-.42.03-.02.05-.04.08-.05.07.06.14.12.22.17.11-.23.35-.21.56-.24,0,.07.01.14.03.33.08-.2.12-.28.16-.39.21.01.44.02.67.03.03-.05.07-.1.11-.16.07.02.12.04.17.05,0,0,0,0-.01,0,.02.04.03.07.05.11.01,0,.03-.02.04-.02-.02-.03-.04-.07-.06-.1,0,0,0,0-.01,0,.15-.22.33.11.49-.03,0-.05,0-.1.01-.15-.17-.05-.32-.1-.47-.15-.05.07-.09.12-.13.17-.05-.01-.09,0-.11-.03-.04-.04-.06-.09-.09-.14-.06.06-.11.12-.11.12-.57.09-1.07.17-1.56.24-.05-.04-.09-.08-.08-.09-.12.06-.23.1-.39.17,0-.13,0-.2,0-.29.14.05.24.08.34.1.08-.11.19-.11.32-.14.54-.14,1.11-.08,1.64-.28.11-.04.24-.07.35-.09.03,0,.07,0,.12,0,.04.05.08.09.12.14.05-.02.09-.03.11-.04.08.22.15.43.22.63.03-.1.06-.2.11-.35.11.09.18.15.28.24.07-.09.13-.19.2-.28-.22-.04-.44-.09-.68-.13.21-.35.54-.19.78-.23.05-.06.07-.11.1-.15.06.07.12.14.18.2.3-.32.63-.21.94-.14.03-.04.06-.09.08-.13.1.02.19.04.3.06.03-.1.06-.2.08-.31-.18-.06-.31-.13-.46-.14-.14-.01-.28.05-.43.08.02-.13.04-.23.05-.34-.15.06-.26.1-.36.13.03.02.05.04.08.06-.04.01-.07.03-.11.04-.18.1-.34.05-.43-.14-.05-.05-.09-.1-.13-.15-.04.02-.09.04-.17.07.04-.12.07-.22.1-.32.08.06.15.12.22.17.07-.08.12-.14.19-.22.07.09.11.14.14.17.15,0,.28.01.41.02.05-.06.1-.12.14-.17.14.1.24.17.34.24-.01-.05-.02-.09-.03-.14-.03-.1-.03-.18.13-.16,0,0,0-.01,0-.02h0s0,0-.01,0c.04-.07.07-.13.11-.19.02,0,.04.02.07.03-.03.07-.06.13-.16.17.02,0,.05.02.08.03-.03,0-.06-.01-.08-.01-.02.12.06.15.15.12.07-.02.13-.09.21-.14,0,0,0,0,0,0,0,0,0,0-.01,0-.02-.03-.04-.07-.06-.1.01,0,.03-.02.05-.02.01.04.03.07.03.12,0,0,0,0,.01,0,0,0,0,0-.01.01.06.05.11.1.2.17,0-.18-.01-.3-.01-.43.03-.01.05-.02.08-.03.11.16.22.32.34.5.06-.15.2-.25.03-.37t0,0s0,.01,0,.01c-.03.02-.07.04-.1.06,0-.01-.01-.03-.02-.04.04-.02.07-.03.12-.03h0s0,0,0-.01c0,0,0,0,.01,0,.05-.08.1-.17.18-.29-.09-.08-.22-.19-.33-.29.18-.04.37-.07.55-.13.05-.01.06-.12.13-.28-.19.07-.29.12-.39.14-.07.02-.15-.01-.22-.02,0-.03,0-.06-.01-.09.16-.08.33-.17.58-.3-.3-.1-.5-.16-.7-.23-.03-.15-.06-.27-.08-.39-.06-.02-.11-.03-.16-.05-.07.02-.13.05-.27.1.05-.14.07-.2.1-.27,0,0,0,0,0,0,0,0-.01,0-.01,0-.02-.03-.04-.07-.06-.1.01,0,.03-.02.04-.02.02.04.03.08.03.12,0,0,.01,0,.01,0,0,0,0,0,0,.01.06.06.12.12.17.17.08-.03.16-.07.28-.12-.02-.04-.04-.09-.07-.15-.03.02-.07.04-.1.06,0-.01-.02-.03-.02-.04.04-.02.08-.03.12-.03,0,0,0,0,0-.01,0,0,0,0,0,.01.02-.07.05-.14.07-.21.1.03.2.06.3.1.05-.12.09-.2.12-.27.11-.02.21-.03.41-.05.05.1.12.24.18.35.03-.08.09-.21.16-.35.04.08.07.12.08.14.29,0,.57,0,.85,0,.28.01.56.04.84.06.09,0,.18-.02.26,0,.21.07.41.1.63.08.19-.01.39-.02.58.06.09.04.21,0,.31.01.38.05.76.1,1.15.12.29.01.53.24.85.2.28-.03.55.17.84.11.8.27,1.66.35,2.45.66.23.09.46.25.74.13.02,0,.09.03.09.05,0,.21.21-.03.26.13.06.23.22-.02.33.03.22.09.46.11.62.32.2-.12.28.14.44.15.17.01.39,0,.49.09.15.15.33.16.5.22.3.11.6.2.9.3.1.04.25.06.29.14.09.18.2-.05.32.06.28.28.65.43,1.02.57.33.13.66.29.99.43.03.25.25.1.36.17.24.14.47.3.73.47.01.22.02.44.04.66.05.03.09.05.16.09-.07.18-.13.34-.19.5-.07-.03-.11-.04-.14-.05.07-.12.13-.25.22-.41-.32.04-.34.25-.38.42.07.09.14.17.21.24.1.11.19.28.33.33.2.07.31.23.47.34.17.13.35.23.52.35.09.06.16.15.29.28-.29,0-.36-.33-.6-.2.06.06.13.12.2.19-.05.05-.09.1-.12.13-.29-.13-.14-.36-.17-.55-.13-.02-.26-.05-.38-.07,0,.02,0,.03,0,.05.09.05.19.09.3.15-.09.05-.15.08-.23.12-.38-.09-.75-.26-1.18-.35.06.11.09.18.13.25.05-.02.1-.05.14-.07.03.05.05.09.08.14.15.23.44.22.63.37.31.23.63.43.92.62.04.1.07.17.1.25.13-.18.23-.03.33.03-.02.11-.04.21-.06.3.08.02.13.04.18.07,0,0,0,0,0,0,0,0,0-.01,0-.02.03-.02.07-.04.1-.06,0,.01.02.03.02.04-.04.02-.07.03-.12.03h0s0,.01,0,.02c0,0-.01,0-.01,0-.05.04-.1.09-.18.16.1.08.21.14.29.23.08.08.12.19.2.31-.14.06-.24.1-.29.12-.56-.34-1.14-.52-1.61-.92,0-.06,0-.13,0-.17-.1-.03-.19-.06-.28-.09-.03.1-.06.19-.09.27.19.13.38.26.56.38,0,.06-.01.11-.02.15.46.05.69.46,1.05.65,0,.07,0,.13-.01.23.09-.09.15-.15.25-.25.04.13.07.21.1.31q.27.15.3.62s-.03.04-.05.06c-.05-.02-.11-.03-.16-.05.02.07.03.13.04.2-.12,0-.24,0-.43,0,.15.2.26.34.38.5.06-.16.12-.28.16-.39.13.09.24.16.37.25-.08.16-.1.33.08.45-.02.07-.03.13-.05.2.06.03.1.05.17.07.03-.06.05-.12.09-.19-.08-.03-.15-.06-.21-.09.03-.1.06-.2.11-.33.43.27.19.66.27.97,0,.01-.05.04-.1.08-.04-.11-.08-.21-.11-.3-.16-.05-.31-.1-.42-.14-.24-.24.02-.46,0-.69-.06-.02-.1-.03-.19-.06-.02.08-.05.15-.06.33,0,0,0,0,0,0,0,.03,0,.07,0,.08,0,.06,0,.12,0,.21-.06-.1-.09-.13-.08-.15.02-.03.04-.06.06-.09,0-.01-.01-.03-.02-.06-.08.02-.17.03-.25.04-.19-.19-.37-.37-.54-.54-.16-.04-.17.32-.36.09.01-.1.03-.2.04-.34-.18,0-.34,0-.46,0-.08-.18-.15-.35-.22-.5-.1.02-.2.03-.3.05.04.1.34.15.09.3-.14-.13-.28-.27-.41-.4.02-.09.05-.17.08-.32-.18.07-.3-.19-.46.01.05.08.11.15.17.23-.08.04-.11.05-.18.09.25.23.48.45.73.68-.1.25-.19.35-.34.3-.03-.04-.08-.09-.11-.13-.07.03-.14.06-.24.1.13.07.23.13.37.21-.09.08-.15.14-.19.18.02.07.05.14.09.25.08-.13.14-.24.2-.36.13.12.23.22.34.33-.02.08-.05.16-.11.34.12-.13.17-.18.25-.27.15.1.31.2.48.3.03.4.36.47.54.53.26.21.52.32.59.5.1.24.51.21.42.59-.04,0-.08.02-.13.02.01.07.02.13.02.24,0,0,.01,0,.02,0,0,0,0,0,0-.01.07.04.13.07.2.11-.01.02-.02.05-.03.07-.07-.03-.13-.06-.17-.16-.01.03-.02.06-.03.08,0-.03,0-.06,0-.09-.17-.06-.34-.11-.51-.17-.03.09-.06.18-.09.27.02-.01.05-.03.07-.04,0,.09,0,.17.01.31.1-.13.14-.19.18-.25.03.06.06.1.09.15.05-.02.09-.04.15-.07.03.09.05.18.08.26-.07-.02-.13-.03-.19-.05-.02.01-.04.03-.06.05.06.05.13.1.18.15,0,0,.04-.07.08-.14.26.18.07.4.05.57.23.13.45.26.68.4-.03.07-.05.11-.07.19-.27-.12-.5-.26-.63-.56-.4-.16-.63-.59-1.1-.68.22.25.42.48.61.7-.01.02-.03.04-.04.06-.26-.14-.52-.28-.76-.41,0-.08.01-.13.01-.14-.47-.18-.79-.51-1.07-.87-.06.02-.11.04-.13.05-.19-.11-.35-.21-.51-.31-.03.02-.06.04-.1.06-.02-.1-.05-.19-.08-.31-.07.16-.12.28-.17.38-.35.04-.48-.38-.83-.3,0,.06,0,.12-.01.19.08-.03.12-.05.22-.09-.06.17-.1.3-.15.46.18.15.34.28.49.4.09-.02.16-.04.23-.05.02-.02.04-.05.07-.08.01.03.02.07.02.11,0,0,.01,0,.02,0,0,0,0,0,.02,0,.02.03.04.07.06.1-.02,0-.03.01-.04.02-.02-.04-.03-.07-.03-.12h0s0,0-.01,0c0,0,0,0,0-.01-.03-.01-.06-.02-.09-.03,0,.16,0,.31,0,.47.12-.08.19-.13.28-.19.05.18.08.31.12.46.08-.08.13-.14.16-.17.15.14.28.27.42.4-.08.01-.16.02-.28.04.16.11.29.2.4.29.03-.07.05-.13.09-.21.08.03.13.06.19.09-.03.07-.05.11-.07.18-.07-.02-.14-.03-.2-.05-.01.04-.02.07-.13.05.2.09.31.14.44.2-.08.08-.12.12-.19.19-.08-.12-.13-.2-.16-.34-.17-.03-.28-.14-.41-.24-.14-.1-.34-.09-.46-.27-.04-.05-.24-.17-.3.1.36.29.73.6,1.1.89.01.11.02.2.03.3-.14.01-.28.02-.41.03,0-.11,0-.18-.01-.25-.09.02-.17.04-.27.06-.04-.16-.08-.29-.11-.44-.16-.04-.36.13-.48-.08,0-.06.01-.11.02-.2-.17-.02-.34-.05-.51-.07.01-.08.03-.18.04-.28-.19.03-.35.05-.5.07-.08-.14-.14-.24-.2-.34-.13.03-.21.05-.27.06-.12-.13-.23-.24-.34-.35-.09.09-.16.16-.2.21.38.34.74.65,1.12.99-.16.04-.27.07-.41.09.12.29.45.35.63.55,0,.07,0,.12,0,.19.11-.06.21-.1.38-.18.02.11.03.22.04.29.09,0,.14-.02.24-.02-.11.16-.18.27-.25.37.03.02.05.04.08.05.11-.12.22-.25.32-.37.03.07.07.13.1.2-.05.03-.09.05-.14.08.08.08.16.16.24.23.05-.03.09-.04.13-.07.02.32.44.32.48.62.29.07.36.34.58.59-.22,0-.35-.01-.5-.02.1.19.17.35.24.49.07.04.21.02.17.17,0,0,0,0,.01,0,0,0,0,0,.01,0,.02.04.04.07.06.1-.01,0-.03.02-.04.02-.02-.04-.03-.08-.03-.12,0,0-.01,0-.02,0,0,0,0,0,0-.01-.08-.03-.21-.02-.17-.17-.06-.04-.13-.06-.18-.1-.28-.23-.56-.46-.84-.7-.46-.39-.99-.7-1.44-1.11-.25-.22-.56-.38-.86-.57-.04.12-.07.2-.11.32.25.03.4.22.59.34.26.16.35.51.7.55.09.01.18.16.23.27.07.12.15.18.27.25.2.1.41.21.53.42.03.06.09.1.15.14.13.09.32.14.39.25.1.15.23.17.36.23.03.01.05.05.03.03.05.16.08.27.12.38.06-.03.12-.07.12-.06.08.08.16.17.23.26,0,.02-.03.06-.06.13-.2-.07-.41-.13-.62-.2.09.18.18.35.26.53.04-.02.08-.04.08-.04.1.06.18.12.27.17,0-.03.02-.06.04-.1,0,0,0,0,0,0,0,0,0,0-.01,0-.02-.03-.04-.07-.06-.1.01,0,.03-.02.05-.02.01.04.03.07.03.12,0,0,.01,0,.01,0,0,0,0,.01,0,.02.02.02.05.04.07.06-.04.02-.08.03-.11.04.05.08.1.15.16.25-.02.03-.04.07-.06.11-.24-.11-.47-.21-.7-.32,0,0,0,0,0,0,0,0,0,0,0,.01-.03.02-.07.04-.1.06,0-.02-.02-.03-.02-.05.04-.01.07-.03.12-.03,0,0,0-.01,0-.02,0,0,0,0,.01,0,.02-.06.04-.13.08-.24-.15,0-.24.02-.32.02,0-.15-.01-.31-.02-.47-.11.02-.18.06-.24.05-.26-.05-.54-.24-.85-.5-.19-.17-.41-.3-.62-.45.02-.01.04-.03.07-.04-.06-.07-.12-.15-.2-.24-.03.07-.05.13-.08.2.08.04.15.06.2.08,0,0,0,0,0,0,0,.14.06.22.18.3.22.14.49.27.6.48.14.26.44.34.59.56.08.1.15.19.26.32-.28.01-.27-.15-.3-.29-.18-.07-.38-.07-.53-.23.01.12.03.23.04.36-.1.01-.18.02-.28.03.24.28.41.05.55-.08.03.25.07.48.1.69.13-.01.22-.02.35-.03-.04.12-.06.18-.08.25.1.04.21.06.3.11.04.02.06.09.09.14.03,0,.05-.02.08-.03.02.09.05.18.08.31-.07-.02-.13-.03-.21-.05.02-.09.04-.15.06-.22h0c-.1-.03-.2-.07-.34-.11,0,.18.01.31.02.45-.18-.06-.31-.1-.55-.18.19-.08.29-.11.4-.15.02-.08.05-.17.08-.25-.1,0-.22,0-.31.03-.08.03-.14.12-.23.2-.09-.15-.14-.25-.18-.31-.12,0-.2,0-.34,0,.09-.09.13-.13.16-.16-.02-.11-.03-.21-.06-.35-.07.13-.11.22-.16.32-.13-.15-.25-.3-.37-.45-.06.03-.09.05-.09.05-.2-.18-.4-.35-.6-.52-.37-.33-.8-.6-1.18-.92-.21-.17-.43-.36-.69-.49-1.74-1.24-3.7-2.25-5.84-2.94-3.18-1.03-6.42-1.26-9.51-.83-.29.03-.58.06-.87.1-.19.03-.38.15-.56.1-.23-.07-.4.25-.62.05-.23.08-.47.24-.7.22-.3-.03-.53.05-.77.18-.01,0-.03.02-.05.03-.08.02-.18.03-.25.06-.54.23-1.16.22-1.67.56-.08.05-.2.05-.3.07-.02,0-.04-.03-.07-.05.02-.07.05-.14.05-.16.23-.1.42-.19.62-.28.21-.09.47-.05.62-.28-.13,0-.26,0-.4,0-.01-.09-.03-.18-.05-.33-.09.06-.14.1-.18.13.02,0,.02.02.03.02-.14-.04-.23-.07-.37-.12,0,.09,0,.16,0,.29.16-.07.26-.11.38-.17.09.07,0,.17,0,.27-.13.06-.28.13-.41.19-.07-.08-.11-.13-.15-.17-.16.14-.32.28-.48.41-.07-.18-.22-.19-.38-.23v-.48ZM97.86,23.74s.02-.07.03-.11c.01,0,.03,0,.04.01,0,.03-.02.07-.03.11-.01,0-.02,0-.04-.01ZM97.62,22.25c0-.06.02-.12.02-.18.14-.01.24-.02.38-.03-.05.12-.09.21-.13.3-.1-.03-.17-.06-.27-.09ZM97.79,23.08s-.03.02-.04.02c-.02-.04-.03-.07-.02-.12,0,0-.02,0-.03.01-.02-.03-.04-.07-.06-.1.01,0,.03-.02.04-.02.01.04.03.07.02.12,0,0,.02-.01.03-.02.02.03.04.07.06.1ZM103.06,21.53s.02-.07.03-.11c.01,0,.02,0,.03.01-.01.03-.02.07-.03.11-.01,0-.02,0-.04-.01ZM100.27,20.61s.03-.06.04-.09c.06.03.11.07.16.1,0,.02-.02.03-.02.05-.06-.02-.12-.04-.18-.06ZM102.04,20.24s.03-.06.04-.09c.06.03.11.07.16.1-.01.02-.02.03-.02.05-.06-.02-.12-.04-.18-.05ZM102.62,20.21s-.06-.02-.08-.03c.03,0,.06.01.08.01.03-.02.07-.04.1-.06,0,.01.02.03.02.04-.03.01-.06.02-.12.02t0,0s0,0,0,.02c0,0,0,0,0,0,0,0,0,0,0,0t0,0h0c-.03.06-.07.12-.1.19-.02-.01-.04-.02-.07-.03.03-.07.06-.13.17-.16h0s0,0,0-.01ZM102.87,20.09c.12-.02.23-.05.41-.08-.12.14-.19.22-.28.32-.05-.09-.09-.16-.13-.24ZM103.48,20.1c.03-.05.07-.11.1-.16.02,0,.03.02.05.03-.02.06-.04.12-.06.18-.03-.01-.06-.03-.09-.04ZM104.04,20.31s.02-.07.03-.11c.02,0,.03,0,.04.01-.01.03-.02.07-.03.11-.01,0-.02,0-.04-.01ZM99.65,18.95c.03.13.05.21.07.27q-.17-.02-.07-.27ZM99.8,17.61s.01-.03.02-.06c.07.02.14.05.21.07,0,.02-.01.04-.02.05-.07-.02-.14-.04-.21-.07ZM102.96,17.68s0-.03.01-.03c.03,0,.07.02.1.03,0,.01,0,.02-.01.04-.03-.01-.07-.02-.1-.03ZM103.73,17.62s.02-.07.03-.11c.01,0,.02,0,.03.01-.01.03-.02.07-.03.11-.01,0-.02,0-.03-.01ZM103.92,17.64s0-.02.01-.04c.03.01.07.02.11.03,0,.01,0,.02-.01.04-.03-.01-.07-.02-.11-.03ZM104.18,17.63s.03-.06.04-.09c.05.03.11.06.16.1,0,.02-.02.03-.02.05-.06-.02-.12-.04-.18-.05ZM100.98,15.19s.02-.07.03-.11c0,0,.02,0,.03.01,0,.03-.02.07-.03.11-.01,0-.03,0-.04-.01ZM102.39,15.05s.07-.04.1-.07c0,.02.01.03.02.05-.02,0-.04.02-.12.03,0,0,0,.01,0,.02-.02,0-.04,0-.05.01.01,0,.02.02.03.02-.06,0-.12,0-.03-.02,0,0-.01-.01-.02-.02-.06.01-.13.02-.23.03.1-.06.13-.09.15-.08.03.01.06.03.08.05.03,0,.05,0,.07-.01,0,0,0,0,0-.01ZM102.75,15.08c.03-.1.05-.15.07-.22.1.03.19.06.29.09,0,.03,0,.05,0,.08-.11.01-.21.02-.36.04ZM103.71,14.67s-.07.04-.1.06c0-.01-.02-.03-.02-.04.03-.02.07-.03,0-.07.27-.03.42-.05.63-.07-.17.25-.34.15-.51.09,0,0,.01.02.02.03ZM103.62,14.85c-.04.13-.07.22-.11.33-.05-.05-.09-.11-.13-.13-.03-.01-.09.02-.14.03-.01-.03-.02-.07-.03-.1.12-.04.25-.08.41-.13ZM102.8,12.48s.02-.07.03-.11c.01,0,.02,0,.03,0-.01.04-.02.07-.03.11-.01,0-.02,0-.03-.01ZM124.86,16.66s-.02.07-.03.11c-.01,0-.02,0-.04-.01.01-.03.02-.07.03-.11.01,0,.02,0,.04,0ZM125.95,23.14s-.02.07-.03.11c-.01,0-.02,0-.03-.01.01-.04.02-.07.03-.11.01,0,.02,0,.04.01ZM125.7,23.54s-.02,0-.04-.01c.01-.03.02-.07.03-.11.01,0,.02,0,.04.01-.01.03-.02.07-.03.11ZM125.72,23.91c-.02.06-.04.12-.06.18-.03-.01-.06-.02-.09-.04.03-.05.06-.11.09-.17.02.01.03.02.05.03ZM125.06,20.88s-.01.03-.02.05c-.07-.02-.14-.05-.21-.07,0-.02.01-.03.02-.05.07.02.14.05.22.07ZM124.5,20.55s.02-.07.03-.11c.01,0,.02,0,.04.01-.01.03-.02.07-.03.11-.01,0-.02,0-.04-.01ZM124.53,21.43s0,.02-.01.04c-.03-.01-.07-.02-.11-.03,0-.01,0-.02.01-.04.03.01.07.02.11.03ZM124.32,21.27q-.17-.02-.07-.27c.03.13.05.21.07.27ZM123.88,20.83s-.07,0-.09.01c-.03.05-.06.11-.09.16-.02-.01-.05-.02-.07-.03.02-.05.05-.11.16-.13,0-.01.01-.02.02-.03-.03-.01-.06-.02-.09-.03.04,0,.07,0,.09-.01.03-.05.06-.11.09-.16.02.01.05.02.07.03-.02.05-.04.1-.15.13,0,.01-.02.02-.02.03.03.01.06.02.09.03ZM123.35,20.52c-.13-.12-.15-.29,0-.44.04.01.09.03.14.05,0,.07.01.14.02.22.02,0,.04-.02.05-.02.08.06.15.11.19.14-.14.18-.3.15-.41.06ZM125.62,30.47c.03-.09.05-.15.07-.21-.02-.05-.05-.09-.07-.14,0,0,0-.01,0-.02-.19-.06-.34-.11-.46-.15.1-.06.21-.13.32-.2.05.09.1.2.14.36.01,0,.03,0,.05.01-.02.05,0,.1.03.15.17.04.26.13.24.31,0,0,0,0,.01,0,0,0,0,0,.01,0,.02.03.04.07.06.1-.01,0-.03.02-.04.02-.02-.04-.03-.07-.03-.12,0,0-.01,0-.01,0,0,0,0,0,0-.01-.09-.03-.19-.06-.31-.1ZM125.84,32.73c-.23.05-.21-.12-.29-.23.24-.05.22.12.29.23ZM125.32,32.02s-.02.07-.03.11c-.01,0-.02,0-.04-.01.01-.03.02-.07.03-.11.01,0,.02,0,.03.01ZM124.85,33.23c-.06,0-.11,0-.04-.03,0,0-.01-.01-.02-.02-.05,0-.12.02-.22.04.1-.06.13-.09.15-.08.03.01.05.03.07.05.03,0,.06-.01.08-.02,0-.03.02-.06.03-.09.02.02.05.04.08.06-.02,0-.04.02-.11.03,0,0,0,0,0,.01-.02,0-.04.01-.06.02.01,0,.03.02.04.03ZM124.79,34.14s0,.02,0,.03c-.03,0-.07-.02-.11-.03,0-.01,0-.02.01-.04.03.01.07.02.1.04ZM124.87,32.82s-.02.07-.03.11c-.02-.05-.05-.09-.07-.14-.07-.03-.14-.07-.24-.12.08-.08.14-.14.21-.24-.06-.03-.12-.06-.17-.1.01-.02.02-.05.03-.07.06.02.12.05.16.14.01-.02.03-.04.04-.06-.01.03-.02.05-.03.08,0,0,0,0,0,0,.19.12,0,.24,0,.36.03,0,.07.02.1.03.04-.07.08-.13.08-.14.06.05.12.1.18.15-.02.02-.04.03-.06.05-.06-.02-.13-.03-.19-.05ZM124.1,33.13q-.24-.09-.25-.34c.09.13.15.22.25.34ZM123.9,32.62c.02-.07.05-.14.07-.21.02,0,.04.01.05.02-.02.07-.05.14-.07.21-.02,0-.03,0-.05-.02ZM123.93,31.7s-.11-.06-.2-.12c0,0,0,0,0,.02,0,0,0-.01,0-.02,0,0,0,0,0,0-.03-.16-.05-.29-.08-.45.09.04.14.07.19.09-.03.1-.07.2-.11.36h0s0-.03.01-.04c.14.04.27.09.4.13,0,.09,0,.16,0,.2.1,0,.2,0,.33-.01-.08.18-.13.31-.19.45-.12-.21-.23-.38-.36-.61ZM123.12,31.35c.01.08.02.15.03.23-.1-.05-.16-.08-.2-.1.02-.07.04-.12.17-.13-.01-.07-.02-.15-.04-.26.13.16.18.24.18.28.06,0,.13.03.22.05-.1.06-.13.09-.15.08-.05-.02-.09-.06-.14-.09.04,0,.07,0,.06-.04-.06-.01-.1-.02-.14-.02ZM123.03,30.41s-.03.01-.04.02c-.01-.03-.02-.06-.02-.12t0,0s-.01,0-.02,0c0,0,0,0,0,0,0,0,0,0,0,0h0s0,0,0,0c-.06-.04-.12-.07-.19-.1.01-.02.02-.05.03-.07.07.03.13.05.15.17h0s0,0,0,0c.01-.03.02-.05.03-.08,0,.03-.01.06-.01.08.02.03.04.06.06.1ZM123.08,30.68c.03-.05.06-.11.1-.16.02,0,.03.02.05.02-.02.06-.04.12-.06.18-.03-.01-.06-.03-.09-.04ZM123.47,30.56s0-.02.01-.04c.03.01.07.02.1.04,0,.01,0,.02-.01.03-.04,0-.07-.02-.11-.03ZM123.11,25.78c.06-.11.08-.15.12-.21.1.04.19.08.35.14-.18.03-.29.05-.47.08ZM123.41,27.77c-.02.06-.04.12-.06.18-.03-.02-.06-.03-.09-.04.03-.05.07-.11.1-.16.02.01.03.02.05.03ZM123.7,25.36s.02,0,.03,0c0,0,0,0,0,0,.1.05.2.1.3.14,0,.02-.02.05-.03.07-.1-.04-.2-.08-.25-.19-.01,0-.02,0-.03,0-.01.03-.02.06-.03.09,0-.04,0-.07,0-.1-.19-.07-.27-.19-.19-.39.02-.04.06-.08.09-.13.06.04.1.06.16.1-.06.04-.1.07-.14.09.04.09.08.18.08.33ZM124.14,28.36c.04.08.1.18.15.26.14.04.22.07.34.11,0,.06-.02.12-.03.21-.15-.05-.26-.09-.44-.14-.02-.05-.05-.15-.08-.25-.06.03-.09.05-.1.05-.07-.11-.14-.22-.22-.36.13.04.25.08.39.13ZM124.06,25.81c.04-.07.07-.12.14-.25.05.14.08.21.11.29-.03.02-.06.03-.09.05-.04-.02-.09-.05-.16-.09ZM124.74,26.24s-.03.02-.05.02c-.01-.03-.02-.05-.02-.12,0,0,0,0,0,0,0,0-.01,0-.02,0,0,0,0,0,0,.01-.1-.05-.2-.1-.3-.14,0-.02.02-.05.03-.07.1.04.2.08.26.21,0,0,0,0,.01,0,.01-.03.02-.06.03-.08,0,.03-.01.06-.01.08.02.03.04.07.06.1ZM124.6,26.95s-.02.07-.03.11c-.01,0-.02,0-.04-.01.01-.04.02-.07.03-.11.01,0,.02,0,.03,0ZM124.27,30.39s.02,0,.03.01c0,.04-.02.07-.03.11-.01,0-.02,0-.04-.01.01-.03.02-.07.03-.11ZM124.23,29.43s.02-.07.03-.11c.01,0,.02,0,.04,0-.01.04-.02.07-.03.11-.01,0-.02,0-.04-.01ZM123.56,30.1s.03-.04.04-.06c-.02-.03-.03-.05-.05-.07.01,0,.03-.02.05-.02.01.03.02.06,0,.1,0,0,.01.02.02.03,0,0,.01,0,.01,0,0,0,0,0,0,0,0,0,0,0,.01,0h0c.06.03.11.05.19.09-.03.07-.05.13-.08.2-.08-.1-.13-.17-.11-.28,0,0,0,0,0,0,0,0-.01,0-.02.01h0s-.04.02-.06.03ZM123.58,28.51s.02,0,.04,0c-.01.04-.02.07-.03.11-.01,0-.02,0-.04-.01.01-.04.02-.07.03-.11ZM123.49,27.99s.03-.06.04-.09c.05.03.11.07.16.1-.01.02-.02.03-.02.05-.06-.02-.12-.04-.18-.06ZM124.05,29.09s-.03.01-.04.02c-.01-.03-.02-.05,0-.1,0,0-.01-.02-.02-.03,0,0-.01,0-.02,0,0,0,0,0,0,0,0,0,0,0,0,0,0,0,0,0,0,0-.06-.02-.12-.05-.19-.08.03-.07.05-.13.08-.2.08.09.13.17.12.28,0,0,0,0,0,0,.01,0,.02,0,.02,0t0,0s.04-.02.06-.03c-.02.02-.03.04-.04.05.01.03.03.05.04.07ZM123.99,29.61s-.02.06-.04.09c-.05-.03-.11-.07-.17-.1,0-.02.02-.03.02-.05.06.02.12.04.18.06ZM123.86,30.51c.09.03.19.06.28.09-.01.03-.03.06-.04.09-.09-.04-.18-.09-.27-.13,0-.02.01-.03.02-.05ZM123.44,25.91s.07.02.11.04c0,0,0,.02-.01.03-.03,0-.07-.02-.11-.03,0-.01,0-.02.01-.04ZM123.47,28.12s.02,0,.04,0c-.01.04-.02.07-.03.11-.01,0-.02,0-.04-.01.01-.03.02-.07.03-.11ZM123.61,32.06s.02,0,.04.01c-.01.03-.02.07-.04.11-.01,0-.02,0-.03-.01.01-.04.02-.07.03-.11ZM124.25,31.04c.08-.04.15-.08.21-.11.1.12.21.24.31.36-.02.02-.05.04-.07.06-.15-.11-.3-.21-.45-.32ZM124.77,31.84s-.08-.02-.18-.06c.05-.09.07-.13.11-.19.03.1.05.18.07.25ZM124.96,31.91s.03-.07.03-.11c.01,0,.02,0,.04.01-.01.04-.02.07-.03.11-.01,0-.02,0-.04-.01ZM124.88,29.41c-.06.02-.12.03-.21.05.04-.12.07-.22.1-.33h0s-.02,0-.03.01c-.02-.04-.04-.07-.07-.1.02,0,.03-.02.05-.02.01.03.03.07.04.11,0,0,0,0,0,0t0,0s0,0,0,0c.2.08.34.23.37.49-.09-.07-.18-.14-.26-.22ZM124.81,26.41s.01-.04.02-.05c.07.02.14.04.21.07,0,.02-.01.04-.02.05-.07-.02-.14-.05-.21-.07ZM125,24.66c.05-.06.08-.1.13-.15.11.11.22.22.32.31-.03.05-.04.08-.07.13-.13-.11-.25-.2-.37-.29ZM122.28,26.09s-.03.07-.03.11c-.01,0-.02,0-.04-.01.01-.03.02-.07.03-.11.01,0,.02,0,.04.01ZM122.04,25.82s-.02.03-.02.05c-.06-.02-.12-.04-.18-.05.02-.03.03-.06.04-.09.06.03.11.07.16.1ZM121.69,25.45c-.02.07-.03.11-.03.12-.05-.04-.13-.09-.2-.14.02,0,.03-.02.05-.03.06.02.12.04.18.06ZM120.95,25.22s0,.02-.01.04c-.03-.01-.07-.02-.1-.03,0-.01,0-.02.01-.04.03.01.07.02.1.03ZM122.67,29.99s-.02.07-.03.11c-.01,0-.02,0-.04-.01.01-.03.02-.07.03-.11.01,0,.02,0,.04,0ZM122.24,29.14s-.02.07-.03.11c-.01,0-.02,0-.04,0,.01-.04.02-.07.03-.11.01,0,.02,0,.04.01ZM122.71,31.46s0,.02-.01.04c-.03,0-.07-.02-.11-.03,0-.01,0-.02.01-.04.04.01.07.02.11.03ZM122.57,31.41c-.17-.1-.22-.13-.28-.16.04-.07.06-.11.11-.19.06.11.09.18.18.36ZM96.2,25.18s.03.08.05.11c-.02,0-.03.02-.05.03v-.15ZM96.2,25.5c.18-.08.39-.08.62-.14-.18.28-.38.38-.62.4v-.26ZM96.2,49.73c.07,0,.15-.02.2-.01.55.02,1.07-.12,1.07-.12,0,0,.97.03,1.19,0,0,0,.16.06.37.08.22.02.49,0,.67.03.18.02.45.04.58.08.13.04-.12.14-.12.14,0,0,.45.08.58,0,.09-.05-.08.23-.26.3-.18.07.14.07.14.07l-.14.16s.27.13.6.09c.12-.01-.11.19-.11.19l.14-.02-.16.16h.3s-.02.12-.02.12c0,0,.26-.05.35-.13.1-.1-.13.59-.13.59l.18-.09s-.13.31-.14.52c-.02.21-.04.35.02.55.05.21.08.36.13.48.05.12.26.29.41.53.15.24.25.42.49.78.24.36.67,1.15.71,1.32,0,0-.3.09-.44.05-.13-.04-.33-.05-.41-.12-.1-.08-.4-.21-.56-.14,0,0-.31-.16-.55-.17-.14,0-.37.02-.53.14-.16.11-.24.2-.27.38-.02.11.13.03.18,0,.12-.1.26-.16.42-.19.07-.02.3.02.3.02,0,0-.18.15-.21.36-.02.09.05.02.1-.05.06-.07.16-.08.16-.08,0,0-.05.15.04.19.08.04.47.18.47.18,0,0-.02.08.12.13.13.04.61.2.69.25.08.05.1.09.24.14.13.05.18.04.32.16.15.12.33.32.43.38.1.06.1.04.19.14.09.1.39.41.5.48.12.08.34.3.34.3,0,0,0,.07.11.16.1.1.23.19.3.26.06.08-.02.21.31.32,0,0,.13.18.12.28,0,.1.05.15.09.06.04-.09.05-.18.05-.18,0,0,.08-.05.08-.1,0-.05.02-.14.02-.14,0,0,.05.06.15.09.1.04.1.15.22.19.12.04.36.04.36.04,0,0,.06.09.17.12.12.03.18.01.22-.07.04-.08.08-.21.08-.21,0,0,.15.01.25.09.12.09.26.29.31.41.05.11.1.05.07-.05-.02-.08-.09-.43-.34-.56-.13-.07-.37-.1-.37-.1,0,0-.03-.06-.09-.11-.06-.05-.06-.08-.22-.14-.16-.05-.26-.04-.36-.13-.09-.08-.27-.15-.33-.22-.05-.06-.27-.23-.27-.23,0,0,.16,0,.24-.05.08-.05.11-.25.11-.25,0,0,.1-.03.2.05.12.1.15.21.15.28,0,.07.05.08.08,0,.02-.08.07-.3-.08-.44-.13-.13-.37-.11-.37-.11,0,0-.13-.13-.21-.16-.08-.03-.27-.11-.27-.11l.06-.16s.09.01.12.12c.02.07.06.02.06-.04,0-.07-.06-.13-.06-.13,0,0,.1.07.17.09.08.03.26.07.32.14.06.07.28.19.43.24.16.05.3.05.35.02.09-.07.09-.14.09-.14,0,0,.13.02.25.11.11.08.19.28.19.43,0,.12.1.09.11-.06,0-.12.01-.38-.13-.51-.11-.1-.39-.21-.39-.21,0,0-.09-.16-.2-.19-.12-.03-.29-.05-.4-.08-.08-.02-.13-.03-.15-.04-.02-.08-.06-.27-.13-.34-.08-.08-.21-.12-.29-.13l-.04-.05c-.09-.03-.19-.07-.26-.05-.07.03-.17.06-.24.06-.08,0-.13.05-.2.04-.07,0-.26-.07-.26-.07,0,0,.04-.08-.07-.13-.11-.05-.2-.09-.32-.13-.12-.04-.11-.12-.21-.15-.1-.03-.18-.13-.18-.13,0,0,0-.09-.09-.18-.08-.09-.15-.19-.2-.27-.05-.08-.01-.08-.06-.2-.05-.12-.17-.26-.29-.53-.12-.27-.26-.59-.35-.83-.09-.25-.18-.41-.23-.53-.05-.12-.14-.3-.14-.3,0,0,.15-.31.28-.48.13-.16.24-.36.39-.53.15-.17.28-.25.41-.38.13-.14.29-.37.56-.46.21-.07.39-.13.68-.2v.1s.06-.11.06-.11c.07-.02.16-.04.25-.06.05-.02.11-.03.16-.04l.08.19c0-.09,0-.16.01-.21h.03c.02.06.07.15.17.23l-.02-.27h.44c-.09-.02-.18-.05-.25-.07.2-.07.38-.13.57-.19.2-.05.32-.1.45-.17l-.09.28s.18-.23.33-.4c.06-.03.12-.06.19-.1l.05-.03c-.04.14-.08.29-.06.24.02-.08.18-.22.18-.22,0,0-.1.52-.06.4.03-.1.18-.49.36-.66.14-.08.26-.15.43-.25.33-.19.7-.42,1.19-.74.5-.32.76-.47,1.22-.94.46-.47.8-.97,1.06-1.41.27-.44.4-.68.69-1.12.29-.44.53-.79,1.01-1.44.48-.65.97-1.28,1.22-1.72.26-.44.32-.79.47-.95.15-.15.44-.36.74-.48.22-.09.36-.11.48-.13.47-.03,1.31.62,1.83.97.53.35.9.41,1.1.41.19-.01.1-.07.1-.07-.29-.15-1.16-.8-1.46-1.01-.3-.21-.25-.3-.39-.4-.22-.16-.32-.17-.42-.31-.2-.3.06-.24.06-.24,1.13.06,2.13.48,2.74,1.05.08.07.09.02.09.02-.25-.73-1.54-1.49-1.54-1.49-.48-.35-.56-.57-.56-.57,0,0-.11-.07-.17-.16-.07-.08-.14-.14-.33-.32-.19-.19-.43-.42-.68-.57-.24-.14-.66-.28-1.05-.42-.4-.14-.75-.19-1.05-.2-.31-.01-.78.07-1.09.24-.32.17-.65.35-1.09.69-.44.35-.7.58-1.34.99-.64.41-1.66,1.03-2.35,1.33-.69.3-2.21,1.18-2.9,1.48-.69.3-1.45.66-1.74.78-.29.12-.48.29-.84.42-.36.12-.73.26-1.09.36-.37.1-.61.17-.99.32-.37.15-.7.31-1.24.51-.53.2-.81.33-1.26.54-.45.21-.53.29-.84.45-.31.16-.55.27-.76.42-.21.15-.32.29-.53.4-.21.11-.28.11-.51.27-.01.01-.02.02-.04.03v-14.98c2.7-1.64,5.85-2.57,9.17-2.57,1.84,0,3.66.29,5.43.86,4.48,1.45,8.13,4.56,10.28,8.75,2.15,4.19,2.53,8.97,1.08,13.45-2.36,7.31-9.1,12.22-16.78,12.22-1.84,0-3.66-.29-5.43-.86-1.34-.43-2.59-1.03-3.76-1.74v-11.84ZM104.38,46.11c.18-.55.76-.85,1.31-.67.55.18.85.76.67,1.31-.18.55-.77.85-1.31.67-.55-.18-.85-.76-.67-1.31ZM96.2,66.51c.09.03.18.06.26.08-.09,0-.18-.02-.26-.03v-.06ZM96.2,66.84c.47.24.97.41,1.46.59.33.12.68.2,1.01.34.76.3,1.57.4,2.34.63.04.01.08.04.11.03.25-.12.46.08.68.1.23.02.47,0,.68.11.01,0,.05-.03.08-.05-.06-.05-.11-.1-.17-.15.12-.03.21-.02.28.03.41.29.42.29.93.18-.02-.03-.04-.06-.06-.1.02,0,.03-.01.05-.02.01.04.03.07.03.11,0,0,0,0,.01,0,0,0,0,0-.01,0,.1.03.2.08.3.09.03,0,.07-.02.12-.07-.05-.03-.11-.06-.16-.09.01-.02.02-.05.03-.07.06.02.12.05.16.13.02-.01.03-.03.04-.05-.01.03-.02.05-.03.08.1.03.2.07.33.11-.02-.1-.03-.16-.06-.29.2.13.35.22.49.31.18-.02.38,0,.48-.16.09.06.18.16.26.15.32-.04.63.02.94.02.38,0,.76-.03,1.14-.05.31-.01.64.02.93-.06.26-.07.51-.08.78-.09.07,0,.14,0,.2-.02.19-.06.37-.13.56-.19.18-.07.37-.07.56-.09.15-.02.32-.13.5-.18.1-.03.2-.06.31-.08.1,0,.21,0,.24.01.2-.13.34-.22.49-.31.04.06.06.1.09.15.07-.07.12-.16.19-.18.52-.17,1.02-.37,1.51-.59.19-.09.38-.13.55-.28.13-.11.31-.28.55-.16,0,0,0,0,0,0,.07-.32.34-.23.6-.32-.17.29-.34.4-.6.32.02.06.03.13.06.25-.09.02-.19.04-.32.07.1.08.16.12.23.18-.03.05-.07.11-.12.19-.1-.1-.17-.17-.26-.26-.27.15-.59.23-.73.56.08.06.13.1.19.15-.02.05-.04.1-.07.17-.12-.12-.21-.24-.32-.33-.03-.02-.1,0-.19,0,.05.16.1.29.16.47-.08.11-.18.25-.3.4-.06-.12-.1-.19-.13-.26.02-.07.03-.15.07-.21.03-.04.09-.06.13-.09-.05-.09-.07-.15-.1-.18-.1.02-.2.03-.31.04-.03.08-.07.16-.11.24-.08,0-.14,0-.24,0,0,.13.01.26.02.39-.03,0-.05,0-.08.01-.04-.12-.08-.25-.12-.38-.13.05-.26.2-.43.08,0,0,0,0,.01,0-.02-.04-.03-.08-.05-.11-.01,0-.03.01-.05.02.02.03.04.07.06.1,0,0,0,0,.01,0-.01.09-.11.18.05.25.07.03.11.11.17.18h0s0-.02,0-.02c.03-.02.07-.04.1-.06,0,.01.02.03.02.05-.04.02-.08.03-.12.03h0s0,0,0,.02c0,0,0,0,0,0,0,.14.01.27.02.44-.66.06-1.24.28-1.82.5-.16.06-.34.06-.51.11-.44.12-.86.31-1.33.25-.11-.01-.24.04-.36.07-.22.05-.44.13-.66.15-.26.03-.53.02-.81.04.1.28.28.33.49.31.24-.02.49-.1.72-.06.27.04.49-.03.71-.13.02.03.03.07.06.11.18-.05.36-.1.54-.16.03.05.05.09.09.15.04-.06.09-.11.13-.18.25-.02.51-.04.72-.05.16-.08.29-.21.39-.19.17.05.28-.03.42-.08.15-.05.3-.08.46-.12.12-.03.25-.06.39-.1.03.14.06.26.09.38.04,0,.07.01.16.03,0-.07-.07-.13-.06-.18,0-.09.05-.18.09-.27,0,0,0,0,0,0,0,0-.01,0-.02,0-.02-.03-.04-.07-.07-.1.02,0,.03-.02.05-.02.02.04.03.07.03.12,0,0,0,0,0,0s0,0,0,0h0c.15-.04.3-.04.44-.16.18-.15.46-.19.72-.29,0,.23,0,.42.01.6.06-.02.1-.04.16-.06,0,.08,0,.15.01.24.06,0,.12.02.19.02,0-.16,0-.29.01-.48.13.12.2.18.35.31-.06-.21-.09-.32-.11-.4-.15-.06-.27-.1-.42-.15.2-.27.42-.33.68-.26.06-.07.11-.13.18-.21.06.09.08.13.11.18-.1.1-.19.19-.29.28-.03-.05-.06-.09-.1-.15-.03.07-.06.12-.08.16.08.08.15.15.23.23.03-.02.08-.04.12-.05.01.14.03.27.04.41,0,0-.02.02-.04.03-.08-.02-.17-.03-.26-.05-.11.12-.21.23-.32.35-.23-.05-.37.14-.52.17-.16-.05-.27-.09-.38-.12.02-.12.03-.21.05-.36-.13.14-.21.22-.3.32.02.08.03.17.06.29-.1.03-.2.07-.3.09-.2.05-.4.08-.46.33.19.1.38.04.56.02.14-.19.3-.27.55-.27.19,0,.43.12.62-.13.08-.1.32-.07.51-.11-.08.13-.13.23-.18.3.05.06.09.12.13.18.05-.06.11-.12.15-.16.08.08.16.15.23.23-.02.04-.05.09-.07.12-.19-.06-.35-.11-.52-.17.02-.08.04-.13.06-.19-.38-.01-.46.04-.57.41.11-.05.22-.09.32-.14.04.11.07.19.13.34-.4-.08-.61.23-.95.26-.3.03-.59.18-.96.31.05-.15.07-.21.09-.28-.17-.05-.35-.11-.52-.17-.03.09-.07.14-.07.18,0,.1.02.21.03.33-.31.12-.61.23-.94.35-.04-.02-.15-.08-.18-.05-.28.21-.61.15-.92.2-.31.05-.61.14-.92.2-.12.02-.24,0-.36.01-.12.01-.24.02-.36.05-.1.03-.2.13-.29.13-.15,0-.29.24-.43.02-.17.03-.34.06-.54.1-.02.08-.04.17-.07.3.12-.07.21-.11.3-.15.17.32.48.07.69.19.06-.07.1-.13.13-.18.3.03.33.27.41.46-.09.09-.16.16-.25.26.13.07.23.13.27.15-.05.06-.12.13-.17.2-.14-.14-.22-.23-.31-.31.06-.05.1-.07.16-.12-.29-.14-.51-.08-.75.05.07.06.12.1.2.16-.05.12-.1.25-.16.4-.05-.08-.08-.13-.11-.18-.11.08-.21.17-.3.24-.04-.05-.06-.09-.09-.13-.11.17-.2.31-.33.5.19-.04.34-.1.48-.08.14.02.27.12.39.18.09-.06.19-.13.29-.21.04.08.06.11.08.14.06-.06.12-.12.17-.18.02.04.04.08.06.12.08-.01.16-.02.23-.03.05.06.09.1.09.1.18-.06.31-.11.44-.15.03.04.05.09.12.2.14-.07.28-.14.42-.21.02.05.06.13.1.22.13-.09.25-.18.42-.3.04.13.07.21.1.31-.24-.05-.44.14-.71.09-.25-.05-.48.16-.78.07-.2-.06-.46.11-.73.18-.01.05-.03.15-.05.26.26-.04.48-.08.75-.12.15.05.37.08.32.39-.07.03-.14.08-.23.1-.09.02-.21-.15-.28.02-.06.13-.13.07-.22.06-.08,0-.21,0-.25.06-.13.18-.32.17-.51.17-.14,0-.27.01-.43.02-.02.1-.04.2-.07.34.14-.03.22-.05.31-.07.03.12.07.25.13.47.08-.23.12-.36.18-.54.11.11.19.18.26.24,0,0-.01,0-.01,0,.02.04.03.08.05.11.01,0,.03-.02.04-.02-.02-.03-.04-.07-.06-.1,0,0,0,0-.01,0,.14-.17.36-.03.5-.12.04-.06.08-.1.13-.18.04.17.08.29.11.41.43-.02.85-.05,1.24-.07.08-.12.12-.2.17-.27.01.01.02.02.03.03,0,.07,0,.14,0,.18.54-.08,1.06-.15,1.56-.22.1.16.16.26.23.38.09-.03.15-.05.21-.07.03.04.05.08.09.14.06-.11.12-.2.17-.29.02.01.04.02.07.03-.05.14-.09.27-.12.41.06.03.13.07.24.14-.13.09-.22.15-.36.25.06-.18.09-.28.11-.38-.07-.02-.13-.04-.21-.07-.05.15-.09.27-.09.3-.23.12-.39.2-.54.28-.07-.08-.17-.16-.26-.26-.06.11-.11.2-.17.33-.08-.08-.14-.15-.2-.21-.06.09-.12.21-.21.28-.13.11-.27.08-.37-.05.03-.14.05-.26.08-.39-.02,0-.04,0-.06-.02-.05.15-.1.31-.12.36-.2.14-.32.23-.4.29-.24-.05-.34-.16-.31-.36.01-.08.1-.17-.05-.22,0,0,.01,0,.01,0-.02-.04-.03-.08-.05-.11-.01,0-.03.01-.04.02.02.03.04.07.06.1,0,0,0,0,.01,0-.04.22-.08.44-.13.67-.17-.05-.32-.1-.47-.15-.06.07-.1.12-.15.18-.03-.07-.05-.14-.07-.2-.09.03-.18.05-.3.08.02-.07.03-.13.05-.21.09.02.15.04.22.05h0c.15-.13.28-.28.24-.51-.06-.01-.1-.02-.16-.03-.06.14-.11.27-.18.42-.05-.08-.07-.12-.1-.17-.07.04-.13.07-.23.12,0,.1,0,.22,0,.29-.06.06-.13.12-.19.18-.15-.18-.35-.26-.32-.51-.28.05-.6-.17-.82.16.08.08.14.15.25.27-.19.06-.33.11-.47.15-.01-.02-.05-.09-.05-.1.08-.15.14-.26.21-.41-.14.03-.22.04-.28.05-.03-.03-.04-.05-.05-.06-.02-.03-.03-.07-.05-.1-.3.19-.31.2-.21.45.06.16.07.28-.05.4-.04-.12-.08-.22-.1-.33-.02-.14-.03-.28-.04-.39-.17-.06-.32-.1-.46-.15-.05.07-.09.13-.13.17-.47-.18-.92-.2-1.4-.12-.02-.02-.04-.07-.04-.06-.16-.02-.28-.07-.39-.04-.12.03-.22.14-.33.22-.08-.19-.26-.17-.43-.22-.07.07-.15.13-.3.28.5-.13.8.24,1.29.1,0,.11,0,.2,0,.29.02,0,.05,0,.07-.02.03-.08.06-.16.1-.26.14,0,.29-.02.4-.02-.1.25-.19.47-.28.7.03,0,.05,0,.08,0,.01.07.02.14.03.21.02,0,.05,0,.08,0,.03-.1.07-.2.11-.31.05-.02.1-.02.12-.05.06-.15.12-.29.17-.44.02,0,.05.02.07.03-.07.2-.13.41-.2.61.03,0,.05,0,.08,0,0,.07.02.14.03.21.25-.16.41.06.61.04.04-.05.08-.11.11-.14.16.01.31.06.44.03.21-.05.28.12.4.21.07-.1.14-.19.23-.31.05.09.08.14.09.15.16,0,.29,0,.43,0,.06-.12.11-.25.17-.39.05.16.09.29.13.42.17-.09.3-.16.4-.21.11.03.19.06.33.11-.15.13-.25.21-.33.28,0,.11,0,.18.01.25-.1.01-.19.03-.27.04-.02.08-.05.15-.07.22-.14.02-.28.03-.41.05-.08-.02,0-.2-.13-.14-.03.09-.07.17-.1.24-.53-.07-1.03,0-1.56.13-.09-.03-.23-.08-.39-.13-.15.07-.31.14-.45.17.06.2.12.36.17.53-.02.01-.04.03-.05.04-.08-.08-.16-.16-.22-.23.04-.12.07-.21.1-.29-.14-.14-.38.07-.53-.21-.08.07-.15.15-.19.18-.11-.08-.18-.13-.24-.17-.07.09-.11.14-.15.2-.03-.06-.06-.1-.04-.06-.54-.12-1.05-.1-1.49-.32-.18.06-.35.11-.56.18.12.17.2.29.3.43-.12.01-.23.04-.32.03-.15-.02-.31-.15-.42-.11-.34.12-.48-.12-.75-.35.23.08.38.01.55.09.16.07.36.08.54.11,0,0,0,0-.01,0,.02.04.03.07.05.11.02,0,.03-.02.05-.02-.02-.03-.04-.07-.06-.1,0,0-.01,0-.01,0-.01-.07-.03-.13-.05-.2.04-.03.09-.05.12-.07-.03-.08-.06-.15-.08-.19-.44.04-.83-.12-1.23-.15-.43-.03-.8-.21-1.21-.25-.41-.05-.81-.3-1.22-.3-.18,0-.35-.05-.51-.1v-11.66ZM96.56,66.75c.28.09.56.18.83.27-.01.03-.02.06-.03.09-.26-.08-.52-.17-.78-.26-.01,0,0-.05-.02-.1ZM98.33,67.5s.02-.04.02-.05c.09.03.19.06.28.09-.01.03-.02.06-.03.09-.09-.05-.18-.09-.27-.13ZM100.4,67.99c.29.09.46.15.62.2-.19.02-.38.01-.62-.2ZM101.39,68.27s.02-.06.03-.09c.13.05.26.1.38.15,0,.02-.02.04-.02.06-.13-.04-.26-.08-.39-.13ZM105.5,68.64s0-.02,0-.04c.04.01.07.02.11.03,0,.01,0,.02,0,.04-.04-.01-.07-.02-.11-.03ZM112.82,66.2s.02-.07.03-.11c.01,0,.02,0,.04.01-.01.04-.02.07-.03.11-.01,0-.02,0-.04,0ZM116.34,68.24c-.04.18-.07.33-.1.47.07.04.12.06.16.09-.05.15-.09.28-.13.41-.06-.07-.11-.12-.15-.17,0,0,0,0,.01,0-.02-.04-.03-.07-.05-.11-.02,0-.03.02-.04.02.02.04.04.07.06.11,0,0,0,0,.01,0-.02.05-.03.11-.05.16-.26,0-.48.11-.63.33-.05-.09-.1-.19-.15-.28-.07.03-.13.07-.2.1.07.43-.01.49-.47.36.08-.24.16-.48.23-.73-.19-.11-.03-.21.02-.36.22-.02.46-.04.73-.07.22-.08.42-.29.76-.31ZM115.73,66.37c.17-.23.27-.33.48-.25-.04.24-.19.25-.48.25ZM116.4,66.18c-.05-.09-.09-.15-.13-.21.12-.02.23-.03.34-.05.01.03.03.05.04.08-.09.06-.17.12-.25.18ZM116.63,68.89s0,.02-.01.04c-.04-.01-.07-.02-.11-.03,0-.01,0-.02.01-.04.03.01.07.02.11.03ZM116.45,66.43c-.02.07-.05.14-.07.21-.02,0-.04,0-.06-.01.02-.07.05-.14.07-.21.02,0,.04.01.06.02ZM114.89,70.88s-.02,0-.04-.01c.01-.03.02-.07.03-.11.01,0,.02,0,.04.01-.01.04-.02.07-.03.11ZM114.9,71.73c-.05.1-.09.19-.17.34-.01-.19-.02-.3-.03-.42.07.02.12.04.2.07ZM114.65,70.47c-.06.03-.13.07-.19.1,0-.02.03-.09.05-.17.07.04.11.06.13.07ZM115.1,67.53s.02-.07.03-.11c.01,0,.02,0,.04.01-.01.03-.02.07-.03.1-.01,0-.02,0-.03,0ZM115.67,67.36s-.02,0-.03-.01c.01-.04.02-.07.03-.11.01,0,.02,0,.03,0-.01.04-.02.07-.03.11ZM113.1,68.52s.04.07.06.1c-.01,0-.03.02-.04.02-.02-.04-.03-.07-.03-.12-.02.01-.05.02-.07.04-.02-.09-.05-.18-.08-.3.07.02.13.03.21.05-.02.09-.04.15-.07.22,0,0,.02-.01.03-.02ZM112.67,68.63c-.03.1-.07.21-.1.32-.02,0-.03-.01-.05-.02.03-.11.07-.21.1-.32.02,0,.03,0,.05.02ZM113.31,76.71c.04-.17.06-.27.08-.37.2,0,.42-.15.61.13-.21.07-.4.13-.69.23ZM113.94,78.95c-.02.07-.05.14-.07.21-.02,0-.04-.01-.05-.02.02-.07.05-.14.07-.22.02,0,.03.01.05.02ZM112.26,76.94s0,.03.01.05c-.08.02-.15.05-.28.09.06-.18.1-.3.14-.43.06-.03.12-.06.19-.1.03.05.05.09.07.12.1,0,.19,0,.26-.03.07-.03.11-.11.22-.22-.06.19-.1.31-.16.49-.15,0-.31.02-.46.02ZM112.58,79.1s-.02.07-.03.1c-.01,0-.02,0-.03-.01.01-.03.02-.07.03-.1.01,0,.02,0,.04.01ZM111.48,75.2c-.08,0-.14.01-.22.05-.33.15-.67.32-1.05.12-.24.48-.75.1-1.04.37-.03-.05-.06-.09-.09-.15-.11.09-.21.17-.31.25-.08-.33-.06-.5.08-.56.03.04.05.09.04.06.46.11.8-.17,1.23-.15.38.02.77-.2,1.25-.23.3-.27.79-.08,1.25-.22-.04.06-.08.18-.12.18-.2,0-.34.24-.55.12-.09.23-.29.14-.45.15ZM111.63,76.63q-.3-.08-.23-.18s.1.08.23.18ZM109.24,73.4c-.32.29-.83.36-.95.13.03-.1.07-.21.1-.33.24-.04.45-.07.65-.1.04.06.06.11.09.16.11,0,.1-.27.29-.14.11-.16.18.09.3.02.02-.07.05-.15.07-.23.32.03.49.24.78.46-.25.04-.4.06-.54.08-.04-.07-.06-.12-.09-.16-.2.08-.32.33-.54.27-.07-.07-.12-.12-.17-.17ZM109.4,73.65c-.06.2-.11.34-.14.44-.05-.05-.1-.11-.14-.15.1-.1.17-.17.28-.29ZM108.81,73.99s-.02.07-.03.11c-.01,0-.02,0-.04-.01.01-.03.02-.07.03-.11.01,0,.02,0,.04.01ZM111.35,73.18c-.09-.03-.25-.08-.41-.14,0,.08.02.14.03.19-.07.03-.13.06-.17.08-.15-.14-.29-.25-.43-.38.01-.02.03-.05.04-.07.13.04.27.08.4.13.07-.12.11-.22.17-.32.06.11.11.21.17.3.24-.31.63-.28.94-.44.02.15.04.26.05.37-.25.09-.49.17-.78.28ZM111.65,74.32s-.02.07-.03.11c-.01,0-.02,0-.03,0,.01-.04.02-.07.03-.11.01,0,.02,0,.03,0ZM110.45,74.8s0,.03-.01.03c-.14.01-.28.02-.42.03,0-.03,0-.06-.01-.1.14-.02.28-.04.4-.05.03.06.04.08.05.09ZM112.18,72.44s0-.02.01-.03c.03.01.07.02.1.03,0,.02,0,.03,0,.04-.04-.01-.07-.02-.11-.04ZM112.57,72.75c.05-.14.08-.24.12-.36.05.08.07.12.09.15.11,0,.21-.01.32,0-.02.06-.04.11-.06.18-.14,0-.29.02-.46.03ZM112.83,74.7s-.02.07-.03.11c-.02,0-.02,0-.04-.01.01-.04.02-.07.03-.11.01,0,.02,0,.03.01ZM113.15,79.01c-.12.02-.23.05-.34.07.09-.12.2-.29.34-.07ZM113.14,77.03s-.03-.02-.05-.02c.02-.06.04-.12.06-.18.03,0,.06.02.09.03-.03.06-.07.12-.1.17ZM113.2,72.22s-.01,0-.02,0c-.02-.03-.04-.06-.06-.1.02,0,.03-.02.04-.02.02.04.03.07.03.12h0s0,0,.01,0c0,0,0,.01,0,.02.1.15.06.25-.1.28.03-.09.06-.18.1-.28,0,0,0,0,0-.01ZM113.57,74.63c-.14.05-.22.08-.29.11-.02-.03-.03-.06-.05-.09.02-.04.05-.09.08-.16.07.04.13.07.25.14ZM113.44,72.3s.02-.07.03-.1c.01,0,.02,0,.04.01-.01.03-.02.07-.03.11-.01,0-.02,0-.04-.01ZM113.21,79.11s.07.02.11.04c0,.01,0,.02-.01.04-.03-.01-.07-.02-.11-.03,0-.01,0-.02.01-.04ZM113.35,85.73s.03.01.05.02c-.02.06-.04.12-.06.18-.03,0-.06-.02-.09-.03.03-.06.06-.11.1-.17ZM113.83,72.19s.02-.07.03-.11c.01,0,.03,0,.04.01-.01.03-.02.07-.04.11,0,0-.02,0-.03-.01ZM108.36,76.6s0,.02-.01.04c-.03-.01-.07-.02-.11-.04,0-.01,0-.02.01-.03.03.01.07.02.11.03ZM111.71,77.91s0,.03-.01.04c-.04,0-.07-.02-.11-.03,0-.01,0-.02.01-.04.03.01.07.02.11.04ZM110.83,78.09c-.03.05-.07.11-.1.16-.02,0-.03-.02-.05-.02.02-.06.04-.12.05-.18.03.01.06.03.09.04ZM110.13,78.32c-.05-.04-.11-.07-.16-.1,0-.01.02-.03.02-.05.06.02.12.04.18.06-.01.03-.02.06-.04.09ZM110.34,86.13c-.05.16-.08.24-.14.43-.09-.13-.13-.19-.19-.28.12-.06.2-.09.33-.15ZM109.53,79.9c-.09-.13-.22-.23-.07-.38.09.08.16.16.31.31-.13.04-.19.06-.24.07ZM109.65,84.88s-.02.07-.03.11c-.01,0-.02,0-.03-.01.01-.04.02-.07.03-.11.01,0,.02,0,.03.01ZM109.44,86.34c-.04.12-.07.21-.13.38-.05-.17-.09-.28-.13-.42.11.02.17.02.26.04ZM109.27,85.23s.02-.07.03-.11c.01,0,.02,0,.04.01-.01.03-.03.07-.04.11-.01,0-.02,0-.03-.01ZM109.05,86.49s0,.02-.01.04c-.04-.01-.07-.02-.11-.04,0-.01,0-.02.01-.04.03.01.07.02.11.03ZM108.98,85.02s.02-.07.03-.11c.01,0,.02,0,.03.01-.01.04-.02.07-.03.11-.01,0-.02,0-.03,0ZM108.68,87.05s.03.07.02.12c0,0,.02,0,.03-.01.02.03.04.07.06.1-.01,0-.03.02-.04.02-.02-.04-.03-.07-.02-.12,0,0-.02,0-.03.02-.02-.04-.04-.07-.06-.11.02,0,.03-.01.04-.02ZM108.66,85.62c.02-.07.05-.14.07-.21.02,0,.04.01.05.02-.02.07-.04.14-.07.21-.02,0-.03-.01-.05-.02ZM108.76,79.87s.02-.07.03-.11c.01,0,.02,0,.03.01-.01.03-.02.07-.03.11-.01,0-.02,0-.04-.01ZM108.23,81.74c.07.02.14.05.21.07,0,.02-.01.03-.02.05-.07-.02-.14-.05-.21-.07,0-.02.01-.03.02-.05ZM108.19,80.16s.02-.07.03-.11c.01,0,.02,0,.03.01-.01.04-.02.07-.03.11-.01,0-.02,0-.03-.01ZM108.38,80.18s0-.02.01-.04c.04.01.07.02.11.04,0,.01,0,.03-.01.03-.04,0-.07-.02-.11-.03ZM108.02,81.52s-.02.07-.03.11c-.01,0-.03,0-.03-.01.01-.04.02-.07.03-.11,0,0,.02,0,.03,0ZM107.33,81.3c.07.14.14.26.2.37-.03.11-.07.22-.12.38-.05-.07-.06-.12-.1-.15-.03-.03-.08-.06-.14-.09.06-.19.11-.34.16-.5ZM107.13,80.28s-.03-.02-.05-.02c.02-.06.04-.12.06-.18.03.02.06.03.09.04-.03.05-.07.11-.1.16ZM107.47,78.5s-.03-.02-.05-.02c.02-.06.04-.12.06-.18.03.01.06.02.09.04-.03.05-.06.11-.09.16ZM107.55,80.07s-.02.07-.03.11c0,0-.02,0-.03-.01.01-.03.03-.07.03-.11.01,0,.02,0,.03.01ZM107.51,80.75s.03-.06.04-.09c.05.03.11.07.16.1,0,.02-.02.03-.02.05-.06-.02-.12-.04-.18-.05ZM107.68,82.83s.02,0,.03.01c-.01.04-.02.07-.03.11-.01,0-.02,0-.03-.01.01-.04.02-.07.03-.11ZM107.65,80.06c.13-.03.21-.05.27-.07q-.02.17-.27.07ZM107.72,78.81c.03.12.05.23.07.34-.12-.08-.3-.2-.07-.34ZM106.78,77.76c-.05.17-.08.26-.12.38-.08-.04-.13-.08-.23-.13.12-.08.21-.15.35-.25ZM104.98,77.81c.29.24.12.41.08.59-.03,0-.07-.01-.11-.02.03-.08.07-.16.08-.25,0-.09-.02-.18-.05-.33ZM104.85,77.94s0,.02-.01.03c-.03,0-.07-.02-.11-.03,0-.01,0-.02.01-.04.04.01.07.02.11.03ZM104.73,78.21s-.02.07-.03.11c-.01,0-.02,0-.04-.01.01-.04.02-.07.04-.11.01,0,.02,0,.03,0ZM103.77,78.38s-.01,0-.02,0c-.02-.03-.04-.07-.06-.1.01,0,.03-.01.04-.02.02.04.03.08.03.12,0,0,0,0,0,0ZM106.92,79.89c-.04.13-.08.25-.12.38-.13.01-.23.02-.33.02,0-.03-.01-.05-.02-.08.08-.03.16-.07.3-.13.03-.06.07-.14.12-.22.02,0,.03.02.05.03ZM105.89,80.26c.11-.16.2-.28.27-.38.1.03.18.06.27.09-.03.08-.05.15-.09.27-.15,0-.29.02-.45.03ZM106.28,80.72s-.02.07-.03.11c-.01,0-.02,0-.04-.01.01-.04.02-.07.03-.11.01,0,.02,0,.04.01ZM106.42,80.53s.02,0,.04.01c-.01.04-.03.07-.03.11-.01,0-.02,0-.04,0,.01-.04.02-.07.03-.11ZM105.77,80.09s-.02.07-.03.11c-.01,0-.02,0-.03-.01.01-.04.02-.07.03-.11.01,0,.02,0,.03.01ZM105.4,80.22c-.02.06-.04.12-.06.18-.03-.01-.06-.02-.09-.04.03-.05.06-.11.1-.17.02,0,.03.02.05.03ZM105.14,80.3s-.03.02-.05.03c-.04-.02-.08-.03-.14-.05.04-.14.09-.27.16-.5.02.26.03.39.04.52ZM104.92,79.87c-.05.17-.09.26-.12.37-.07-.02-.11-.04-.2-.07.12-.11.19-.18.32-.3ZM104.25,80.64c.07.04.12.07.21.12-.1.06-.17.11-.31.2.06-.17.08-.24.1-.32ZM103.96,80.41c.07-.23.11-.36.16-.51.08.04.13.07.21.12-.12.12-.22.22-.38.39ZM103.55,80.71c-.13.03-.21.05-.27.07q.02-.17.27-.07ZM103.21,80.16c.08-.08.16-.15.28-.27-.06.18-.1.3-.16.5-.05-.1-.09-.16-.12-.23ZM103.17,80.11c-.15.1-.24.16-.32.22-.03-.05-.05-.1-.08-.15-.06.03-.1.05-.2.09.05-.16.08-.24.12-.36.15.06.28.11.48.19ZM102.43,79.97c-.05.13-.1.26-.19.46-.03-.2-.04-.31-.06-.41.02.02.04.05.06.07.04-.06.08-.12.12-.18.02.02.04.04.06.06ZM101.69,79.85c.13.04.25.08.38.12-.03.1-.06.18-.1.31-.3-.12-.58-.17-.83-.29.15-.08.26-.14.38-.2v.25c.07-.08.13-.14.17-.19ZM100.83,79.67s-.02.07-.03.11c-.01,0-.02,0-.04-.01.01-.03.02-.07.03-.11.01,0,.02,0,.03.01ZM98.64,79.57s-.02.06-.03.09c-.05-.03-.11-.06-.17-.1,0-.02.02-.03.02-.05.06.02.12.04.18.05ZM97.72,79.16c-.02.06-.03.11-.06.18-.14-.05-.27-.09-.41-.13.02-.06.04-.11.06-.18.14.05.27.08.41.13ZM96.52,78.91s0,.02-.01.03c-.04-.01-.07-.02-.11-.03,0-.01,0-.02.01-.04.04.01.07.02.11.04ZM96.2,79.25c.09.09.12.23.28.13.23.15.52.06.76.18.18.09.39.14.59.19.08.02.17,0,.19,0,.15.07.25.13.36.18.05.02.11,0,.16,0,.16.03.32.06.48.1.17.04.33.12.53.06.06-.02.17.1.25.15.24-.08.52.2.79-.04-.03.1-.06.2-.09.29,0,0,0,0,0,0-.19,0-.38,0-.67,0,.2.09.33.14.45.19-.01-.03-.02-.06-.03-.09.1,0,.19,0,.29-.01-.01-.02-.02-.05-.03-.07.11-.04.23-.08.31-.1.14.04.26.08.37.12,0,.08-.01.13-.02.23.23,0,.45.02.8.04-.25-.12-.39-.18-.6-.28.35-.02.61-.03.89-.05-.02.13-.03.23-.05.36.27.08.52.24.79.03-.14-.06-.28-.12-.42-.18.03-.07.04-.11.06-.15.14.04.28.09.42.13-.02.06-.03.1-.06.18.16.07.33.14.54.23.04-.02.14-.06.17-.05-.04-.09-.07-.18-.09-.24.11-.11.18-.17.17-.17.06.04.15.1.22.15-.11.1-.18.15-.23.22.07.02.13.04.2.07-.04.12-.07.21-.1.3-.33.02-.66.06-.98.05-.23,0-.46-.11-.68-.08-.18.03-.32,0-.47-.05-.02,0-.05.03-.09.06.11.12.21.24.3.34.14-.02.27-.04.4-.06.15.29.44.22.62.16.24-.08.44-.12.64-.02.07-.09.11-.14.17-.23.11.1.19.19.29.26.02.01.06,0,.1-.03,0-.09-.01-.18-.01-.28-.03,0-.06.02-.09.03.06-.16.12-.32.18-.47.09.08.15.13.21.19.08-.09.13-.15.2-.23.07.08.11.14.18.23.11-.08.25-.17.35-.25.11.11.19.18.26.26-.12.03-.23.06-.35.1-.11.04-.23.08-.34.13-.05-.08-.07-.13-.1-.17-.12.06-.23.12-.35.17-.03.09-.06.18-.09.27.05.02.11.04.17.05.05-.06.11-.12.18-.2,0,.09,0,.16,0,.23.23.21.49.07.74.06.03.04.06.08.1.14.06-.16.1-.28.12-.32.16-.1.27-.16.38-.23.03.06.06.12.09.17-.06.08-.12.15-.23.29.31.02.53.02.72.03.05-.08.08-.12.1-.13.1.07.18.12.57.13-.1.06-.14.09-.15.08-.03-.02-.07-.04-.09-.06-.02,0-.03.01-.06.02-.16.16-.34.19-.58.19-.4,0-.81.15-1.21.23.09.21.17.39.27.62,0,0-.01.09-.05.15-.03.05-.09.07-.14.1.02.03.03.05.05.08.09-.04.18-.09.31-.16.07.03.19.08.31.13,0,.02-.01.03-.02.05-.05,0-.1,0-.18-.01-.08.09-.18.21-.28.33.13.07.23.12.29.15.01.14.02.22.03.31-.07.03-.12.06-.18.09-.08-.16-.17-.31-.27-.5-.15.1-.26.18-.39.28-.06,0-.16-.02-.28-.04-.04.14-.08.26-.13.41-.04-.07-.07-.12-.1-.16-.15.1-.31.21-.47.32-.14-.05-.28-.09-.41-.13-.27.07-.52.13-.79.2-.02-.04-.05-.08-.06-.11-.23-.04-.44-.08-.65-.11-.22-.03-.45-.03-.68-.05-.19-.01-.4.09-.55-.11-.24.13-.46-.11-.68-.05-.25.07-.42-.12-.66-.12-.15.18-.22,0-.29-.09-.13.02-.25.05-.43.07-.16-.05-.37-.14-.59-.18-.19-.04-.39.02-.58-.07-.2-.09-.43-.14-.64-.21-.18.24-.29-.14-.5-.06-.05.02-.1.02-.15.01v-4.27ZM107.02,82.87c-.02.06-.04.12-.06.18-.03-.01-.06-.03-.09-.04.03-.05.07-.11.1-.16.01,0,.03.02.05.02ZM106.75,82.89c-.06.06-.12.13-.18.19-.01-.02-.03-.04-.04-.05.02-.06.04-.12.06-.18.06.02.11.03.15.05ZM106.45,82.73c-.02.12-.03.18-.04.26-.12-.04-.22-.07-.38-.12.17-.06.28-.09.42-.14ZM105.24,84.28s-.02.07-.03.1c-.01,0-.02,0-.03-.01.01-.04.02-.07.03-.11.01,0,.03,0,.04.01ZM96.2,83.94c.11.02.22.02.32.06.18.07.39,0,.55.11.22.14.47.03.69.1.07.02.13.06.19.1.21.13.41.26.62.39.01,0,.03,0,.06,0,.04-.05.08-.1.13-.16.12.03.27.11.36.07.14-.07.21.18.35.03.02-.02.2.1.31.16.17-.04.37-.09.56-.14.06.08.1.14.17.23.12-.05.23-.11.35-.16.14.04.28.09.4.13.13-.05.25-.1.35-.14.08.1.13.16.18.22.09-.03.15-.05.2-.06.03.06.04.09.06.12.45-.26.88-.07,1.28.06.11-.05.19-.1.3-.15.38.29.84.12,1.27.15.05-.06.09-.11.14-.18.08.08.14.14.18.18.12-.04.24-.08.36-.12.05.12.08.21.11.3,0,0,0,0-.01,0,.01.04.03.07.05.11.01,0,.03-.01.05-.02-.02-.03-.04-.07-.06-.1,0,0-.01,0-.01,0,.02-.05.03-.1.05-.16.13-.02.27-.04.39-.06.05.06.09.11.13.16.05-.07.1-.13.14-.19.03.06.06.11.08.13.18-.02.37-.09.51-.04.32.12.43-.06.51-.31.08.08.13.13.19.19.13-.05.24-.1.35-.15.08.07.13.13.2.21,0,0,0-.02-.01-.03.03-.02.07-.04.1-.06,0,.01.02.03.02.04-.04.02-.07.03-.12.03.04.06.08.11.14.21.07-.15.11-.24.17-.35.07.04.13.07.18.1-.1.17-.18.32-.23.77-.06-.1-.09-.13-.09-.15.02-.04.04-.07.06-.09,0-.02-.01-.03-.02-.06-.05-.05-.09-.1-.13-.15-.2.14-.32,0-.44-.14-.19.11-.38.23-.62.37,0,.01-.04.1-.09.2-.31-.15-.59.25-.9.05,0-.08-.01-.15-.03-.31-.1.23-.16.35-.21.48-.02,0-.03-.01-.05-.02.01-.11.03-.23.04-.32h-.46c-.04.12-.08.24-.12.37-.09-.03-.17-.03-.22-.08-.07-.05-.11-.13-.15-.17-.14.02-.25.04-.34.05-.12.18-.25.37-.36.53-.08-.07-.14-.12-.19-.16-.12.1-.21.18-.29.25-.18,0-.33-.16-.5-.03-.05-.09-.1-.18-.16-.29-.13.27-.38.23-.52.27-.26-.04-.46-.07-.65-.1-.21-.04-.42-.09-.64-.11-.19-.02-.38,0-.57,0-.21,0-.42-.02-.63-.02-.01.04-.03.08-.04.12-.21-.11-.42-.23-.68-.36-.12.03-.3.09-.48.14-.34-.06-.64-.28-1-.19-.03-.05-.06-.1-.08-.14-.41.16-.74-.32-1.16-.15-.19-.06-.38-.12-.57-.19v-1.43ZM108.56,86.56c-.03.05-.07.11-.1.16-.02,0-.03-.02-.05-.02.02-.06.04-.12.06-.18.03.01.06.02.09.04ZM108.05,86.92c0-.26,0-.44,0-.71.24.28.13.45,0,.71ZM107.84,86.53c-.04.12-.07.21-.12.38-.05-.17-.09-.27-.14-.41.11.02.18.02.26.03ZM107.39,86.75c-.13-.17-.14-.31.01-.47.14.18.13.33-.01.47ZM106.64,86.79c-.34.02-.27-.09-.19-.19.05.05.11.11.19.19ZM106.27,86.26c-.02.07-.05.14-.07.21-.02,0-.03-.01-.05-.02.02-.07.05-.14.07-.21.02,0,.03,0,.05.02ZM105.87,87.22c-.03.06-.07.11-.1.17-.02,0-.03-.01-.05-.02.02-.06.04-.12.06-.18.03.01.06.02.09.04ZM105.54,86.51s-.02,0-.03-.02c0,0,0,0-.01,0,0,0,0,0,0,0-.08-.03-.13-.05-.18-.07.03-.11.07-.2.13-.4.05.22.08.34.05.48h0s.01,0,.02,0c0,0,.01.01.02.02,0,0,.01,0,.02.01,0,0-.01,0-.01,0,.01.02.03.04.04.06-.01,0-.03.02-.05.02-.01-.03-.03-.06,0-.08,0,0,0,0,0-.02ZM105.22,86.32s0,.02-.01.03c-.03,0-.07-.02-.11-.03,0-.01,0-.02.01-.04.04.01.07.02.11.03ZM104.76,86.28c-.03.05-.07.11-.1.16-.02,0-.03-.02-.05-.02.02-.06.04-.12.06-.18.03,0,.06.02.09.04ZM106.26,88.3c-.1.02-.19.09-.3.14-.06-.08-.1-.14-.14-.19-.07.03-.13.09-.2.1-.33.04-.66.08-.98.1-.24.02-.5.05-.72,0-.22-.06-.44-.11-.63-.06-.24.07-.46-.14-.68,0-.27-.16-.55.12-.84-.03-.49-.26-1.07-.03-1.58-.25-.76.09-1.47-.19-2.21-.27-.34-.04-.67-.19-1-.18-.28.01-.51-.05-.73-.15-.02,0-.03,0-.05-.01v-1.84c.1,0,.21,0,.33-.01.22.19.45.25.77.24.3-.02.6.16.9.22.27.06.55.07.86.11.02.02.06.08.11.14.07,0,.22-.04.22-.02.06.14.12.06.21.04.08-.02.17-.01.26-.02,0,.01.02.03.02.04.11,0,.2,0,.3-.01,0-.02,0-.04-.01-.06.13.04.28.05.33.26.1-.07.19-.13.26-.19.24.08.45.15.65.21.19-.05.37-.11.44-.12.23.09.37.15.5.2.06-.09.1-.14.14-.2.05.07.09.12.12.17.1-.02.17-.03.25-.04-.01.09-.02.14-.02.21.25-.08.48-.15.71-.22.02.03.04.08.04.06.24.02.44.05.66.07.02-.05.07-.14.12-.24.05.12.1.21.14.3.19-.09.36-.16.53-.23.14.12.25.22.34.29-.01.21-.02.37-.03.6-.14-.13-.21-.2-.28-.27-.17.32-.08.67-.19,1.03.23,0,.44.02.65.03.06-.13.12-.26.18-.4.05.08.07.13.1.18q.3-.02.8.34c-.14-.02-.25-.05-.35-.04ZM106.61,87.5c-.08,0-.15-.01-.2,0-.09.03-.16.09-.25.12-.04.01-.09-.03-.17-.05.05-.12.08-.21.12-.32.12.04.2.07.24.08.12-.07.19-.12.27-.16.02.02.03.04.05.05-.04.05-.08.11-.11.16.02.04.04.07.06.12ZM106.79,86.68s.03.02.05.02c-.02.06-.04.12-.06.18-.03-.01-.06-.03-.09-.04.03-.05.06-.11.1-.16ZM106.75,87.4s.07.02.11.03c0,.01,0,.02-.01.04-.03-.01-.07-.02-.11-.04,0,0,0-.02.01-.03ZM107.27,87.98c-.03.1-.06.19-.09.29-.09.03-.19.07-.31.11-.02-.08-.03-.13-.04-.18.14-.07.26-.14.39-.24.1-.08.2-.16.33-.27.03.16.05.26.07.4-.15-.05-.25-.08-.36-.11ZM109.6,88.15c-.12-.04-.21-.07-.42-.14-.29.02-.51.03-.67.05-.15.11-.24.18-.3.22-.17-.05-.28-.09-.52-.17.2,0,.26,0,.39,0,.05-.14.08-.26.13-.42.12.09.2.17.32.26.04-.05.08-.1.14-.17.11-.02.25-.04.32-.05.08.08.13.15.22.24.2-.12.33-.19.46-.27.01.02.03.04.05.06-.06.07-.11.15-.16.21.02.05.03.09.05.16ZM109.73,86.53s-.06-.02-.09-.04c.03-.05.07-.11.1-.17.02,0,.03.02.05.03-.02.06-.04.12-.06.18ZM109.83,87.04c.02-.07.03-.11.05-.16.06.06.13.12.19.18-.02.01-.03.02-.05.04-.06-.02-.12-.04-.18-.06ZM110.4,88.11c-.09-.09-.15-.15-.22-.21-.03.01-.08.03-.18.08.05-.14.09-.24.13-.35.07.08.11.14.18.22.09-.1.14-.16.26-.29-.08.24-.12.37-.18.55ZM110.55,86.23s0,0,0,0c0,0,0,0,0,0t0,0s0,0,0,0c.04-.06.07-.12.1-.19.02,0,.04.02.07.03-.03.07-.05.13-.17.15h0s0,0,0,.01c.03.01.06.02.08.03-.03,0-.06,0-.08-.01-.03.02-.07.04-.1.06,0-.02-.02-.03-.02-.05.03-.01.06-.02.12-.02,0,0,0,0,0,0,0,0,0,0,0-.02ZM110.46,84.77s.03-.06.04-.09c.05.03.11.07.16.1-.01.02-.02.03-.02.05-.06-.02-.12-.04-.18-.05ZM111.03,87.92c-.05-.06-.07-.1-.08-.12-.11.08-.21.15-.36.26.08-.24.13-.41.2-.62.09.09.15.15.21.22.05-.05.1-.11.14-.15.17.05.33.1.51.17-.23.1-.5,0-.62.25ZM111.01,86.03s.03.01.05.02c-.03.11-.07.21-.1.32-.02,0-.03-.01-.05-.02.03-.11.07-.21.1-.32ZM110.99,79.88s.02-.07.03-.11c.01,0,.02,0,.03.01,0,.03-.02.07-.03.11-.01,0-.02,0-.03-.01ZM111.43,79.58c-.13-.04-.28-.09-.37-.12-.16.11-.28.19-.39.27-.05.11-.1.22-.16.34-.02,0-.05-.02-.08-.03.04-.13.09-.27.13-.39-.12-.06-.21-.11-.29-.15,0-.02.02-.05.03-.07.13.04.26.08.4.13.1-.31.36-.21.52-.28.05.05.09.11.14.16.13-.09.25-.17.38-.27.02.26-.11.35-.31.42ZM111.74,87.56s-.02,0-.03-.01c.01-.04.02-.07.03-.11.01,0,.02,0,.03.01-.01.03-.02.07-.03.11ZM111.75,84.26s-.03-.01-.05-.02c.02-.07.05-.14.07-.21.02,0,.04.01.05.02-.02.07-.05.14-.07.22ZM111.83,79.27c.09-.07.18-.14.25-.19.1.1.17.17.24.25-.03.05-.06.09-.1.14-.03-.06-.06-.11-.08-.14-.07.01-.14.03-.21.03-.02,0-.05-.05-.1-.09ZM112,87.6c.08-.18.12-.28.18-.43.1.1.15.16.21.22.04-.05.09-.1.13-.15.05.05.11.12.18.18.07-.08.13-.14.2-.21.05.04.1.07.17.12-.3.36-.68.13-1.07.27ZM113.35,87.38c-.08-.05-.13-.08-.23-.13.12-.09.21-.15.35-.25-.06.17-.09.26-.12.38ZM113.5,79.02c.02-.06.04-.12.06-.18.03.02.06.03.09.04-.03.05-.06.11-.1.16-.01-.01-.03-.02-.05-.02ZM113.76,87.26s-.05-.04-.12-.1c.11-.08.21-.15.39-.28.05.34-.12.35-.27.37ZM114.11,74.41s-.04-.01-.06-.02c.02-.07.05-.14.07-.21.02,0,.04.01.06.02-.02.07-.05.14-.07.22ZM114.24,85.66s-.02,0-.04-.01c.01-.04.02-.07.03-.11h.04s-.02.08-.03.12ZM114.52,74.08s.03.02.05.02c-.02.06-.04.12-.06.18-.03-.01-.06-.02-.09-.03.03-.06.06-.11.1-.17ZM114.55,87.21c-.04-.16-.07-.25-.1-.4.16.05.26.09.42.14-.11.1-.19.16-.31.27ZM114.99,76.4c-.03-.22-.23-.32-.15-.52.29.07.31.1.15.52ZM114.96,71.62s.02-.07.03-.11c.01,0,.02,0,.04.01-.01.04-.02.07-.03.11-.01,0-.02,0-.04-.01ZM115.11,70.68s-.07-.02-.1-.03c0-.01,0-.02.01-.04.03.01.07.02.11.04,0,.01,0,.02-.01.03ZM115.31,71.83c-.06-.07-.12-.14-.18-.22.32-.03.25.09.18.22ZM115.34,71.5c.03-.11.07-.22.1-.32.02,0,.03.01.05.02-.03.11-.07.21-.1.32-.02,0-.03-.01-.05-.02ZM115.38,75.76s.04,0,.06.02c-.03.11-.07.22-.1.32-.02,0-.04-.01-.05-.02.03-.11.07-.21.1-.32ZM115.33,86.78c.03-.05.05-.1.08-.15.06.02.11.03.19.06-.07.24-.16.21-.27.08ZM115.53,70.74s-.03-.01-.05-.02c.02-.07.05-.14.07-.21.02,0,.03.01.05.02-.02.07-.05.14-.07.21ZM115.66,71.58s.03-.06.04-.09c.05.03.11.07.16.1,0,.02-.02.03-.02.05-.06-.02-.12-.04-.18-.06ZM115.89,75.81s-.02,0-.04-.01c.01-.03.02-.07.03-.11.01,0,.02,0,.04.01-.01.04-.02.07-.03.11ZM116,86.8s-.03-.02-.05-.02c.02-.06.04-.12.06-.18.03.01.06.02.09.04-.03.05-.07.11-.1.16ZM116.53,77.98s-.07-.02-.11-.04c0-.01,0-.02.01-.03.04.01.07.02.11.03,0,.02,0,.02-.01.04ZM116.39,75.62s.02-.07.03-.11c.01,0,.02,0,.03.01-.01.03-.02.07-.03.11-.01,0-.02,0-.03,0ZM116.57,71.19s-.02,0-.03,0c0,0,0,0-.01.01-.11.09-.22.17-.32.26-.12-.13-.22-.22-.31-.31.02-.05.04-.08.07-.13.16.05.33.11.58.17t0,0s-.04-.02-.07-.02c.04-.07.07-.13.11-.2.02.01.04.02.07.03-.03.06-.05.12-.11.19,0,0,.02,0,.03.01ZM115.94,70.4c.02-.07.05-.14.07-.23.07.04.12.07.18.1-.04.07-.07.13-.1.18-.06-.02-.09-.03-.16-.05ZM116.51,69.64s-.09.05-.14.07c-.03.07-.06.13-.08.19-.11-.02-.2-.04-.29-.06-.11.15-.23.3-.35.46-.03-.05-.05-.09-.09-.16-.06.11-.12.21-.18.33-.17-.13-.31-.24-.47-.36.07-.06.1-.09.16-.15.06.07.12.13.18.2.06-.09.11-.18.17-.29.05.07.07.11.09.14.17-.15.33-.28.49-.42.12.04.25.08.37.12.05-.02.09-.05.12-.07.05-.11.1-.21.19-.4.03.21.05.32.08.46-.12-.03-.18-.04-.25-.06ZM116.81,71.15s-.02,0-.04-.01c.01-.04.02-.07.03-.11.01,0,.02,0,.04.01-.01.04-.02.07-.03.11ZM116.85,68.8c-.05-.12-.2-.21-.02-.36.05.12.2.21.02.36ZM117.05,69.12s.06.02.09.04c-.04.09-.09.18-.13.27-.02,0-.03-.02-.05-.02.03-.09.06-.19.09-.28ZM116.97,65.63c.03-.05.07-.11.1-.16.02,0,.03.02.05.02-.02.06-.04.12-.06.18-.03-.01-.06-.03-.09-.04ZM117.46,68.09c-.02-.06-.04-.13-.07-.2.08.12.14.19.19.25.02-.05.04-.09.06-.15.08.04.13.06.19.09-.03.07-.05.11-.07.18-.05,0-.09-.02-.18-.12,0,.02-.02.05-.03.07-.02-.03-.05-.05-.07-.07.02.04.04.08.06.12-.02.02-.05.03-.07.05-.11-.1-.22-.19-.33-.29.07-.04.14-.07.34.12,0-.02-.02-.03-.02-.05ZM117.48,65.9s0-.02.01-.03c.03,0,.07.02.11.03,0,.01,0,.02-.01.04-.04-.01-.07-.02-.11-.04ZM117.71,67.72s.05-.09.09-.16c.17.12.32.24.5.37q-.27.07-.58-.22ZM117.08,86.43s-.06-.02-.09-.03c.04-.09.09-.18.13-.27.02,0,.04.02.05.02-.03.09-.06.19-.09.28ZM117.25,68.42s-.07-.02-.11-.04c0-.01,0-.02.01-.04.03.01.07.02.11.04,0,.01,0,.02-.01.04ZM117.61,86.27c-.24-.07-.22-.15-.09-.27.05.03.1.05.15.08-.02.06-.03.11-.06.19ZM117.67,70.65c-.09-.12-.15-.21-.25-.35.17.05.26.08.38.12-.05.08-.08.13-.13.23ZM118.05,70.33s-.07-.02-.11-.04c0,0,0-.02.01-.03.04,0,.07.02.11.03,0,.01,0,.02-.01.04ZM117.66,68.75c.22-.02.35-.03.49-.04-.02.03-.05.05-.07.08.07.05.14.11.21.16-.11.05-.16.08-.2.1-.12-.09-.24-.17-.43-.3ZM118.24,70.41s-.06-.02-.09-.03c.03-.06.07-.11.1-.17.02,0,.03.01.05.02-.02.06-.04.12-.06.18ZM118.58,67.58s0,0,0,0c0,0,0,.02.01.02-.03.02-.07.04-.1.06,0-.02-.02-.03-.02-.05.04-.02.07-.03.11-.03,0,0,0,0,0,0h0s0,0,0,0c.08-.17.19-.3.39-.37-.02.4-.02.4-.39.37ZM119.4,67.15s-.02,0-.03,0c.01-.04.02-.07.03-.11.01,0,.02,0,.04.01-.01.04-.02.07-.03.11ZM119.66,67c-.04-.07-.07-.14-.16-.32.19.09.28.14.38.18-.1.06-.15.09-.22.13ZM120.08,67.61s-.02,0-.03-.01c.01-.03.02-.07.03-.11.01,0,.02,0,.03.01-.01.03-.02.07-.03.11ZM120.29,66.59s-.03-.02-.05-.02c.03-.1.06-.19.09-.28.03.02.06.03.09.04-.04.09-.09.18-.13.27ZM120.7,67.2s-.06-.02-.09-.03c.03-.06.06-.11.1-.17.02,0,.03.02.05.02-.02.06-.04.12-.06.18ZM120.89,66.92s-.02,0-.03-.01c.01-.03.02-.07.03-.11.01,0,.02,0,.04.01-.01.04-.02.07-.03.11ZM121.04,65.77s-.06-.02-.09-.03c.03-.06.07-.11.1-.17.02,0,.03.01.05.02-.02.06-.04.12-.06.18ZM122.29,64.77s-.03-.02-.05-.02c.02-.06.04-.12.06-.18.03.01.06.02.09.04-.03.05-.07.11-.1.17ZM124.27,52.57c-3.38,10.45-14.59,16.19-25.04,12.81-1.07-.35-2.07-.79-3.04-1.29v-1.8c1.11.64,2.3,1.19,3.57,1.6,1.87.6,3.76.89,5.62.89,7.71,0,14.87-4.92,17.36-12.65,3.1-9.59-2.16-19.88-11.76-22.98-1.87-.6-3.76-.89-5.62-.89-3.26,0-6.42.89-9.17,2.49v-1.95c4.55-2.36,10-2.97,15.27-1.27,10.45,3.38,16.18,14.59,12.81,25.03ZM125.16,33.27s-.04,0-.05-.02c.03-.11.07-.22.1-.32.02,0,.04.01.05.02-.03.11-.07.21-.1.32ZM125.34,33.8s-.02,0-.04-.01c.01-.03.02-.07.03-.11.02,0,.02,0,.04,0-.01.04-.02.07-.03.11ZM125.4,32.61c-.07-.02-.14-.05-.21-.07,0-.02.01-.04.02-.05.07.02.14.05.21.07,0,.02-.01.03-.02.05ZM125.41,30.28s-.02,0-.03-.01c.01-.04.02-.07.03-.11.01,0,.02,0,.03.01-.01.04-.02.07-.03.11ZM125.47,33.52c.07.02.14.05.21.07,0,.02-.01.04-.02.05-.07-.02-.14-.05-.21-.07,0-.02.01-.04.02-.05ZM125.68,35.05s-.07-.02-.11-.04c0,0,0-.02.01-.03.03.01.07.02.11.03,0,.01,0,.02-.01.04ZM125.79,34.29c-.06-.03-.12-.05-.19-.09,0,0,0,0,0,0,0,0,0,0,0,0-.01,0-.02-.01-.03-.02.02-.17-.2-.24,0-.43.08.03.18.07.31.12-.08.09-.15.15-.22.26.06.03.12.06.18.1-.01.02-.02.04-.03.07ZM125.9,35.34c-.03-.13-.05-.21-.07-.27q.17.02.07.27ZM126.18,34.53c-.07-.02-.13-.03-.2-.07h0s0,.02.01.03c-.03.02-.07.04-.1.06,0-.01-.02-.03-.02-.04.04-.01.07-.03.11-.03,0,0,0,0,0-.01,0,0,0,0,0,0h0c.04-.06.07-.12.07-.13.05.05.12.1.18.15-.02.02-.04.03-.06.05ZM126.15,33.35s.02-.07.03-.11c.01,0,.02,0,.04,0-.01.04-.02.07-.03.11-.01,0-.02,0-.04-.01ZM126.01,30.9c.13-.03.21-.05.27-.07q-.02.17-.27.07ZM126.33,37.3s-.02,0-.03-.01c.01-.04.02-.07.03-.11.01,0,.02,0,.03.01-.01.03-.02.07-.03.11ZM126.37,36.49s-.04-.01-.06-.02c.02-.07.05-.14.07-.21.02,0,.04.01.06.02-.02.07-.05.14-.07.21ZM126.3,35.47c.14-.09.22-.14.31-.2.04.08.07.14.1.21-.05.04-.11.08-.17.14.01,0,.02,0,.03-.01.02.03.04.07.06.1-.01,0-.03.02-.04.02-.02-.04-.03-.08-.06-.12-.04-.03-.11-.07-.23-.14ZM126.61,37.52s-.02,0-.04-.01c.01-.03.02-.07.03-.11.01,0,.02,0,.04,0-.01.04-.02.07-.03.11ZM126.6,36.98s.03-.08.06-.18c.09.05.13.07.2.11-.1.03-.18.05-.25.07ZM126.84,34.29c-.05-.03-.11-.07-.16-.1,0-.01.02-.03.02-.05.06.02.12.04.18.06-.01.03-.02.06-.04.09ZM126.68,33.53s.02-.07.03-.11c.01,0,.02,0,.04.01-.01.04-.02.07-.04.11-.01,0-.02,0-.03,0ZM126.87,24.02c-.05-.02-.1-.05-.13-.15-.01,0-.02-.02-.03-.02-.01.03-.02.06-.03.09,0-.04,0-.07-.01-.09-.06-.03-.11-.06-.16-.09,0-.02.02-.05.03-.07.05.02.11.05.13.16.01,0,.02.01.03.02.01-.03.02-.06.03-.09,0,.04,0,.07.01.09.05.03.11.06.16.09-.01.02-.02.04-.03.07ZM126.81,21.94c-.06-.1-.11-.17-.2-.32.17.05.24.08.32.1-.04.07-.07.12-.12.21ZM127.06,29.75c.07.04.13.06.19.09-.1.09-.18.16-.31.27.05-.15.08-.25.12-.37ZM127.2,34.99s-.03-.01-.05-.02c.02-.07.04-.14.07-.21.02,0,.03.01.05.02-.02.07-.05.14-.07.22ZM127.38,26.12c-.05-.04-.12-.09-.2-.14.02-.01.03-.02.05-.04.06.02.12.04.18.06-.02.07-.03.11-.04.12ZM127.49,32.96s-.02,0-.03-.01c.01-.04.02-.07.03-.11.01,0,.02,0,.04.01-.01.03-.02.07-.03.11ZM127.56,21.88c-.06-.02-.12-.04-.18-.06.01-.03.02-.06.03-.09.06.03.11.06.17.1,0,.02-.02.03-.02.05ZM127.64,21.55s-.03-.02-.05-.02c.02-.06.04-.12.06-.18.03.01.06.03.09.04-.03.05-.07.11-.1.16ZM128.04,25.2s-.07-.02-.11-.04c0-.01,0-.02.01-.04.04.01.07.02.11.03,0,.01,0,.02-.01.04ZM128.02,14.02c.02-.07.05-.14.07-.21.02,0,.03.01.05.02-.02.07-.04.14-.07.21-.02,0-.03-.01-.05-.02ZM128.16,39.67s-.02,0-.03-.01c.01-.04.03-.07.03-.11.01,0,.02,0,.03.01-.01.04-.02.07-.03.11ZM128.19,27.17s-.03,0-.04,0c.01-.04.02-.07.03-.11.01,0,.02,0,.04.01-.01.03-.02.07-.03.11ZM128.84,26.72s0,.02-.01.04c-.04-.01-.07-.02-.11-.03,0-.01,0-.02.01-.04.03.01.07.02.11.04ZM128.81,12.87c-.06-.03-.11-.06-.17-.1,0-.02.02-.03.02-.05.06.02.12.04.18.06-.01.03-.02.06-.03.09ZM128.64,12.38s.08.02.11.03c0,.01,0,.02-.01.03-.03-.01-.07-.02-.11-.03,0-.01,0-.02.01-.03ZM128.61,16.85s.08.02.11.03c0,.01,0,.02-.01.03-.04-.01-.07-.02-.11-.03,0-.01,0-.02,0-.03ZM128.69,41.06s.07.02.11.03c0,.01,0,.02,0,.03-.04-.01-.07-.02-.11-.03,0-.01,0-.02.01-.03ZM128.83,41.73s-.07-.02-.1-.03c0-.01,0-.02.01-.04.03.01.07.02.1.04,0,.01,0,.02-.01.03ZM128.92,27.96s-.07-.02-.11-.03c0-.01,0-.02.01-.04.03,0,.07.02.11.03,0,.01,0,.02-.01.04ZM129.12,17.33s-.02,0-.03-.01c.01-.03.02-.07.03-.11.01,0,.02,0,.03.01-.01.03-.02.07-.03.11ZM129.43,23.33s-.02,0-.04-.01c.01-.03.02-.07.03-.11.01,0,.02,0,.04.01-.01.04-.02.07-.03.11ZM129.67,15.27s-.02,0-.03-.01c.01-.03.02-.07.03-.11.01,0,.02,0,.04.01-.01.03-.02.07-.03.11ZM129.87,23.55s-.07-.02-.11-.03c0-.01,0-.02.01-.04.04.01.07.02.11.03,0,.01,0,.02-.01.04ZM130.84,29.56s-.02,0-.04-.01c.01-.04.02-.07.03-.1.01,0,.02,0,.04,0-.01.04-.02.07-.03.11Z"/>
</svg>