<svg width="96" height="87" viewBox="0 0 96 87" fill="none" xmlns="http://www.w3.org/2000/svg">
<path d="M0.91882 76.4919C1.37843 76.4499 1.92161 75.8816 2.40211 75.608C2.86172 75.3554 3.92718 74.5977 3.92718 74.5977C3.92718 74.5977 2.86172 75.7764 2.27676 76.3025C1.67091 76.8498 1.16952 77.3128 0.91882 77.6706C0.668124 78.0284 0.877038 78.2389 1.33665 78.1968C1.79626 78.1547 2.48567 77.7548 2.81993 77.7548C3.1542 77.7548 3.53024 77.397 4.13609 77.1865C4.74194 76.955 5.53581 76.3025 6.70573 75.608C7.89654 74.9134 9.63052 73.8611 10.8422 72.7456C12.0748 71.6511 13.6417 70.0516 14.4355 69.3149C15.2294 68.5572 15.7517 68.1573 16.2113 67.8416C16.6709 67.547 17.7782 67.105 19.0943 66.4946C20.4105 65.8842 22.813 64.4741 23.7949 64.2005C25.696 63.6743 27.3046 62.6009 27.3046 62.6009C27.3046 62.6009 30.6472 61.6327 31.3575 61.2749C31.3575 61.2749 31.9634 61.317 32.7155 61.1487C33.4885 60.9803 34.4077 60.6225 35.0344 60.4962C35.6612 60.3699 36.6013 60.1594 37.1027 60.1594C37.6041 60.1594 36.852 60.7698 36.852 60.7698C36.852 60.7698 38.4815 60.5593 38.8366 60.1594C39.0873 59.8858 38.8366 61.0434 38.2935 61.4854C37.7503 61.9274 38.8366 61.5696 38.8366 61.5696L38.5442 62.2642C38.5442 62.2642 39.6096 62.4115 40.696 61.9064C41.1138 61.7169 40.5288 62.664 40.5288 62.664L40.9885 62.4325L40.6124 63.1902L41.6152 62.8324L41.7197 63.2744C41.7197 63.2744 42.5553 62.8114 42.7642 62.4325C43.0358 61.9905 42.9731 64.6004 42.9731 64.6004L43.4745 64.1163C43.4745 64.1163 43.391 65.2949 43.5581 66.0526C43.7252 66.8103 43.8088 67.2733 44.2266 67.9469C44.6444 68.6204 44.8951 69.0834 45.1876 69.4412C45.4801 69.799 46.4202 70.1568 47.1723 70.8093C47.9244 71.4617 48.4885 71.9879 49.7002 72.9561C50.9327 73.9242 53.2517 76.1762 53.586 76.7024C53.586 76.7024 52.6458 77.3549 52.1444 77.3549C51.6431 77.3549 50.9745 77.5443 50.6194 77.397C50.2015 77.2286 49.0525 77.1444 48.5511 77.5233C48.5511 77.5233 47.3394 77.3549 46.4829 77.5654C46.0024 77.6916 45.2503 78.0494 44.8325 78.6177C44.4146 79.186 44.2475 79.5859 44.3311 80.2383C44.3729 80.6382 44.7907 80.2383 44.9369 80.0068C45.2294 79.5227 45.6472 79.186 46.1486 78.8703C46.3784 78.7229 47.2141 78.6177 47.2141 78.6177C47.2141 78.6177 46.7754 79.3123 46.8798 80.112C46.9216 80.4277 47.047 80.112 47.1723 79.7963C47.2976 79.5017 47.6319 79.3543 47.6319 79.3543C47.6319 79.3543 47.6319 79.9226 47.9662 79.9647C48.3004 80.0068 49.7837 80.0489 49.7837 80.0489C49.7837 80.0489 49.8255 80.3436 50.3269 80.3436C50.8283 80.3436 52.6041 80.3436 52.9383 80.4278C53.2726 80.5119 53.3979 80.6593 53.8993 80.6593C54.4007 80.6593 54.547 80.5751 55.1737 80.8276C55.8213 81.1013 56.657 81.5853 57.0748 81.6695C57.4926 81.7537 57.4508 81.7116 57.8896 81.9221C58.3074 82.1536 59.6653 82.8903 60.1249 83.0165C60.5846 83.1428 61.5873 83.669 61.5873 83.669C61.5873 83.669 61.6709 83.9005 62.1305 84.111C62.5901 84.3425 63.1542 84.5109 63.4467 84.6793C63.7391 84.8687 63.6138 85.4369 64.8464 85.4369C64.8464 85.4369 65.4731 85.9 65.5567 86.2578C65.6403 86.6156 65.891 86.7208 65.9327 86.363C65.9745 86.0052 65.891 85.7106 65.891 85.7106C65.891 85.7106 66.0999 85.4369 66.0581 85.2686C66.0163 85.1002 65.9745 84.7845 65.9745 84.7845C65.9745 84.7845 66.2252 84.9108 66.6013 84.9108C66.9773 84.9108 67.1027 85.3107 67.5623 85.3107C68.0219 85.3107 68.8366 85.0581 68.8366 85.0581C68.8366 85.0581 69.1291 85.3107 69.5678 85.2896C69.9857 85.2475 70.1946 85.1212 70.2364 84.8055C70.2781 84.4898 70.2781 84.0058 70.2781 84.0058C70.2781 84.0058 70.8004 83.8795 71.2391 84.0478C71.7405 84.2373 72.4717 84.7424 72.7642 85.1002C73.0358 85.4369 73.1403 85.1844 72.9314 84.8266C72.7851 84.574 72.1793 83.4375 71.1556 83.2902C70.6333 83.206 69.7768 83.3743 69.7768 83.3743C69.7768 83.3743 69.5887 83.206 69.338 83.1218C69.0873 83.0376 69.0456 82.8903 68.4606 82.8903C67.8756 82.8903 67.5205 83.0165 67.1027 82.8482C66.6848 82.6798 65.9954 82.6377 65.7447 82.4483C65.494 82.2799 64.5539 81.9852 64.5539 81.9852C64.5539 81.9852 65.0971 81.8169 65.3269 81.5432C65.5358 81.2907 65.4105 80.5751 65.4105 80.5751C65.4105 80.5751 65.7447 80.3646 66.1625 80.533C66.6848 80.7224 66.9146 81.1223 66.9982 81.3328C67.0818 81.5432 67.2489 81.5432 67.2489 81.2486C67.2489 80.9539 67.1444 80.1541 66.4968 79.8174C65.891 79.5017 65.0971 79.8174 65.0971 79.8174C65.0971 79.8174 64.4912 79.5017 64.1988 79.5017C63.9063 79.5017 63.1542 79.4175 63.1542 79.4175V78.8071C63.1542 78.8071 63.4676 78.7229 63.6974 79.0597C63.8436 79.2702 63.9272 79.0597 63.8645 78.8492C63.8018 78.6177 63.5302 78.4493 63.5302 78.4493C63.5302 78.4493 63.9272 78.5756 64.2196 78.5756C64.5121 78.5756 65.1807 78.5335 65.4731 78.7019C65.7656 78.8703 66.6222 79.0386 67.228 79.0386C67.8339 79.0386 68.3144 78.8703 68.4397 78.7019C68.6695 78.3651 68.5651 78.1336 68.5651 78.1336C68.5651 78.1336 69.0456 78.0494 69.547 78.2178C70.0066 78.3651 70.5079 78.9966 70.6751 79.4806C70.8004 79.9016 71.1138 79.649 70.9676 79.1439C70.8422 78.7019 70.5915 77.839 69.9439 77.5654C69.4634 77.3338 68.377 77.2707 68.377 77.2707C68.377 77.2707 67.9174 76.8077 67.4996 76.8498C67.0818 76.8918 66.455 76.976 66.0581 77.0181C65.7656 77.0602 65.5776 77.0602 65.494 77.0602C65.3478 76.8077 64.9926 76.1973 64.6793 76.0289C64.3032 75.8395 63.8436 75.8605 63.5302 75.9026L63.3422 75.7764C63.008 75.7764 62.6319 75.7343 62.423 75.9237C62.1932 76.0921 61.9007 76.3236 61.65 76.4078C61.3993 76.492 61.274 76.7235 61.0024 76.7656C60.7517 76.8077 60.0414 76.8077 60.0414 76.8077C60.0414 76.8077 60.0832 76.492 59.6653 76.4499C59.2266 76.4078 58.8924 76.3657 58.4327 76.3657C57.9731 76.3657 57.9314 76.05 57.5553 76.05C57.1793 76.05 56.8032 75.8395 56.8032 75.8395C56.8032 75.8395 56.6779 75.5238 56.3018 75.3133C55.9258 75.1028 55.5915 74.8292 55.3408 74.6188C55.0901 74.3872 55.2155 74.3452 54.9021 74.0084C54.6096 73.6506 54.0664 73.2928 53.3353 72.5141C52.6249 71.7143 51.8102 70.8093 51.2252 70.0516C50.6403 69.2939 50.1598 68.8098 49.8673 68.473C49.5748 68.1152 49.0734 67.5891 49.0734 67.5891C49.0734 67.5891 49.2405 66.3473 49.4912 65.6527C49.7419 64.9371 49.9091 64.1584 50.2642 63.4007C50.5985 62.664 50.9327 62.2641 51.2252 61.6538C51.5177 61.0434 51.8102 60.0753 52.6667 59.4438C53.3144 58.9808 53.8575 58.5809 54.7559 58.0126L54.8812 58.3705L54.923 57.9074C55.1528 57.7601 55.4244 57.6128 55.7169 57.4233C55.9049 57.3181 56.072 57.2129 56.2391 57.1076L56.6988 57.6759C56.6152 57.3602 56.5525 57.1076 56.5107 56.9182L56.5943 56.8551C56.7405 57.0655 57.0121 57.3181 57.43 57.4865L57.0539 56.6025L58.5581 56.0974C58.2029 56.1395 57.8896 56.1395 57.5971 56.1395C58.2029 55.6975 58.767 55.2555 59.352 54.8556C59.9578 54.4346 60.313 54.161 60.7099 53.7611V54.8135C60.7099 54.6241 61.0651 53.8032 61.4202 53.0455C61.5665 52.8982 61.7336 52.7088 61.9425 52.5194L62.0887 52.372C62.1305 52.8772 62.1514 53.4454 62.1514 53.2771C62.1514 52.9614 62.5275 52.3089 62.5275 52.3089C62.5275 52.3089 62.7781 54.2031 62.7781 53.7611C62.7781 53.3612 62.8617 51.888 63.3004 51.0671C63.6765 50.6462 64.0107 50.2673 64.4704 49.7622C65.3896 48.7519 66.3715 47.5523 67.7085 45.8895C69.0664 44.2268 69.7976 43.427 70.8422 41.3013C71.9077 39.1966 72.4926 37.0919 72.9105 35.2818C73.3283 33.4718 73.4954 32.5036 74.0177 30.6515C74.5191 28.7994 74.9578 27.3471 75.877 24.5689C76.7963 21.7907 77.7781 19.0967 78.1542 17.3077C78.5302 15.4976 78.3631 14.2558 78.6974 13.5192C79.0316 12.8036 79.8046 11.8144 80.682 11.0567C81.3297 10.4884 81.7893 10.278 82.1862 10.0675C83.7531 9.43607 87.3464 10.741 89.4982 11.3514C91.6918 11.9617 93.0288 11.7933 93.6974 11.5408C94.345 11.2882 93.969 11.204 93.969 11.204C92.8408 11.0146 89.1222 9.75178 87.8687 9.35189C86.6152 8.95199 86.6779 8.61524 86.1138 8.42581C85.1946 8.13116 84.8185 8.1943 84.3171 7.7944C83.3144 6.99461 84.2545 6.88938 84.2545 6.88938C88.182 5.85808 92.047 6.17378 94.7628 7.45765C95.0971 7.60498 95.0971 7.41556 95.0971 7.41556C93.4676 5.18457 88.2029 4.00593 88.2029 4.00593C86.1974 3.35348 85.6751 2.67997 85.6751 2.67997C85.6751 2.67997 85.2364 2.55369 84.9021 2.34322C84.5678 2.1117 84.2963 2.02751 83.4397 1.58553C82.6041 1.14354 81.4968 0.617362 80.5358 0.385844C79.5748 0.154327 77.9453 0.154327 76.4829 0.13328C74.9996 0.0911859 73.7252 0.301655 72.6807 0.617361C71.6152 0.933067 70.111 1.71181 69.2127 2.63788C68.3353 3.56395 67.3951 4.57421 66.2461 6.25797C65.0971 7.92069 64.5121 9.03618 62.7781 11.1409C61.0442 13.2456 58.2656 16.5289 56.2183 18.3179C54.1918 20.128 50.0135 24.8425 47.9662 26.6526C45.9397 28.4626 43.7461 30.5252 42.8896 31.2829C42.0539 32.0406 41.5734 32.8193 40.4871 33.6612C39.3798 34.5031 38.2935 35.366 37.1444 36.1237C35.9954 36.8604 35.2433 37.4076 34.1361 38.3337C33.0497 39.2597 32.0678 40.1858 30.4592 41.4486C28.8506 42.7325 28.0358 43.4691 26.7405 44.7109C25.4244 45.9527 25.2573 46.2894 24.3798 47.1734C23.4815 48.0574 22.813 48.7099 22.2698 49.4675C21.7057 50.2252 21.4968 50.8356 20.9119 51.446C20.3269 52.0563 20.0762 52.0984 19.4704 52.9403C18.8854 53.7822 18.5093 54.3926 17.9035 54.8345C17.3185 55.2765 16.086 56.3289 15.0205 57.0024C13.9759 57.6548 11.5943 59.1492 10.9258 59.949C10.3617 60.6014 10.4871 61.317 10.4871 61.317C10.4871 61.317 9.69319 61.9905 10.0692 62.1589C10.4453 62.3273 11.1556 61.9905 12.1793 61.5906C13.2029 61.1908 15.1458 60.0121 16.5247 59.3386C17.9244 58.6862 20.0344 57.4865 20.0344 57.4865C20.0344 57.4865 19.4077 58.4546 18.8018 58.8545C18.196 59.2544 17.6528 59.9069 16.65 60.5383C15.6263 61.1487 14.8325 62.0326 14.0177 62.7693C13.2238 63.527 12.618 64.2847 12.2419 64.6635C11.6152 65.337 12.033 65.6948 12.5762 65.4633C12.5762 65.4633 11.5525 66.1999 10.5497 67.0418C9.52606 67.8837 9.02467 68.4099 7.62495 69.4622C6.22523 70.5146 5.34779 71.2723 4.15698 72.3667C2.96617 73.4612 1.2113 75.0608 0.689016 75.7553C0.187623 76.4499 0.312972 76.513 0.772582 76.4499L0.91882 76.4919Z" fill="#EA1C2C"/>
</svg>
