<?xml version="1.0" encoding="UTF-8"?>
<svg class="logo__svg" data-name="Layer 1" xmlns="http://www.w3.org/2000/svg" viewBox="0 0 287.2 56.54">
  <defs>
    <style>
      .cls-1 {
        fill: #ea0029;
      }
    </style>
  </defs>
          <path class="cls-1" d="M236.69 38.1201C239.61 38.1203 241.769 40.2999 241.77 43.0195V43.0498C241.77 45.7698 239.58 47.9696 236.66 47.9697C233.74 47.9697 231.58 45.8 231.58 43.0801V43.0498C231.58 40.3299 233.771 38.1201 236.69 38.1201ZM252.31 38.1201C255.229 38.1201 257.389 40.2998 257.39 43.0195V43.0498C257.39 45.7697 255.2 47.9696 252.28 47.9697C249.36 47.9697 247.2 45.8 247.2 43.0801V43.0498C247.2 40.33 249.39 38.1203 252.31 38.1201ZM152 38.1104C153.93 38.1104 155.18 38.9203 156.02 40.0703L154.05 41.5996C153.51 40.9399 152.89 40.4904 151.98 40.4902C150.661 40.4902 149.72 41.6299 149.72 43.0098V43.04C149.72 44.46 150.65 45.5703 151.98 45.5703C152.97 45.5702 153.55 45.1098 154.12 44.4199L156.09 45.8301C155.2 47.06 154 47.96 151.92 47.96H151.91C149.2 47.96 147.03 45.8902 147.03 43.0703V43.04C147.03 40.28 149.14 38.1104 152 38.1104ZM244.48 45.2998C245.21 45.3001 245.81 45.8901 245.81 46.6299C245.81 47.3697 245.21 47.9597 244.48 47.96C243.75 47.96 243.15 47.3599 243.15 46.6299C243.15 45.8999 243.751 45.2998 244.48 45.2998ZM274.57 38.1104C276.23 38.1104 277.41 38.6105 278.41 39.4805L276.87 41.3496C276.19 40.7797 275.53 40.46 274.58 40.46C273.22 40.46 272.16 41.6 272.16 43.04V43.0703C272.16 44.6101 273.231 45.7002 274.73 45.7002C275.38 45.7001 275.86 45.5695 276.24 45.3096V44.1602H274.39V42.2402H278.73V46.4902H278.74C277.74 47.3302 276.36 47.96 274.63 47.96C271.68 47.9599 269.49 45.9301 269.49 43.0703V43.04C269.49 40.28 271.65 38.1104 274.57 38.1104ZM179.66 38.3203C181.11 38.3203 182.11 38.7001 182.74 39.3301C183.29 39.8801 183.58 40.6001 183.58 41.54V41.5703C183.58 43.0301 182.81 43.9903 181.63 44.4902L183.89 47.79H180.88V47.7803L178.97 44.9102H177.81V47.7803H175.19V38.3203H179.66ZM199.87 38.3203C201.32 38.3203 202.32 38.7001 202.95 39.3301C203.5 39.8801 203.79 40.6001 203.79 41.54V41.5703C203.79 43.0301 203.02 43.9903 201.84 44.4902L204.1 47.79H201.09V47.7803L199.18 44.9102H198.02V47.7803H195.4V38.3203H199.87ZM263.88 38.3203C265.33 38.3203 266.33 38.7001 266.96 39.3301C267.51 39.8801 267.8 40.6001 267.8 41.54V41.5703C267.8 43.0301 267.03 43.9903 265.85 44.4902L268.11 47.79H265.1V47.7803L263.19 44.9102H262.03V47.7803H259.41V38.3203H263.88ZM160.73 41.8604H164.1V38.3203H166.72V47.7803H164.1V44.1797H160.73V47.7803H158.11V38.3203H160.73V41.8604ZM172.27 47.7803H169.65V38.3203H172.27V47.7803ZM215.43 47.7803H212.62L211.94 46.0801H208.28L207.6 47.7803H204.86L208.87 38.25H211.4L215.43 47.7803ZM220.32 38.3203C223.69 38.3204 225.65 40.2701 225.65 43V43.0303L225.645 43.2734C225.525 45.8747 223.554 47.7803 220.27 47.7803H216.66V38.3203H220.32ZM229.91 47.7803H227.29V38.3203H229.91V47.7803ZM189.83 38.3096C192.21 38.3096 193.75 39.5401 193.75 41.6201V41.6504H193.74C193.74 43.9 192.02 45.0702 189.69 45.0703H188.38V47.7695H185.76V38.3096H189.83ZM236.66 40.4902C235.21 40.4902 234.25 41.6497 234.25 43.0195V43.0498C234.25 44.4097 235.24 45.5994 236.68 45.5996C238.12 45.5996 239.07 44.4402 239.07 43.0703V43.04C239.07 41.6602 238.1 40.4807 236.65 40.4805L236.66 40.4902ZM252.28 40.4902C250.83 40.4902 249.87 41.6497 249.87 43.0195V43.0498C249.87 44.4097 250.86 45.5995 252.3 45.5996C253.74 45.5996 254.69 44.4402 254.69 43.0703V43.04C254.69 41.66 253.72 40.4805 252.27 40.4805L252.28 40.4902ZM219.28 45.4502H220.35C221.93 45.4502 222.97 44.5796 222.97 43.0596V43.0303C222.97 41.5203 221.93 40.6201 220.35 40.6201H219.28V45.4502ZM209.05 44.0303H211.17L210.11 41.3604L209.05 44.0303ZM188.38 43.0195H189.64C190.56 43.0195 191.14 42.5201 191.14 41.7803V41.75C191.14 40.94 190.56 40.5195 189.63 40.5195H188.38V43.0195ZM177.81 42.8604H179.55C180.43 42.8604 180.96 42.4201 180.96 41.7402V41.71C180.96 40.95 180.41 40.5703 179.54 40.5703H177.81V42.8604ZM198.02 42.8604H199.76C200.64 42.8604 201.17 42.4201 201.17 41.7402V41.71C201.17 40.95 200.62 40.5703 199.75 40.5703H198.02V42.8604ZM262.03 42.8604H263.77C264.649 42.8604 265.18 42.4201 265.18 41.7402V41.71C265.18 40.95 264.63 40.5703 263.76 40.5703H262.03V42.8604ZM171.46 8.19043C178.56 8.19043 184.32 13.9499 184.32 21.0498C184.32 28.1498 178.56 33.9102 171.46 33.9102C164.36 33.9101 158.6 28.1498 158.6 21.0498C158.6 13.9499 164.36 8.19045 171.46 8.19043ZM194.23 33.3496H191.19L201.71 11.5H187.31V8.75977H206.07L194.23 33.3496ZM221.1 33.3496H218.36V8.75H221.1V33.3496ZM259.26 33.3496V33.3398H259.27L259.26 33.3496ZM151.83 33.3398H149.09V8.75H151.83V33.3398ZM208.81 33.3398H206.07V29.2402H208.81V33.3398ZM248.22 14.7197H236.59V18.9004H248.22V24.5498H236.59V33.3398H229.77V8.75H248.22V14.7197ZM265.66 18.2695L271.53 8.75H278.73V33.3398H271.95V19.2197L265.66 28.8496H265.52L259.26 19.2598V33.3398H252.59V8.75H259.79L265.66 18.2695ZM171.46 10.9297C165.88 10.9297 161.34 15.4699 161.34 21.0498C161.34 26.6298 165.88 31.1699 171.46 31.1699C177.04 31.1699 181.58 26.6298 181.58 21.0498C181.58 15.4699 177.04 10.9297 171.46 10.9297Z" />
          <path class="cls-1" d="M140.25 52.7803L5 52.7695V5H140.25V52.7803ZM44.29 8.13965C43.58 8.11965 42.9697 8.22012 42.4697 8.37012C41.9597 8.52017 41.2395 8.89016 40.8096 9.33008C40.3896 9.77001 39.9395 10.25 39.3896 11.0498C38.8397 11.8397 38.5604 12.3702 37.7305 13.3701C36.9005 14.3701 35.5698 15.9303 34.5898 16.7803C33.6198 17.6404 31.6196 19.8803 30.6396 20.7402C29.6697 21.6002 28.6199 22.5805 28.21 22.9404C27.8101 23.3004 27.5795 23.6704 27.0596 24.0703C26.5297 24.4702 26.0098 24.8803 25.46 25.2402C24.91 25.5902 24.5495 25.8501 24.0195 26.29C23.4997 26.7299 23.0296 27.1697 22.2598 27.7695C21.4898 28.3795 21.1004 28.7304 20.4805 29.3203C19.8505 29.9103 19.7696 30.0702 19.3496 30.4902C18.9198 30.9101 18.5998 31.2202 18.3398 31.5801C18.0701 31.9398 17.9701 32.2297 17.6904 32.5195C17.4104 32.8095 17.29 32.8305 17 33.2305C16.7201 33.6303 16.5399 33.9199 16.25 34.1299C15.97 34.3399 15.3801 34.8402 14.8701 35.1602C14.3703 35.4701 13.2305 36.1795 12.9102 36.5596C12.6402 36.8696 12.7002 37.21 12.7002 37.21C12.7002 37.21 12.32 37.5304 12.5 37.6104C12.68 37.6902 13.02 37.5298 13.5098 37.3398C13.9998 37.1498 14.9298 36.5895 15.5898 36.2695C16.2543 35.9621 17.253 35.399 17.2695 35.3896C17.2695 35.3896 16.9697 35.85 16.6797 36.04C16.3899 36.23 16.13 36.54 15.6504 36.8398C15.1604 37.1298 14.7796 37.5504 14.3896 37.9004C14.0099 38.2602 13.72 38.6198 13.54 38.7998C13.24 39.1198 13.4402 39.2897 13.7002 39.1797C13.7002 39.1797 13.2103 39.5298 12.7305 39.9297C12.2405 40.3297 12.0001 40.5801 11.3301 41.0801C10.6601 41.5801 10.2399 41.94 9.66992 42.46C9.09992 42.98 8.25976 43.7403 8.00977 44.0703C7.77013 44.3999 7.83008 44.4303 8.0498 44.4004L8.12012 44.4199C8.34009 44.3998 8.60012 44.13 8.83008 44C9.04862 43.8808 9.55276 43.5243 9.55957 43.5195C9.55957 43.5195 9.04953 44.0801 8.76953 44.3301C8.47967 44.59 8.24008 44.8105 8.12012 44.9805C8.00041 45.1503 8.10043 45.2505 8.32031 45.2305C8.54031 45.2103 8.87034 45.0195 9.03027 45.0195C9.1902 45.0193 9.37032 44.8499 9.66016 44.75C9.95009 44.64 10.3299 44.3299 10.8896 44C11.4596 43.67 12.2901 43.1696 12.8701 42.6396C13.4601 42.1197 14.2099 41.3597 14.5898 41.0098C14.9698 40.6498 15.2204 40.4596 15.4404 40.3096C15.6607 40.1696 16.1908 39.9597 16.8203 39.6699C17.4504 39.3799 18.6004 38.7101 19.0703 38.5801C19.9729 38.3321 20.7378 37.8284 20.75 37.8203C20.75 37.8203 22.3504 37.3604 22.6904 37.1904C22.7033 37.1913 22.9882 37.208 23.3398 37.1299C23.7098 37.0499 24.1502 36.8803 24.4502 36.8203C24.7502 36.7603 25.2005 36.6602 25.4404 36.6602C25.6774 36.6605 25.3268 36.945 25.3203 36.9502C25.3371 36.948 26.1008 36.8479 26.2695 36.6602C26.3895 36.5302 26.2698 37.08 26.0098 37.29C25.7546 37.4962 26.2524 37.3356 26.2695 37.3301L26.1299 37.6602C26.1299 37.6602 26.6402 37.7302 27.1602 37.4902C27.357 37.4017 27.0883 37.8363 27.0801 37.8496L27.2998 37.7402L27.1201 38.0996L27.5996 37.9297L27.6504 38.1396C27.6653 38.1314 28.0523 37.9167 28.1504 37.7402C28.2789 37.5326 28.2506 38.7424 28.25 38.7695L28.4902 38.54C28.4899 38.5447 28.4506 39.1015 28.5303 39.46C28.6103 39.8199 28.6496 40.0404 28.8496 40.3604C29.0496 40.6803 29.1696 40.9003 29.3096 41.0703C29.4495 41.2403 29.8998 41.4099 30.2598 41.7197C30.6198 42.0297 30.8898 42.2803 31.4697 42.7402C32.0595 43.2001 33.1694 44.269 33.3301 44.5195C33.3301 44.5195 32.8796 44.8301 32.6396 44.8301C32.3997 44.8302 32.0801 44.9196 31.9102 44.8496C31.7102 44.7696 31.1599 44.7302 30.9199 44.9102C30.9135 44.9093 30.3374 44.8303 29.9297 44.9297C29.6997 44.9897 29.3396 45.1598 29.1396 45.4297C28.9396 45.6997 28.8604 45.8902 28.9004 46.2002C28.9205 46.3898 29.1205 46.1998 29.1904 46.0898C29.3304 45.8601 29.5297 45.6997 29.7695 45.5498C29.8795 45.4798 30.2803 45.4297 30.2803 45.4297C30.2803 45.4297 30.0703 45.7598 30.1201 46.1396C30.1401 46.2896 30.1998 46.1401 30.2598 45.9902C30.3198 45.8502 30.4805 45.7803 30.4805 45.7803C30.4805 45.7901 30.483 46.0504 30.6396 46.0703C30.798 46.0901 31.4954 46.1099 31.5098 46.1104C31.511 46.1176 31.5366 46.2498 31.7695 46.25C32.0093 46.25 32.8584 46.2501 33.0195 46.29C33.1795 46.33 33.2405 46.4004 33.4805 46.4004C33.7201 46.4003 33.79 46.3605 34.0898 46.4805C34.3998 46.6105 34.8 46.8399 35 46.8799C35.1999 46.9199 35.18 46.9002 35.3896 47C35.5896 47.11 36.2398 47.4594 36.46 47.5195C36.68 47.5795 37.1602 47.8301 37.1602 47.8301C37.1617 47.8343 37.2043 47.942 37.4199 48.04C37.6397 48.15 37.9097 48.2296 38.0498 48.3096C38.1898 48.3996 38.13 48.6698 38.7197 48.6699C38.7197 48.6699 39.0191 48.8896 39.0596 49.0596C39.0995 49.2295 39.2201 49.28 39.2402 49.1104C39.2602 48.9404 39.2197 48.7998 39.2197 48.7998C39.2197 48.7998 39.3198 48.6698 39.2998 48.5898C39.2804 48.512 39.2608 48.368 39.2598 48.3604C39.2598 48.3604 39.3798 48.4198 39.5596 48.4199C39.7394 48.4199 39.7999 48.6101 40.0195 48.6104C40.2368 48.6104 40.6205 48.4931 40.6299 48.4902C40.6329 48.4928 40.7728 48.6095 40.9805 48.5996C41.1801 48.5796 41.2798 48.5199 41.2998 48.3701C41.3194 48.2229 41.3203 47.9986 41.3203 47.9902C41.3291 47.9882 41.5741 47.9312 41.7803 48.0098C42.0202 48.0998 42.3697 48.3398 42.5098 48.5098C42.6398 48.6698 42.6898 48.5499 42.5898 48.3799C42.5197 48.2596 42.2299 47.7205 41.7402 47.6504C41.4902 47.6104 41.0801 47.6904 41.0801 47.6904C41.0801 47.6904 40.99 47.6103 40.8701 47.5703C40.7501 47.5303 40.73 47.46 40.4502 47.46C40.1702 47.46 39.9998 47.5204 39.7998 47.4404C39.5999 47.3605 39.2706 47.3398 39.1504 47.25C39.0317 47.1708 38.5894 47.0332 38.5801 47.0303C38.5801 47.0303 38.8402 46.9503 38.9502 46.8203C39.0482 46.7027 38.9925 46.3732 38.9902 46.3604C38.9914 46.3596 39.1505 46.2604 39.3496 46.3398C39.5994 46.4298 39.7099 46.6197 39.75 46.7197C39.79 46.8197 39.8701 46.8197 39.8701 46.6797C39.87 46.5394 39.8195 46.1599 39.5098 46C39.2198 45.8502 38.8398 46 38.8398 46C38.8331 45.9965 38.5486 45.8497 38.4102 45.8496C38.2716 45.8496 37.9172 45.8104 37.9102 45.8096V45.5195C37.9171 45.5178 38.0626 45.4838 38.1699 45.6396C38.2399 45.7396 38.28 45.64 38.25 45.54C38.22 45.43 38.0898 45.3496 38.0898 45.3496C38.0898 45.3496 38.2799 45.4101 38.4199 45.4102C38.5598 45.4102 38.8793 45.39 39.0195 45.4697C39.1595 45.5497 39.5704 45.6299 39.8604 45.6299C40.1502 45.6298 40.3805 45.5497 40.4404 45.4697C40.5476 45.3136 40.5021 45.205 40.5 45.2002C40.5 45.2002 40.7298 45.1603 40.9697 45.2402C41.1897 45.3102 41.4297 45.6099 41.5098 45.8398C41.5698 46.0398 41.7204 45.9197 41.6504 45.6797C41.5904 45.4696 41.4701 45.0597 41.1602 44.9297C40.9325 44.8208 40.4205 44.7906 40.4102 44.79C40.4102 44.79 40.1902 44.57 39.9902 44.5898C39.7902 44.6098 39.4898 44.6499 39.2998 44.6699C39.1602 44.6899 39.0704 44.6904 39.0303 44.6904C38.9603 44.5704 38.7896 44.2802 38.6396 44.2002C38.4597 44.1103 38.2398 44.1197 38.0898 44.1396L38 44.0801C37.84 44.0801 37.6596 44.0604 37.5596 44.1504C37.4498 44.2303 37.3102 44.3398 37.1904 44.3799C37.0704 44.4199 37.0099 44.5298 36.8799 44.5498C36.7598 44.5698 36.4199 44.5703 36.4199 44.5703C36.4199 44.5703 36.4399 44.4205 36.2402 44.4004C36.0304 44.3804 35.8702 44.3604 35.6504 44.3604C35.4306 44.3604 35.41 44.2102 35.2305 44.21C35.0543 44.21 34.8775 44.1144 34.8701 44.1104C34.8701 44.1104 34.8098 43.9604 34.6299 43.8604C34.4499 43.7604 34.2899 43.6303 34.1699 43.5303C34.0499 43.4203 34.1098 43.4001 33.96 43.2402C33.82 43.0703 33.5599 42.9002 33.21 42.5303C32.8701 42.1504 32.4802 41.7203 32.2002 41.3604C31.9203 41.0004 31.6898 40.7703 31.5498 40.6104C31.412 40.4431 31.1774 40.1982 31.1699 40.1904C31.1699 40.1904 31.2501 39.5995 31.3701 39.2695C31.49 38.9297 31.5703 38.56 31.7402 38.2002C31.9002 37.8502 32.0602 37.6601 32.2002 37.3701C32.3402 37.0802 32.4799 36.6203 32.8896 36.3203C33.1996 36.1003 33.4597 35.9096 33.8896 35.6396L33.9502 35.8096L33.9697 35.5898C34.0796 35.5199 34.2098 35.4502 34.3496 35.3604C34.4395 35.3104 34.5197 35.2599 34.5996 35.21L34.8203 35.4805C34.7803 35.3306 34.7505 35.2101 34.7305 35.1201L34.7695 35.0898C34.8395 35.1898 34.97 35.3096 35.1699 35.3896L34.9902 34.9697L35.71 34.7305C35.54 34.7505 35.39 34.75 35.25 34.75C35.54 34.54 35.8098 34.3296 36.0898 34.1396C36.3798 33.9397 36.5502 33.8101 36.7402 33.6201V34.1201C36.7402 34.0301 36.9101 33.6402 37.0801 33.2803L37.4004 32.96C37.4204 33.2 37.4297 33.4696 37.4297 33.3896C37.43 33.2395 37.6104 32.9297 37.6104 32.9297C37.6104 32.9297 37.7304 33.8296 37.7305 33.6201C37.7305 33.4301 37.7705 32.7298 37.9805 32.3398C38.1604 32.14 38.3202 31.9596 38.54 31.7197C38.98 31.2398 39.4499 30.6698 40.0898 29.8799C40.7398 29.0899 41.0899 28.71 41.5898 27.7002C42.0998 26.7002 42.3801 25.6998 42.5801 24.8398C42.7801 23.9799 42.8604 23.5196 43.1104 22.6396C43.3503 21.7598 43.5601 21.0698 44 19.75C44.44 18.43 44.9098 17.1498 45.0898 16.2998C45.2698 15.44 45.1897 14.85 45.3496 14.5C45.5096 14.16 45.8799 13.6901 46.2998 13.3301C46.6095 13.0603 46.8297 12.9603 47.0195 12.8604C47.7694 12.5604 49.4895 13.1797 50.5195 13.4697C51.5695 13.7597 52.2103 13.6796 52.5303 13.5596C52.8332 13.4422 52.6673 13.4021 52.6602 13.4004C52.1202 13.3104 50.3403 12.7096 49.7402 12.5195C49.1405 12.3296 49.17 12.1701 48.9004 12.0801C48.4605 11.9401 48.28 11.9701 48.04 11.7803C47.5657 11.4048 47.9995 11.3508 48.0098 11.3496C49.8898 10.8596 51.74 11.0101 53.04 11.6201C53.2 11.6901 53.2002 11.5996 53.2002 11.5996C52.4262 10.5481 49.9397 9.98926 49.9004 9.98047C48.9404 9.67047 48.6904 9.34961 48.6904 9.34961C48.6904 9.34961 48.4803 9.29027 48.3203 9.19043C48.1603 9.08044 48.03 9.04002 47.6201 8.83008C47.2202 8.62014 46.6904 8.36981 46.2305 8.25977C45.7705 8.14977 44.99 8.14965 44.29 8.13965ZM64.8301 8.16016C60.3801 8.16016 57.04 11.4404 57.04 16.1904V40.3398C57.04 45.1498 60.5001 48.3701 64.8301 48.3701V48.3604C69.28 48.3603 71.7998 45.1997 71.7998 40.5098V33.8301H66.6396V40.6797C66.6396 41.7397 66.1099 42.5 64.8799 42.5C63.65 42.5 63.1797 41.7397 63.1797 40.6797V15.8398C63.1797 14.79 63.65 14.0196 64.8799 14.0195C66.1098 14.0195 66.6396 14.7799 66.6396 15.8398V22.7002H71.7998V16.0195C71.7996 11.3898 69.2799 8.16019 64.8301 8.16016ZM74.4199 47.7803H80.4502V31.6602H83.8496V47.7803H89.8301V8.75H83.8496V25.6904H80.4502V8.75H74.4199V47.7803ZM93.46 47.7695H99.5V8.74023H93.46V47.7695ZM103.16 47.7695H109.2V31.4805H110.65C111.47 31.4807 111.94 32.3004 111.94 33.2402V41.7402C111.94 43.9603 112.47 47.7695 113.41 47.7695H118.57V47.5996C118.16 45.7198 117.81 43.73 117.81 41.2803V33.3604C117.81 31.4304 116.64 29.9602 115.06 28.9102C116.64 27.8602 117.64 26.3298 117.64 24.5098V15.5996C117.639 10.4999 114.299 8.74023 111.31 8.74023H103.16V47.7695ZM121.28 47.7695H127.32V32.5996H129.48C132.59 32.5994 135.75 30.7796 135.75 25.6299V15.7197C135.75 10.5102 132.59 8.74041 129.48 8.74023H121.28V47.7695ZM128.89 14.2598C129.59 14.2598 129.95 14.7204 129.95 15.9004V25.8604C129.95 27.0301 129.6 27.5 128.89 27.5H127.31V14.2598H128.89ZM110.71 14.2598C111.42 14.2598 111.77 14.7204 111.77 15.9004V24.6904C111.769 25.9201 111.42 26.3301 110.71 26.3301H109.19V14.2598H110.71Z" />
</svg>