<?xml version="1.0" encoding="UTF-8"?>
<svg id="Layer_1" data-name="Layer 1" xmlns="http://www.w3.org/2000/svg" viewBox="0 0 966 160">
  <defs>
    <style>
      .cls-1 {
        fill: #360d2d;
      }
    </style>
  </defs>
  <path class="cls-1" d="M221.83,122.52c-8.52,0-13.91-2.79-18.78-7.48-5.92-5.92-9.04-16.88-9.04-30.61,0-14.61,3.48-25.39,9.92-31.48,5.21-4.69,10.44-6.78,18.09-6.78,9.57,0,16.35,3.31,18.96,9.57-5.57,1.75-9.04,5.75-9.04,11.48,0,6.09,4.17,10.61,11.13,10.61,7.65,0,12.17-5.39,12.17-13.92,0-14.79-12.52-27.13-33.22-27.13-9.75,0-18.44,3.14-25.57,8.35-12,8.69-19.65,23.65-19.65,39.31,0,24.35,17.05,47.83,44,47.83h0c23.83-.01,37.57-16.36,38.79-38.09h-10.09c-1.39,17.91-11.83,28.35-27.66,28.35Z"/>
  <path class="cls-1" d="M352.27,103.21c0,13.04-3.31,18.61-8.35,18.61-4.18,0-6.44-2.44-6.44-10.44v-49.04c0-17.05-11.99-25.57-31.48-25.57-21.57,0-37.74,12-37.74,25.05,0,7.48,4.52,12.17,11.13,12.17s10.61-4.69,10.61-10.26c0-5.04-2.61-8.34-7.13-11.13,4.87-4.52,12.7-6.26,21.05-6.26,13.92,0,18.61,5.22,18.61,17.05v8.52c-6.43,2.26-15.65,5.21-20.34,7.13-27.13,10.09-35.31,15.82-35.31,31.48,0,13.74,11.13,21.74,24.87,21.74s24.53-8.52,30.26-21.39h.87v3.13c0,10.78,4,18.26,18.95,18.26,14.61,0,20.17-11.13,20.17-27.83v-7.83h-9.74v6.61ZM322.54,89.12c0,9.75-4.69,19.65-11.13,25.57-4.52,4.52-9.75,7.13-14.96,7.13h0c-4,.01-7.13-1.04-9.57-3.3-2.27-2.26-3.48-5.39-3.48-9.74,0-5.22,1.39-8.87,4.35-12,3.83-4.17,10.44-7.31,21.05-11.48,4.17-1.75,9.39-3.83,13.74-5.39v9.21Z"/>
  <polygon class="cls-1" points="341.84 132.26 341.83 132.26 341.83 132.26 341.84 132.26"/>
  <polygon class="cls-1" points="363.93 129.66 363.93 129.64 363.92 129.64 363.93 129.66"/>
  <path class="cls-1" d="M399.06,111.91V.77c-12.17.69-24.53,1.39-36.7,2.09v9.57l10.61.35c8.7.34,10.96,1.9,10.96,11.3v87.84c0,6.44-1.73,7.48-8.17,7.65l-11.82.35v9.73h55.12v-9.74l-11.82-.35c-6.26-.17-8.17-1.21-8.17-7.65Z"/>
  <polygon class="cls-1" points="423.19 129.66 423.19 129.64 423.18 129.64 423.19 129.66"/>
  <path class="cls-1" d="M458.31,111.91V.77c-12.17.69-24.53,1.39-36.7,2.09v9.57l10.61.35c8.7.34,10.96,1.9,10.96,11.3v87.84c0,6.44-1.73,7.48-8.17,7.65l-11.82.35v9.73h55.12v-9.74l-11.82-.35c-6.26-.17-8.17-1.21-8.17-7.65Z"/>
  <path class="cls-1" d="M518.58,111.92V37.3c-12.17.69-24.53,1.39-36.7,2.09v9.57l10.61.35c8.7.34,10.96,1.9,10.96,11.3v51.31c0,6.44-1.73,7.48-8.17,7.65l-11.82.35v9.74h55.12v-9.74l-11.82-.35c-6.26-.17-8.17-1.21-8.17-7.65Z"/>
  <path class="cls-1" d="M510.23,25.29c6.43,0,11.3-5.04,11.3-11.3s-4.87-11.13-11.3-11.13-11.3,4.87-11.3,11.13,4.87,11.3,11.3,11.3Z"/>
  <path class="cls-1" d="M596.93,36.77c-12.69,0-23.13,6.96-29.39,20.17h-1.39V.77l-36.35,2.26v9.57l10.78.35c8.17.35,10.78,1.92,10.78,11.13v106.79h6.61l5.92-18.96h1.91c5.57,13.03,16.35,20.35,29.74,20.35,21.22,0,40.35-18.79,40.35-47.83s-17.57-47.65-38.96-47.65ZM610.34,114.69c-4.52,5.05-9.91,7.31-16.86,7.31-8.7,0-14.09-3.65-18.44-9.57-5.57-6.79-8.35-15.66-8.35-28.01s2.78-20.87,8.17-27.3c4.86-6.61,11.47-10.09,19.3-10.09,6.43,0,11.65,2.43,15.82,6.78h.01c5.39,6.44,8.88,16.7,8.88,30.61,0,14.96-3.48,24.35-8.52,30.26Z"/>
  <path class="cls-1" d="M703.63,36.95c-12.88,0-23.82,8.52-28.7,26.09h-1.56l-1.04-25.74c-11.65.69-22.95,1.39-34.78,2.09v9.57l10.61.35c8.52.35,10.96,2.09,10.96,11.48v51.13c0,6.44-1.57,7.48-8,7.65l-12,.35v9.74h56.35v-9.73l-13.04-.35c-6.44-.17-8.17-1.21-8.17-7.65v-16c0-14.27,2.79-25.74,7.48-35.14,3.82-7.48,10.26-13.4,18.26-13.4,2.09,0,3.48.35,4.52,1.04-2.61,2.26-4.17,5.57-4.17,9.21,0,5.38,4.17,9.74,10.78,9.74,7.13,0,11.65-5.57,11.65-13.57,0-9.39-7.48-16.87-19.13-16.87Z"/>
  <path class="cls-1" d="M764.24,111.92V37.3c-12.17.69-24.53,1.39-36.7,2.09v9.57l10.61.35c8.7.34,10.96,1.9,10.96,11.3v51.31c0,6.44-1.73,7.48-8.17,7.65l-11.82.35v9.74h55.12v-9.74l-11.82-.35c-6.26-.17-8.17-1.21-8.17-7.65Z"/>
  <path class="cls-1" d="M755.89,25.29c6.43,0,11.3-5.04,11.3-11.3s-4.87-11.13-11.3-11.13-11.3,4.87-11.3,11.13,4.87,11.3,11.3,11.3Z"/>
  <path class="cls-1" d="M841.2,96.09c0,17.39-2.09,25.74-15.65,25.74-8.69,0-15.3-2.61-15.3-18.96v-53.57h35.83v-9.92h-35.83V7.73h-8.35c-1.04,18.96-6.09,28.88-25.39,33.57v8h18.78v53.22c0,10.96,2.44,18.78,8,23.65,4.35,3.83,10.61,6.09,19.65,6.09,20.01,0,28.18-9.04,28.18-35.48v-10.96h-9.92v10.26Z"/>
  <path class="cls-1" d="M914.85,39.39v9.57l11.3.35c4.52.17,6.26,1.9,6.26,4.69,0,1.21-.35,2.61-.87,4.17l-19.13,53.57h-1.21l-21.39-53.57c-.52-1.39-.87-2.79-.87-3.83,0-3.31,2.44-4.87,8-5.04l10.44-.35v-9.57h-55.48v9.57l7.83.35c8,.35,11.13,2.96,13.74,9.57l29.74,72.87c-1.73,3.48-3.82,6.79-6.26,9.92-4.18,4.7-9.75,8.35-17.57,8.35-4,0-6.78-.69-8.69-2.26,3.31-2.26,5.4-5.39,5.4-9.57,0-5.56-3.65-10.09-10.61-10.09s-11.65,5.21-11.65,12.34c0,12.17,10.61,18.78,25.39,18.78h0c10.09.01,17.92-3.81,24.53-11.12,5.21-6.09,11.13-15.83,16.7-30.61l21.91-58.61c2.96-7.65,6.96-9.4,13.21-9.57l10.09-.35v-9.57h-50.79Z"/>
  <path class="cls-1" d="M88.54.77h-1C49.82.77,18.88,30.18,16.41,67.29c-.14,2.11-1.93,3.76-4.05,3.76H.36v1c0,48.14,39.04,87.18,87.18,87.18h1v-17.94h-1c-36.35,0-66.22-28.15-69.02-63.72-.18-2.36,1.68-4.41,4.08-4.41h5.69c2.11,0,3.87,1.58,4.05,3.69,2.4,28.33,26.22,50.68,55.19,50.68h1v-17.94h-1c-18.7,0-34.2-13.79-37-31.7-.39-2.51,1.5-4.76,4.05-4.76h11.39v-1.04c0-11.89,9.63-21.56,21.56-21.56h1v-17.94h-1c-20.24,0-36.89,15.26-39.22,34.85-.25,2.04-1.97,3.62-4.05,3.62h-5.73c-2.4,0-4.33-2.08-4.08-4.48,2.76-26.86,25.5-47.89,53.08-47.89h1.04v-9.99l-.04.04V.77Z"/>
</svg>